<svg width="18" height="18" viewBox="0 0 18 18" fill="none" xmlns="http://www.w3.org/2000/svg">
<path d="M11.2354 5.26172C11.2354 5.26172 11.6104 5.63672 11.9854 6.38672C11.9854 6.38672 13.1765 4.51172 14.2354 4.13672" stroke="#141B34" stroke-width="1.5" stroke-linecap="round" stroke-linejoin="round"/>
<path d="M7.49614 1.51556C5.62229 1.43623 4.17459 1.65209 4.17459 1.65209C3.26045 1.71746 1.5086 2.22995 1.50861 5.22296C1.50863 8.19053 1.48923 11.849 1.50861 13.3075C1.50861 14.1986 2.06033 16.277 3.96995 16.3884C6.29108 16.5239 10.4721 16.5527 12.3903 16.3884C12.9039 16.3595 14.6135 15.9563 14.8299 14.0963C15.054 12.1693 15.0094 10.8301 15.0094 10.5113" stroke="#141B34" stroke-width="1.5" stroke-linecap="round" stroke-linejoin="round"/>
<path d="M16.4999 5.26172C16.4999 7.33278 14.8194 9.01175 12.7463 9.01175C10.6732 9.01175 8.99268 7.33278 8.99268 5.26172C8.99268 3.19065 10.6732 1.51172 12.7463 1.51172C14.8194 1.51172 16.4999 3.19065 16.4999 5.26172Z" stroke="#141B34" stroke-width="1.5" stroke-linecap="round"/>
<path d="M5.23535 9.76172H8.23533" stroke="#141B34" stroke-width="1.5" stroke-linecap="round"/>
<path d="M5.23535 12.7617H11.2353" stroke="#141B34" stroke-width="1.5" stroke-linecap="round"/>
</svg>
