<svg width="18" height="18" viewBox="0 0 18 18" fill="none" xmlns="http://www.w3.org/2000/svg">
<path d="M9 14.25C9.15705 14.25 9.30307 14.1758 9.59505 14.0274L11.9421 12.8346C12.9807 12.3068 13.5 12.0429 13.5 11.625V6.375M9 14.25C8.84295 14.25 8.69693 14.1758 8.40495 14.0274L6.05788 12.8346C5.01929 12.3068 4.5 12.0429 4.5 11.625V6.375M9 14.25V9M13.5 6.375C13.5 5.95709 12.9807 5.69318 11.9421 5.16537L9.59505 3.97259C9.30307 3.8242 9.15705 3.75 9 3.75C8.84295 3.75 8.69693 3.8242 8.40495 3.97259L6.05788 5.16537C5.01929 5.69318 4.5 5.95709 4.5 6.375M13.5 6.375C13.5 6.79291 12.9807 7.05682 11.9421 7.5846L9.59505 8.7774C9.30307 8.92583 9.15705 9 9 9M4.5 6.375C4.5 6.79291 5.01929 7.05682 6.05788 7.5846L8.40495 8.7774C8.69693 8.92583 8.84295 9 9 9" stroke="#2B2B2B" stroke-width="1.4" stroke-linejoin="round"/>
<path d="M9.89257 16.182L13.4131 14.4781C14.971 13.724 15.75 13.347 15.75 12.75V5.25C15.75 4.65298 14.971 4.27597 13.4131 3.52196L9.89257 1.81799C9.45457 1.60601 9.23557 1.5 9 1.5C8.76443 1.5 8.54543 1.606 8.10743 1.81799L4.58682 3.52196C3.02894 4.27597 2.25 4.65298 2.25 5.25V12.75C2.25 13.347 3.02893 13.724 4.58679 14.478L8.10743 16.182C8.54543 16.394 8.76443 16.5 9 16.5C9.23557 16.5 9.45457 16.394 9.89257 16.182Z" stroke="#2B2B2B" stroke-width="1.4" stroke-linejoin="round"/>
</svg>
