<svg width="183" height="46" viewBox="0 0 183 46" fill="none" xmlns="http://www.w3.org/2000/svg">
<path d="M0 10.2222C0 4.57664 4.57664 0 10.2222 0H35.7778C41.4234 0 46 4.57664 46 10.2222V35.7778C46 41.4234 41.4234 46 35.7778 46H10.2222C4.57664 46 0 41.4234 0 35.7778V10.2222Z" fill="#03070D"/>
<path d="M34.4996 15.9722C34.4996 18.4422 32.4973 20.4444 30.0274 20.4444C27.5575 20.4444 25.5552 18.4422 25.5552 15.9722C25.5552 13.5023 27.5575 11.5 30.0274 11.5C32.4973 11.5 34.4996 13.5023 34.4996 15.9722Z" stroke="#3CA0C9" stroke-width="2" stroke-linecap="round"/>
<path d="M11.5 15.9722C11.5 13.864 11.5 12.8099 12.1549 12.1549C12.8099 11.5 13.864 11.5 15.9722 11.5C18.0805 11.5 19.1346 11.5 19.7895 12.1549C20.4444 12.8099 20.4444 13.864 20.4444 15.9722C20.4444 18.0805 20.4444 19.1346 19.7895 19.7895C19.1346 20.4444 18.0805 20.4444 15.9722 20.4444C13.864 20.4444 12.8099 20.4444 12.1549 19.7895C11.5 19.1346 11.5 18.0805 11.5 15.9722Z" stroke="#3CA0C9" stroke-width="2" stroke-linecap="round"/>
<path d="M11.5 30.0269C11.5 27.9187 11.5 26.8645 12.1549 26.2097C12.8099 25.5547 13.864 25.5547 15.9722 25.5547C18.0805 25.5547 19.1346 25.5547 19.7895 26.2097C20.4444 26.8645 20.4444 27.9187 20.4444 30.0269C20.4444 32.1351 20.4444 33.1893 19.7895 33.8441C19.1346 34.4991 18.0805 34.4991 15.9722 34.4991C13.864 34.4991 12.8099 34.4991 12.1549 33.8441C11.5 33.1893 11.5 32.1351 11.5 30.0269Z" stroke="#3CA0C9" stroke-width="2" stroke-linecap="round"/>
<path d="M25.5552 30.0269C25.5552 27.9187 25.5552 26.8645 26.2102 26.2097C26.865 25.5547 27.9192 25.5547 30.0274 25.5547C32.1356 25.5547 33.1898 25.5547 33.8446 26.2097C34.4996 26.8645 34.4996 27.9187 34.4996 30.0269C34.4996 32.1351 34.4996 33.1893 33.8446 33.8441C33.1898 34.4991 32.1356 34.4991 30.0274 34.4991C27.9192 34.4991 26.865 34.4991 26.2102 33.8441C25.5552 33.1893 25.5552 32.1351 25.5552 30.0269Z" stroke="#3CA0C9" stroke-width="2" stroke-linecap="round"/>
<path d="M30.0277 20.4429V25.554M25.5554 30.0263H20.4443M20.4443 15.9707H25.5554" stroke="#3CA0C9" stroke-width="2" stroke-linecap="round"/>
<path d="M56.91 16.3H64.54V18.92H59.9V21.58H64.19V24.19H59.9V29.5H56.91V16.3ZM69.4894 29.5H66.4394V15.74H69.4894V29.5ZM73.8694 26.04C73.8894 26.3333 73.9827 26.5933 74.1494 26.82C74.316 27.0467 74.546 27.2267 74.8394 27.36C75.1394 27.4867 75.4927 27.55 75.8994 27.55C76.286 27.55 76.6327 27.51 76.9394 27.43C77.2527 27.35 77.5227 27.25 77.7494 27.13C77.9827 27.01 78.1627 26.8867 78.2894 26.76L79.4694 28.64C79.3027 28.82 79.066 28.9967 78.7594 29.17C78.4594 29.3367 78.0627 29.4733 77.5694 29.58C77.076 29.6867 76.4527 29.74 75.6994 29.74C74.7927 29.74 73.986 29.57 73.2794 29.23C72.5727 28.89 72.016 28.39 71.6094 27.73C71.2027 27.07 70.9994 26.2633 70.9994 25.31C70.9994 24.51 71.1727 23.79 71.5194 23.15C71.8727 22.5033 72.3827 21.9933 73.0494 21.62C73.716 21.24 74.5194 21.05 75.4594 21.05C76.3527 21.05 77.126 21.2133 77.7794 21.54C78.4394 21.8667 78.946 22.3533 79.2994 23C79.6594 23.64 79.8394 24.44 79.8394 25.4C79.8394 25.4533 79.836 25.56 79.8294 25.72C79.8294 25.88 79.8227 25.9867 79.8094 26.04H73.8694ZM76.9794 24.45C76.9727 24.2367 76.916 24.0267 76.8094 23.82C76.7027 23.6067 76.5427 23.4333 76.3294 23.3C76.116 23.16 75.8427 23.09 75.5094 23.09C75.176 23.09 74.8927 23.1567 74.6594 23.29C74.4327 23.4167 74.2594 23.5833 74.1394 23.79C74.0194 23.9967 73.9527 24.2167 73.9394 24.45H76.9794ZM83.8303 26.04C83.8503 26.3333 83.9436 26.5933 84.1103 26.82C84.277 27.0467 84.507 27.2267 84.8003 27.36C85.1003 27.4867 85.4536 27.55 85.8603 27.55C86.247 27.55 86.5936 27.51 86.9003 27.43C87.2136 27.35 87.4836 27.25 87.7103 27.13C87.9436 27.01 88.1236 26.8867 88.2503 26.76L89.4303 28.64C89.2636 28.82 89.027 28.9967 88.7203 29.17C88.4203 29.3367 88.0236 29.4733 87.5303 29.58C87.037 29.6867 86.4136 29.74 85.6603 29.74C84.7536 29.74 83.947 29.57 83.2403 29.23C82.5336 28.89 81.977 28.39 81.5703 27.73C81.1636 27.07 80.9603 26.2633 80.9603 25.31C80.9603 24.51 81.1336 23.79 81.4803 23.15C81.8336 22.5033 82.3436 21.9933 83.0103 21.62C83.677 21.24 84.4803 21.05 85.4203 21.05C86.3136 21.05 87.087 21.2133 87.7403 21.54C88.4003 21.8667 88.907 22.3533 89.2603 23C89.6203 23.64 89.8003 24.44 89.8003 25.4C89.8003 25.4533 89.797 25.56 89.7903 25.72C89.7903 25.88 89.7836 25.9867 89.7703 26.04H83.8303ZM86.9403 24.45C86.9336 24.2367 86.877 24.0267 86.7703 23.82C86.6636 23.6067 86.5036 23.4333 86.2903 23.3C86.077 23.16 85.8036 23.09 85.4703 23.09C85.137 23.09 84.8536 23.1567 84.6203 23.29C84.3936 23.4167 84.2203 23.5833 84.1003 23.79C83.9803 23.9967 83.9136 24.2167 83.9003 24.45H86.9403ZM90.6713 21.29H92.0713V17.92H95.0813V21.29H96.9213V23.79H95.0813V26.08C95.0813 26.42 95.1313 26.6967 95.2313 26.91C95.3313 27.1167 95.5146 27.22 95.7813 27.22C95.9613 27.22 96.1146 27.18 96.2413 27.1C96.3679 27.02 96.4446 26.9667 96.4713 26.94L97.5113 29.1C97.4646 29.14 97.3179 29.2133 97.0713 29.32C96.8313 29.4267 96.5246 29.5233 96.1513 29.61C95.7779 29.6967 95.3613 29.74 94.9013 29.74C94.0813 29.74 93.4046 29.51 92.8713 29.05C92.3379 28.5833 92.0713 27.8667 92.0713 26.9V23.79H90.6713V21.29ZM117.98 16.3V29.5H115V21.73L115.13 19.52L114.62 22.05L112.4 28.44H109.47L107.26 22.05L106.76 19.52L106.89 21.73V29.5H103.9V16.3H108.1L110.76 25.11L110.94 26.16L111.12 25.11L113.78 16.3H117.98ZM126.745 29.5V28.17C126.685 28.3033 126.532 28.4967 126.285 28.75C126.045 29.0033 125.725 29.2333 125.325 29.44C124.925 29.64 124.458 29.74 123.925 29.74C123.125 29.74 122.425 29.5467 121.825 29.16C121.225 28.7667 120.758 28.2433 120.425 27.59C120.092 26.93 119.925 26.2 119.925 25.4C119.925 24.6 120.092 23.8733 120.425 23.22C120.758 22.56 121.225 22.0333 121.825 21.64C122.425 21.2467 123.125 21.05 123.925 21.05C124.438 21.05 124.888 21.1333 125.275 21.3C125.662 21.46 125.975 21.6533 126.215 21.88C126.455 22.1 126.622 22.3033 126.715 22.49V21.29H129.735V29.5H126.745ZM122.905 25.4C122.905 25.7733 122.992 26.11 123.165 26.41C123.338 26.7033 123.568 26.9333 123.855 27.1C124.148 27.2667 124.472 27.35 124.825 27.35C125.192 27.35 125.515 27.2667 125.795 27.1C126.075 26.9333 126.295 26.7033 126.455 26.41C126.622 26.11 126.705 25.7733 126.705 25.4C126.705 25.0267 126.622 24.6933 126.455 24.4C126.295 24.1 126.075 23.8667 125.795 23.7C125.515 23.5267 125.192 23.44 124.825 23.44C124.472 23.44 124.148 23.5267 123.855 23.7C123.568 23.8667 123.338 24.1 123.165 24.4C122.992 24.6933 122.905 25.0267 122.905 25.4ZM137.314 21.05C137.888 21.05 138.448 21.1667 138.994 21.4C139.541 21.6333 139.991 22.0033 140.344 22.51C140.698 23.01 140.874 23.67 140.874 24.49V29.5H137.824V24.99C137.824 24.4033 137.684 23.9633 137.404 23.67C137.124 23.37 136.758 23.22 136.304 23.22C136.004 23.22 135.721 23.3 135.454 23.46C135.194 23.6133 134.981 23.8333 134.814 24.12C134.654 24.4 134.574 24.7233 134.574 25.09V29.5H131.534V21.29H134.574V22.5C134.654 22.28 134.821 22.06 135.074 21.84C135.334 21.6133 135.658 21.4267 136.044 21.28C136.438 21.1267 136.861 21.05 137.314 21.05ZM149.011 29.5V28.17C148.951 28.3033 148.797 28.4967 148.551 28.75C148.311 29.0033 147.991 29.2333 147.591 29.44C147.191 29.64 146.724 29.74 146.191 29.74C145.391 29.74 144.691 29.5467 144.091 29.16C143.491 28.7667 143.024 28.2433 142.691 27.59C142.357 26.93 142.191 26.2 142.191 25.4C142.191 24.6 142.357 23.8733 142.691 23.22C143.024 22.56 143.491 22.0333 144.091 21.64C144.691 21.2467 145.391 21.05 146.191 21.05C146.704 21.05 147.154 21.1333 147.541 21.3C147.927 21.46 148.241 21.6533 148.481 21.88C148.721 22.1 148.887 22.3033 148.981 22.49V21.29H152.001V29.5H149.011ZM145.171 25.4C145.171 25.7733 145.257 26.11 145.431 26.41C145.604 26.7033 145.834 26.9333 146.121 27.1C146.414 27.2667 146.737 27.35 147.091 27.35C147.457 27.35 147.781 27.2667 148.061 27.1C148.341 26.9333 148.561 26.7033 148.721 26.41C148.887 26.11 148.971 25.7733 148.971 25.4C148.971 25.0267 148.887 24.6933 148.721 24.4C148.561 24.1 148.341 23.8667 148.061 23.7C147.781 23.5267 147.457 23.44 147.091 23.44C146.737 23.44 146.414 23.5267 146.121 23.7C145.834 23.8667 145.604 24.1 145.431 24.4C145.257 24.6933 145.171 25.0267 145.171 25.4ZM158.24 33.89C157.667 33.89 157.097 33.84 156.53 33.74C155.97 33.64 155.447 33.47 154.96 33.23C154.473 32.99 154.063 32.66 153.73 32.24L155.51 30.39C155.663 30.57 155.85 30.7467 156.07 30.92C156.297 31.0933 156.573 31.2367 156.9 31.35C157.233 31.4633 157.637 31.52 158.11 31.52C158.55 31.52 158.933 31.4433 159.26 31.29C159.587 31.1367 159.84 30.9133 160.02 30.62C160.207 30.3267 160.3 29.97 160.3 29.55V29.35H163.29V29.73C163.29 30.6367 163.063 31.4 162.61 32.02C162.163 32.64 161.56 33.1067 160.8 33.42C160.04 33.7333 159.187 33.89 158.24 33.89ZM160.3 29.5V28.17C160.24 28.3033 160.087 28.4967 159.84 28.75C159.6 29.0033 159.28 29.2333 158.88 29.44C158.48 29.64 158.013 29.74 157.48 29.74C156.68 29.74 155.98 29.5467 155.38 29.16C154.78 28.7667 154.313 28.2433 153.98 27.59C153.647 26.93 153.48 26.2 153.48 25.4C153.48 24.6 153.647 23.8733 153.98 23.22C154.313 22.56 154.78 22.0333 155.38 21.64C155.98 21.2467 156.68 21.05 157.48 21.05C157.993 21.05 158.443 21.1333 158.83 21.3C159.217 21.46 159.53 21.6533 159.77 21.88C160.01 22.1 160.177 22.3033 160.27 22.49V21.29H163.29V29.5H160.3ZM156.46 25.4C156.46 25.7733 156.547 26.11 156.72 26.41C156.893 26.7033 157.123 26.9333 157.41 27.1C157.703 27.2667 158.027 27.35 158.38 27.35C158.747 27.35 159.07 27.2667 159.35 27.1C159.63 26.9333 159.85 26.7033 160.01 26.41C160.177 26.11 160.26 25.7733 160.26 25.4C160.26 25.0267 160.177 24.6933 160.01 24.4C159.85 24.1 159.63 23.8667 159.35 23.7C159.07 23.5267 158.747 23.44 158.38 23.44C158.027 23.44 157.703 23.5267 157.41 23.7C157.123 23.8667 156.893 24.1 156.72 24.4C156.547 24.6933 156.46 25.0267 156.46 25.4ZM167.658 26.04C167.678 26.3333 167.772 26.5933 167.938 26.82C168.105 27.0467 168.335 27.2267 168.628 27.36C168.928 27.4867 169.282 27.55 169.688 27.55C170.075 27.55 170.422 27.51 170.728 27.43C171.042 27.35 171.312 27.25 171.538 27.13C171.772 27.01 171.952 26.8867 172.078 26.76L173.258 28.64C173.092 28.82 172.855 28.9967 172.548 29.17C172.248 29.3367 171.852 29.4733 171.358 29.58C170.865 29.6867 170.242 29.74 169.488 29.74C168.582 29.74 167.775 29.57 167.068 29.23C166.362 28.89 165.805 28.39 165.398 27.73C164.992 27.07 164.788 26.2633 164.788 25.31C164.788 24.51 164.962 23.79 165.308 23.15C165.662 22.5033 166.172 21.9933 166.838 21.62C167.505 21.24 168.308 21.05 169.248 21.05C170.142 21.05 170.915 21.2133 171.568 21.54C172.228 21.8667 172.735 22.3533 173.088 23C173.448 23.64 173.628 24.44 173.628 25.4C173.628 25.4533 173.625 25.56 173.618 25.72C173.618 25.88 173.612 25.9867 173.598 26.04H167.658ZM170.768 24.45C170.762 24.2367 170.705 24.0267 170.598 23.82C170.492 23.6067 170.332 23.4333 170.118 23.3C169.905 23.16 169.632 23.09 169.298 23.09C168.965 23.09 168.682 23.1567 168.448 23.29C168.222 23.4167 168.048 23.5833 167.928 23.79C167.808 23.9967 167.742 24.2167 167.728 24.45H170.768ZM177.979 29.5H174.939V21.29H177.979V22.56H177.929C177.983 22.4067 178.113 22.2133 178.319 21.98C178.526 21.74 178.816 21.5267 179.189 21.34C179.563 21.1467 180.019 21.05 180.559 21.05C180.939 21.05 181.289 21.11 181.609 21.23C181.929 21.3433 182.163 21.4533 182.309 21.56L181.129 24.03C181.036 23.9167 180.869 23.8 180.629 23.68C180.396 23.5533 180.103 23.49 179.749 23.49C179.343 23.49 179.006 23.5933 178.739 23.8C178.479 24.0067 178.286 24.2567 178.159 24.55C178.039 24.8433 177.979 25.12 177.979 25.38V29.5Z" fill="#10182B"/>
</svg>
