<svg width="214" height="36" viewBox="0 0 214 36" fill="none" xmlns="http://www.w3.org/2000/svg">
<path d="M5.34988 28.8473C4.01999 27.5108 2.93332 26.0969 2.13642 24.7089C2.1209 24.8121 2.11572 24.9204 2.11572 25.0288C2.12607 25.4416 2.23992 25.8699 2.42103 26.3137C2.84017 27.3302 3.62155 28.4293 4.66165 29.4768C4.66165 29.4768 4.66683 29.4768 4.66683 29.482C4.67717 29.4923 4.68235 29.4975 4.6927 29.5026C5.48442 30.287 6.31236 30.9216 7.10408 31.3654C7.90615 31.8092 8.68753 32.0827 9.39128 32.0156C9.39128 32.0156 9.39128 32.0156 9.39645 32.0156C8.04587 31.2261 6.67976 30.1683 5.3861 28.8886C5.37575 28.8731 5.3654 28.8628 5.34988 28.8473Z" fill="#3A6593"/>
<path d="M14.4159 32.9495C13.4017 32.4851 12.3616 31.902 11.3267 31.2157C11.1093 31.1383 10.8868 31.0557 10.6591 30.9577C9.33444 30.3901 7.91141 29.4458 6.59187 28.1815C6.49355 28.0887 6.39524 27.9958 6.29692 27.8977C6.27105 27.8719 6.24517 27.841 6.2193 27.8152C4.62551 26.2001 3.51813 24.4095 2.99032 22.8357C2.03818 21.3805 1.29821 19.9254 0.791094 18.527C0.703125 18.8005 0.630681 19.0843 0.604808 19.3835C0.527188 20.204 0.65138 21.1019 0.94116 22.0462C1.20507 22.9027 1.61386 23.7954 2.1365 24.7036C2.93857 26.0917 4.02007 27.5056 5.34996 28.8369C5.36548 28.8524 5.37583 28.8627 5.39136 28.873C6.68502 30.1579 8.05112 31.2105 9.40171 32C9.80015 32.2322 10.1986 32.449 10.5919 32.6347C12.3254 33.45 13.9761 33.8112 15.3629 33.5119C15.3629 33.5119 15.3629 33.5119 15.3681 33.5119C15.4612 33.4913 15.5544 33.4603 15.6475 33.4345C15.2335 33.2952 14.8247 33.1352 14.4159 32.9495Z" fill="#5089B3"/>
<path d="M21.8571 30.8596C21.8157 30.9112 21.7795 30.968 21.7329 31.0145C21.293 31.4479 20.7549 31.7523 20.108 31.9381C19.3525 32.1548 18.4366 32.191 17.4276 32.0516C17.4121 32.0516 17.3965 32.0465 17.3758 32.0413C16.4496 31.9072 15.4457 31.6233 14.4056 31.1847C12.2426 30.2766 9.92434 28.7234 7.81826 26.6335C7.78204 26.6026 7.75099 26.5716 7.71477 26.5355C7.70442 26.5252 7.69407 26.5097 7.67854 26.4994C4.91011 23.7181 3.08864 20.5652 2.43146 17.8871C2.14167 16.7106 2.0744 15.6373 2.22447 14.7291C2.37453 13.821 2.72641 13.0934 3.28527 12.5361C3.32667 12.4948 3.38359 12.4587 3.42498 12.4174C3.17143 11.4731 3.02654 10.5649 2.98514 9.69287C2.40558 9.92508 1.87777 10.2553 1.43275 10.6939C0.635851 11.4834 0.190834 12.5309 0.0511183 13.7074C-0.0885971 14.8788 0.0614626 16.1843 0.45991 17.562C0.553054 17.882 0.666899 18.2071 0.785915 18.5321C1.29303 19.9305 2.033 21.3805 2.98514 22.8408C3.98385 24.3631 5.19989 25.8905 6.63327 27.3405C6.67984 27.3869 6.72123 27.4333 6.7678 27.4798C6.84542 27.5572 6.92822 27.6294 7.00584 27.7068C8.39782 29.0743 9.86224 30.2456 11.3215 31.2105C12.3564 31.8968 13.3965 32.4799 14.4108 32.9443C14.8247 33.1301 15.2335 33.2952 15.6371 33.4449C17.7122 34.2137 19.6682 34.4769 21.3189 34.0847C21.3189 34.0847 21.3241 34.0847 21.3293 34.0847C22.1934 33.8732 22.9696 33.4655 23.5854 32.8566C24.0252 32.418 24.3461 31.8968 24.5789 31.3241C23.7096 31.2776 22.7989 31.1177 21.8571 30.8596Z" fill="#68A5C4"/>
<path d="M31.3422 24.5953C31.1249 24.6779 30.8972 24.7553 30.6643 24.8121C30.6643 24.8121 30.6643 24.8172 30.6592 24.8172C30.2141 24.9204 29.7484 24.9772 29.2672 24.9875C29.1223 26.2105 28.6824 27.227 27.9425 27.9546C27.4043 28.4861 26.7368 28.8628 25.9451 29.0846C24.196 29.58 21.8105 29.2859 19.2439 28.2126C16.9256 27.2425 14.4677 25.6377 12.1857 23.5014C11.9476 23.2744 11.7044 23.0525 11.4716 22.8151C11.3422 22.6861 11.2232 22.5571 11.0938 22.4333C8.0977 19.3165 6.10547 15.8335 5.35514 12.8251C5.00327 11.4267 4.92047 10.1367 5.09641 9.0376C5.27752 7.9385 5.70702 7.0458 6.39007 6.35951C6.92824 5.82801 7.59059 5.45133 8.38748 5.22944C8.69279 5.14172 9.02397 5.09012 9.37067 5.054C9.37584 4.84243 9.38101 4.63603 9.40689 4.42962C9.46898 3.91877 9.588 3.43372 9.76911 2.97963C8.8946 2.93319 8.06148 2.98995 7.28528 3.18088C6.27623 3.43372 5.37067 3.90845 4.65657 4.62055C3.73548 5.53389 3.20766 6.74651 3.0369 8.10362C2.9748 8.60931 2.96963 9.14081 2.9955 9.68778C3.0369 10.5598 3.18179 11.468 3.43534 12.4123C3.45087 12.4691 3.46122 12.5207 3.47674 12.5774C4.49097 16.1534 6.93858 20.1628 10.5246 23.7491C13.293 26.5149 16.315 28.6099 19.1921 29.8948C20.1029 30.2973 20.9929 30.6172 21.8674 30.8546C22.8092 31.1126 23.72 31.2725 24.5841 31.319C25.4586 31.3654 26.2866 31.3086 27.0524 31.1177C27.0576 31.1177 27.0576 31.1177 27.0576 31.1177C28.0667 30.8649 28.967 30.3901 29.6863 29.6781C30.9489 28.4087 31.4457 26.6181 31.3422 24.5953Z" fill="#7FB0CC"/>
<path d="M33.8985 16.7107C33.8157 16.4166 33.7122 16.1173 33.6035 15.818C33.4483 16.205 33.231 16.5559 32.9308 16.85C32.6928 17.0874 32.4185 17.2732 32.1184 17.4177C32.2271 18.1917 32.2323 18.9089 32.1339 19.5385C31.9787 20.4466 31.632 21.1794 31.0731 21.7315C30.6333 22.165 30.0951 22.4694 29.4483 22.6552C27.989 23.0731 25.9502 22.8306 23.751 21.9018C21.707 21.0452 19.5337 19.6107 17.5259 17.6963C17.3707 17.5467 17.2154 17.4022 17.0602 17.2474C16.9567 17.1442 16.8532 17.0358 16.7497 16.9274C14.1365 14.2184 12.4082 11.1894 11.7717 8.59903C11.4819 7.42768 11.4147 6.34922 11.5647 5.4462C11.7148 4.53802 12.0667 3.81045 12.6255 3.25315C13.0602 2.8197 13.5984 2.51526 14.2452 2.32949C15.011 2.10761 15.9373 2.07665 16.9567 2.22629C17.1016 1.93732 17.2827 1.66384 17.5156 1.43163C17.8105 1.13751 18.1676 0.920783 18.5557 0.765979C16.5376 0.0384034 14.6385 -0.204122 13.0343 0.182887C12.165 0.394451 11.3888 0.79694 10.773 1.41099C10.3228 1.85476 9.98646 2.38625 9.7536 2.97967C9.57248 3.43376 9.45347 3.91881 9.39137 4.42966C9.3655 4.6309 9.36549 4.84247 9.35515 5.05403C9.31892 6.06025 9.46899 7.14904 9.79499 8.28426C10.7057 11.4423 12.8998 14.9976 16.0977 18.202C18.5505 20.653 21.2103 22.5159 23.7407 23.6717C25.7019 24.5644 27.5906 25.034 29.2568 24.9875C29.7381 24.9721 30.209 24.9205 30.6488 24.8173C30.6488 24.8173 30.6488 24.8121 30.654 24.8121C30.8868 24.7553 31.1094 24.6831 31.3319 24.5954C31.927 24.3632 32.4651 24.0278 32.9153 23.584C33.7122 22.7945 34.1572 21.7418 34.2969 20.5705C34.447 19.3888 34.2918 18.0885 33.8985 16.7107Z" fill="#9AC6DD"/>
<path d="M33.5311 12.0718C33.1689 10.9107 32.548 9.6723 31.72 8.43388C31.8494 8.76928 31.9373 9.09437 31.9632 9.40398C31.9943 9.78583 31.9115 10.1522 31.6683 10.3999C31.5492 10.5134 31.3992 10.5908 31.2388 10.6372C31.4147 11.0501 31.5544 11.4577 31.6527 11.8396C31.8442 12.5878 31.8908 13.2637 31.808 13.8159C31.72 14.3732 31.5182 14.7963 31.1974 15.1162C30.949 15.3691 30.6333 15.5394 30.2401 15.6477C29.3655 15.8954 28.0667 15.7354 26.6489 15.1214C25.2258 14.5125 23.689 13.4701 22.2918 12.0666C20.4651 10.2348 19.2543 8.17071 18.8144 6.44723C18.623 5.69902 18.5712 5.01788 18.6592 4.46575C18.7472 3.90846 18.949 3.48533 19.275 3.1654C19.5285 2.91256 19.8338 2.73711 20.2271 2.62875C21.0809 2.38623 22.3384 2.53587 23.7148 3.1138C23.7614 2.95384 23.8442 2.8042 23.958 2.69067C24.1443 2.50491 24.4134 2.41203 24.7032 2.39655C25.1016 2.38107 25.5311 2.49459 25.9813 2.67519C25.2776 2.20046 24.579 1.79797 23.8908 1.47289C22.1521 0.657589 20.5066 0.291221 19.1197 0.590507C18.9283 0.631788 18.7472 0.693709 18.5712 0.765951C18.1831 0.920754 17.8261 1.13748 17.5311 1.43161C17.2983 1.66381 17.1172 1.93214 16.9723 2.22626C16.7705 2.62875 16.6411 3.07252 16.5945 3.54725C16.5169 4.36771 16.6411 5.26557 16.936 6.20987C17.5984 8.34616 19.1042 10.7353 21.2569 12.9129C21.2879 12.9438 21.3138 12.9748 21.3448 13.0057C21.4173 13.0831 21.5001 13.1502 21.5725 13.2225C23.1922 14.7963 24.9257 16.0192 26.5764 16.8036C28.3099 17.6189 29.9658 17.9852 31.3474 17.686H31.3578C31.632 17.624 31.8908 17.5312 32.134 17.4125C32.4341 17.268 32.7084 17.0822 32.9464 16.8449C33.2414 16.5507 33.4639 16.1998 33.6191 15.8128C33.7536 15.4723 33.8468 15.1111 33.883 14.7292C33.9451 13.9191 33.8209 13.0161 33.5311 12.0718Z" fill="#B6D4E3"/>
<path d="M31.9631 9.40416C31.9372 9.09455 31.8493 8.76946 31.7199 8.43405C31.6837 8.34633 31.6474 8.25861 31.6112 8.17089C31.161 7.19047 30.359 6.10168 29.3189 5.05934C28.5168 4.25952 27.6888 3.60419 26.9023 3.13978C26.5866 2.95402 26.2813 2.80437 25.9812 2.68053C25.531 2.49477 25.1015 2.3864 24.7031 2.40188C24.4133 2.41736 24.1442 2.51025 23.9579 2.69601C23.8389 2.81469 23.7613 2.95918 23.7147 3.11914C23.663 3.29458 23.6474 3.48551 23.663 3.68675C23.6888 4.07376 23.8234 4.48657 24.02 4.91486C24.4754 5.90044 25.2723 6.98406 26.3124 8.03157C26.3176 8.03673 26.3227 8.04189 26.3279 8.04705C26.3797 8.09865 26.4366 8.14509 26.4883 8.19669C27.2335 8.91395 27.9941 9.51252 28.7289 9.94597C29.5103 10.4104 30.2658 10.7148 30.9282 10.6839H30.9333C31.042 10.6787 31.1455 10.6581 31.2438 10.6323C31.4094 10.5858 31.5595 10.5084 31.6733 10.3949C31.9062 10.1524 31.9941 9.786 31.9631 9.40416ZM30.3538 8.70754C30.3227 8.7385 30.2813 8.75914 30.2037 8.77462C30.0226 8.81074 29.5828 8.72818 29.0394 8.44437C28.5013 8.16573 27.8751 7.70132 27.2749 7.10275C26.4987 6.32873 25.9502 5.48763 25.7328 4.87874C25.6345 4.61557 25.5983 4.40401 25.6035 4.26468C25.6086 4.12536 25.6397 4.0686 25.6759 4.03248C25.707 4.00152 25.7484 3.98088 25.8311 3.9654C26.0123 3.92928 26.4573 4.01184 26.9903 4.3008C27.5336 4.58461 28.1494 5.0387 28.7496 5.63211L28.7548 5.63727C29.531 6.41129 30.0795 7.25239 30.2969 7.86128C30.3952 8.12445 30.4314 8.33601 30.4262 8.47534C30.4262 8.61466 30.3952 8.66626 30.3538 8.70754Z" fill="#D0E3F3"/>
<g filter="url(#filter0_d_123_25)">
<mask id="path-8-inside-1_123_25" fill="white">
<path d="M45.176 6.16H53.984V8.812H48.176V12.736H53.564V15.376H48.176V22H45.176V6.16ZM59.0049 22H55.9449V5.488H59.0049V22ZM63.3808 17.752C63.4048 18.2 63.5248 18.6 63.7408 18.952C63.9568 19.304 64.2688 19.58 64.6768 19.78C65.0928 19.98 65.5888 20.08 66.1648 20.08C66.6848 20.08 67.1408 20.016 67.5328 19.888C67.9328 19.76 68.2688 19.604 68.5408 19.42C68.8208 19.228 69.0288 19.044 69.1648 18.868L70.4248 20.74C70.2008 21.02 69.9008 21.28 69.5248 21.52C69.1568 21.752 68.6848 21.936 68.1088 22.072C67.5408 22.216 66.8288 22.288 65.9728 22.288C64.8928 22.288 63.9448 22.076 63.1288 21.652C62.3128 21.228 61.6768 20.616 61.2208 19.816C60.7648 19.016 60.5368 18.064 60.5368 16.96C60.5368 16 60.7408 15.136 61.1488 14.368C61.5568 13.592 62.1488 12.98 62.9248 12.532C63.7088 12.084 64.6488 11.86 65.7448 11.86C66.7768 11.86 67.6688 12.06 68.4208 12.46C69.1808 12.852 69.7688 13.428 70.1848 14.188C70.6008 14.948 70.8088 15.876 70.8088 16.972C70.8088 17.036 70.8048 17.168 70.7968 17.368C70.7968 17.56 70.7888 17.688 70.7728 17.752H63.3808ZM67.9528 15.868C67.9448 15.612 67.8648 15.336 67.7128 15.04C67.5688 14.744 67.3408 14.492 67.0288 14.284C66.7168 14.076 66.3008 13.972 65.7808 13.972C65.2608 13.972 64.8328 14.072 64.4968 14.272C64.1688 14.472 63.9208 14.72 63.7528 15.016C63.5848 15.304 63.4888 15.588 63.4648 15.868H67.9528ZM74.6429 17.752C74.6669 18.2 74.7869 18.6 75.0029 18.952C75.2189 19.304 75.5309 19.58 75.9389 19.78C76.3549 19.98 76.8509 20.08 77.4269 20.08C77.9469 20.08 78.4029 20.016 78.7949 19.888C79.1949 19.76 79.5309 19.604 79.8029 19.42C80.0829 19.228 80.2909 19.044 80.4269 18.868L81.6869 20.74C81.4629 21.02 81.1629 21.28 80.7869 21.52C80.4189 21.752 79.9469 21.936 79.3709 22.072C78.8029 22.216 78.0909 22.288 77.2349 22.288C76.1549 22.288 75.2069 22.076 74.3909 21.652C73.5749 21.228 72.9389 20.616 72.4829 19.816C72.0269 19.016 71.7989 18.064 71.7989 16.96C71.7989 16 72.0029 15.136 72.4109 14.368C72.8189 13.592 73.4109 12.98 74.1869 12.532C74.9709 12.084 75.9109 11.86 77.0069 11.86C78.0389 11.86 78.9309 12.06 79.6829 12.46C80.4429 12.852 81.0309 13.428 81.4469 14.188C81.8629 14.948 82.0709 15.876 82.0709 16.972C82.0709 17.036 82.0669 17.168 82.0589 17.368C82.0589 17.56 82.0509 17.688 82.0349 17.752H74.6429ZM79.2149 15.868C79.2069 15.612 79.1269 15.336 78.9749 15.04C78.8309 14.744 78.6029 14.492 78.2909 14.284C77.9789 14.076 77.5629 13.972 77.0429 13.972C76.5229 13.972 76.0949 14.072 75.7589 14.272C75.4309 14.472 75.1829 14.72 75.0149 15.016C74.8469 15.304 74.7509 15.588 74.7269 15.868H79.2149ZM82.7971 12.148H84.5731V8.104H87.5971V12.148H89.9251V14.68H87.5971V18.244C87.5971 18.716 87.6731 19.084 87.8251 19.348C87.9771 19.604 88.2171 19.732 88.5451 19.732C88.7931 19.732 88.9971 19.684 89.1571 19.588C89.3171 19.484 89.4131 19.412 89.4451 19.372L90.5251 21.556C90.4771 21.604 90.3211 21.688 90.0571 21.808C89.8011 21.928 89.4691 22.036 89.0611 22.132C88.6611 22.236 88.2091 22.288 87.7051 22.288C86.8011 22.288 86.0531 22.028 85.4611 21.508C84.8691 20.98 84.5731 20.164 84.5731 19.06V14.68H82.7971V12.148ZM113.214 6.16V22H110.226V11.86L110.37 9.556L109.83 12.172L106.722 20.872H103.77L100.674 12.172L100.146 9.556L100.278 11.86V22H97.2781V6.16H101.43L105.054 17.452L105.246 18.532L105.438 17.452L109.074 6.16H113.214ZM123.512 22V20.284C123.44 20.46 123.256 20.708 122.96 21.028C122.664 21.348 122.264 21.64 121.76 21.904C121.264 22.16 120.68 22.288 120.008 22.288C119.064 22.288 118.228 22.064 117.5 21.616C116.772 21.16 116.2 20.54 115.784 19.756C115.376 18.964 115.172 18.072 115.172 17.08C115.172 16.088 115.376 15.2 115.784 14.416C116.2 13.624 116.772 13 117.5 12.544C118.228 12.088 119.064 11.86 120.008 11.86C120.664 11.86 121.232 11.972 121.712 12.196C122.2 12.412 122.592 12.668 122.888 12.964C123.192 13.252 123.388 13.512 123.476 13.744V12.148H126.5V22H123.512ZM118.16 17.08C118.16 17.632 118.284 18.12 118.532 18.544C118.78 18.96 119.108 19.284 119.516 19.516C119.924 19.748 120.368 19.864 120.848 19.864C121.352 19.864 121.8 19.748 122.192 19.516C122.584 19.276 122.892 18.948 123.116 18.532C123.348 18.108 123.464 17.624 123.464 17.08C123.464 16.536 123.348 16.056 123.116 15.64C122.892 15.216 122.584 14.884 122.192 14.644C121.8 14.404 121.352 14.284 120.848 14.284C120.368 14.284 119.924 14.404 119.516 14.644C119.108 14.876 118.78 15.204 118.532 15.628C118.284 16.044 118.16 16.528 118.16 17.08ZM134.81 11.86C135.482 11.86 136.138 12 136.778 12.28C137.418 12.552 137.942 12.988 138.35 13.588C138.766 14.188 138.974 14.972 138.974 15.94V22H135.914V16.468C135.914 15.66 135.722 15.06 135.338 14.668C134.962 14.276 134.466 14.08 133.85 14.08C133.45 14.08 133.066 14.192 132.698 14.416C132.338 14.632 132.042 14.936 131.81 15.328C131.586 15.712 131.474 16.152 131.474 16.648V22H128.426V12.148H131.474V13.72C131.562 13.448 131.762 13.168 132.074 12.88C132.386 12.592 132.782 12.352 133.262 12.16C133.742 11.96 134.258 11.86 134.81 11.86ZM148.614 22V20.284C148.542 20.46 148.358 20.708 148.062 21.028C147.766 21.348 147.366 21.64 146.862 21.904C146.366 22.16 145.782 22.288 145.11 22.288C144.166 22.288 143.33 22.064 142.602 21.616C141.874 21.16 141.302 20.54 140.886 19.756C140.478 18.964 140.274 18.072 140.274 17.08C140.274 16.088 140.478 15.2 140.886 14.416C141.302 13.624 141.874 13 142.602 12.544C143.33 12.088 144.166 11.86 145.11 11.86C145.766 11.86 146.334 11.972 146.814 12.196C147.302 12.412 147.694 12.668 147.99 12.964C148.294 13.252 148.49 13.512 148.578 13.744V12.148H151.602V22H148.614ZM143.262 17.08C143.262 17.632 143.386 18.12 143.634 18.544C143.882 18.96 144.21 19.284 144.618 19.516C145.026 19.748 145.47 19.864 145.95 19.864C146.454 19.864 146.902 19.748 147.294 19.516C147.686 19.276 147.994 18.948 148.218 18.532C148.45 18.108 148.566 17.624 148.566 17.08C148.566 16.536 148.45 16.056 148.218 15.64C147.994 15.216 147.686 14.884 147.294 14.644C146.902 14.404 146.454 14.284 145.95 14.284C145.47 14.284 145.026 14.404 144.618 14.644C144.21 14.876 143.882 15.204 143.634 15.628C143.386 16.044 143.262 16.528 143.262 17.08ZM158.616 27.268C157.896 27.268 157.204 27.2 156.54 27.064C155.884 26.928 155.288 26.716 154.752 26.428C154.216 26.14 153.768 25.764 153.408 25.3L155.256 23.428C155.424 23.644 155.64 23.86 155.904 24.076C156.176 24.3 156.52 24.484 156.936 24.628C157.352 24.78 157.872 24.856 158.496 24.856C159.088 24.856 159.596 24.74 160.02 24.508C160.452 24.284 160.784 23.964 161.016 23.548C161.256 23.132 161.376 22.648 161.376 22.096V21.82H164.364V22.276C164.364 23.364 164.108 24.28 163.596 25.024C163.084 25.768 162.396 26.328 161.532 26.704C160.668 27.08 159.696 27.268 158.616 27.268ZM161.376 22V20.284C161.304 20.46 161.12 20.708 160.824 21.028C160.528 21.348 160.128 21.64 159.624 21.904C159.128 22.16 158.544 22.288 157.872 22.288C156.928 22.288 156.092 22.064 155.364 21.616C154.636 21.16 154.064 20.54 153.648 19.756C153.24 18.964 153.036 18.072 153.036 17.08C153.036 16.088 153.24 15.2 153.648 14.416C154.064 13.624 154.636 13 155.364 12.544C156.092 12.088 156.928 11.86 157.872 11.86C158.528 11.86 159.096 11.972 159.576 12.196C160.064 12.412 160.456 12.668 160.752 12.964C161.056 13.252 161.252 13.512 161.34 13.744V12.148H164.364V22H161.376ZM156.024 17.08C156.024 17.632 156.148 18.12 156.396 18.544C156.644 18.96 156.972 19.284 157.38 19.516C157.788 19.748 158.232 19.864 158.712 19.864C159.216 19.864 159.664 19.748 160.056 19.516C160.448 19.276 160.756 18.948 160.98 18.532C161.212 18.108 161.328 17.624 161.328 17.08C161.328 16.536 161.212 16.056 160.98 15.64C160.756 15.216 160.448 14.884 160.056 14.644C159.664 14.404 159.216 14.284 158.712 14.284C158.232 14.284 157.788 14.404 157.38 14.644C156.972 14.876 156.644 15.204 156.396 15.628C156.148 16.044 156.024 16.528 156.024 17.08ZM168.701 17.752C168.725 18.2 168.845 18.6 169.061 18.952C169.277 19.304 169.589 19.58 169.997 19.78C170.413 19.98 170.909 20.08 171.485 20.08C172.005 20.08 172.461 20.016 172.853 19.888C173.253 19.76 173.589 19.604 173.861 19.42C174.141 19.228 174.349 19.044 174.485 18.868L175.745 20.74C175.521 21.02 175.221 21.28 174.845 21.52C174.477 21.752 174.005 21.936 173.429 22.072C172.861 22.216 172.149 22.288 171.293 22.288C170.213 22.288 169.265 22.076 168.449 21.652C167.633 21.228 166.997 20.616 166.541 19.816C166.085 19.016 165.857 18.064 165.857 16.96C165.857 16 166.061 15.136 166.469 14.368C166.877 13.592 167.469 12.98 168.245 12.532C169.029 12.084 169.969 11.86 171.065 11.86C172.097 11.86 172.989 12.06 173.741 12.46C174.501 12.852 175.089 13.428 175.505 14.188C175.921 14.948 176.129 15.876 176.129 16.972C176.129 17.036 176.125 17.168 176.117 17.368C176.117 17.56 176.109 17.688 176.093 17.752H168.701ZM173.273 15.868C173.265 15.612 173.185 15.336 173.033 15.04C172.889 14.744 172.661 14.492 172.349 14.284C172.037 14.076 171.621 13.972 171.101 13.972C170.581 13.972 170.153 14.072 169.817 14.272C169.489 14.472 169.241 14.72 169.073 15.016C168.905 15.304 168.809 15.588 168.785 15.868H173.273ZM180.54 22H177.492V12.148H180.54V13.744H180.48C180.536 13.552 180.688 13.308 180.936 13.012C181.192 12.716 181.544 12.452 181.992 12.22C182.44 11.98 182.98 11.86 183.612 11.86C184.068 11.86 184.48 11.928 184.848 12.064C185.224 12.192 185.492 12.32 185.652 12.448L184.452 14.944C184.348 14.816 184.152 14.684 183.864 14.548C183.584 14.412 183.232 14.344 182.808 14.344C182.304 14.344 181.884 14.484 181.548 14.764C181.212 15.036 180.96 15.372 180.792 15.772C180.624 16.164 180.54 16.532 180.54 16.876V22Z"/>
</mask>
<path d="M45.176 6.16H53.984V8.812H48.176V12.736H53.564V15.376H48.176V22H45.176V6.16ZM59.0049 22H55.9449V5.488H59.0049V22ZM63.3808 17.752C63.4048 18.2 63.5248 18.6 63.7408 18.952C63.9568 19.304 64.2688 19.58 64.6768 19.78C65.0928 19.98 65.5888 20.08 66.1648 20.08C66.6848 20.08 67.1408 20.016 67.5328 19.888C67.9328 19.76 68.2688 19.604 68.5408 19.42C68.8208 19.228 69.0288 19.044 69.1648 18.868L70.4248 20.74C70.2008 21.02 69.9008 21.28 69.5248 21.52C69.1568 21.752 68.6848 21.936 68.1088 22.072C67.5408 22.216 66.8288 22.288 65.9728 22.288C64.8928 22.288 63.9448 22.076 63.1288 21.652C62.3128 21.228 61.6768 20.616 61.2208 19.816C60.7648 19.016 60.5368 18.064 60.5368 16.96C60.5368 16 60.7408 15.136 61.1488 14.368C61.5568 13.592 62.1488 12.98 62.9248 12.532C63.7088 12.084 64.6488 11.86 65.7448 11.86C66.7768 11.86 67.6688 12.06 68.4208 12.46C69.1808 12.852 69.7688 13.428 70.1848 14.188C70.6008 14.948 70.8088 15.876 70.8088 16.972C70.8088 17.036 70.8048 17.168 70.7968 17.368C70.7968 17.56 70.7888 17.688 70.7728 17.752H63.3808ZM67.9528 15.868C67.9448 15.612 67.8648 15.336 67.7128 15.04C67.5688 14.744 67.3408 14.492 67.0288 14.284C66.7168 14.076 66.3008 13.972 65.7808 13.972C65.2608 13.972 64.8328 14.072 64.4968 14.272C64.1688 14.472 63.9208 14.72 63.7528 15.016C63.5848 15.304 63.4888 15.588 63.4648 15.868H67.9528ZM74.6429 17.752C74.6669 18.2 74.7869 18.6 75.0029 18.952C75.2189 19.304 75.5309 19.58 75.9389 19.78C76.3549 19.98 76.8509 20.08 77.4269 20.08C77.9469 20.08 78.4029 20.016 78.7949 19.888C79.1949 19.76 79.5309 19.604 79.8029 19.42C80.0829 19.228 80.2909 19.044 80.4269 18.868L81.6869 20.74C81.4629 21.02 81.1629 21.28 80.7869 21.52C80.4189 21.752 79.9469 21.936 79.3709 22.072C78.8029 22.216 78.0909 22.288 77.2349 22.288C76.1549 22.288 75.2069 22.076 74.3909 21.652C73.5749 21.228 72.9389 20.616 72.4829 19.816C72.0269 19.016 71.7989 18.064 71.7989 16.96C71.7989 16 72.0029 15.136 72.4109 14.368C72.8189 13.592 73.4109 12.98 74.1869 12.532C74.9709 12.084 75.9109 11.86 77.0069 11.86C78.0389 11.86 78.9309 12.06 79.6829 12.46C80.4429 12.852 81.0309 13.428 81.4469 14.188C81.8629 14.948 82.0709 15.876 82.0709 16.972C82.0709 17.036 82.0669 17.168 82.0589 17.368C82.0589 17.56 82.0509 17.688 82.0349 17.752H74.6429ZM79.2149 15.868C79.2069 15.612 79.1269 15.336 78.9749 15.04C78.8309 14.744 78.6029 14.492 78.2909 14.284C77.9789 14.076 77.5629 13.972 77.0429 13.972C76.5229 13.972 76.0949 14.072 75.7589 14.272C75.4309 14.472 75.1829 14.72 75.0149 15.016C74.8469 15.304 74.7509 15.588 74.7269 15.868H79.2149ZM82.7971 12.148H84.5731V8.104H87.5971V12.148H89.9251V14.68H87.5971V18.244C87.5971 18.716 87.6731 19.084 87.8251 19.348C87.9771 19.604 88.2171 19.732 88.5451 19.732C88.7931 19.732 88.9971 19.684 89.1571 19.588C89.3171 19.484 89.4131 19.412 89.4451 19.372L90.5251 21.556C90.4771 21.604 90.3211 21.688 90.0571 21.808C89.8011 21.928 89.4691 22.036 89.0611 22.132C88.6611 22.236 88.2091 22.288 87.7051 22.288C86.8011 22.288 86.0531 22.028 85.4611 21.508C84.8691 20.98 84.5731 20.164 84.5731 19.06V14.68H82.7971V12.148ZM113.214 6.16V22H110.226V11.86L110.37 9.556L109.83 12.172L106.722 20.872H103.77L100.674 12.172L100.146 9.556L100.278 11.86V22H97.2781V6.16H101.43L105.054 17.452L105.246 18.532L105.438 17.452L109.074 6.16H113.214ZM123.512 22V20.284C123.44 20.46 123.256 20.708 122.96 21.028C122.664 21.348 122.264 21.64 121.76 21.904C121.264 22.16 120.68 22.288 120.008 22.288C119.064 22.288 118.228 22.064 117.5 21.616C116.772 21.16 116.2 20.54 115.784 19.756C115.376 18.964 115.172 18.072 115.172 17.08C115.172 16.088 115.376 15.2 115.784 14.416C116.2 13.624 116.772 13 117.5 12.544C118.228 12.088 119.064 11.86 120.008 11.86C120.664 11.86 121.232 11.972 121.712 12.196C122.2 12.412 122.592 12.668 122.888 12.964C123.192 13.252 123.388 13.512 123.476 13.744V12.148H126.5V22H123.512ZM118.16 17.08C118.16 17.632 118.284 18.12 118.532 18.544C118.78 18.96 119.108 19.284 119.516 19.516C119.924 19.748 120.368 19.864 120.848 19.864C121.352 19.864 121.8 19.748 122.192 19.516C122.584 19.276 122.892 18.948 123.116 18.532C123.348 18.108 123.464 17.624 123.464 17.08C123.464 16.536 123.348 16.056 123.116 15.64C122.892 15.216 122.584 14.884 122.192 14.644C121.8 14.404 121.352 14.284 120.848 14.284C120.368 14.284 119.924 14.404 119.516 14.644C119.108 14.876 118.78 15.204 118.532 15.628C118.284 16.044 118.16 16.528 118.16 17.08ZM134.81 11.86C135.482 11.86 136.138 12 136.778 12.28C137.418 12.552 137.942 12.988 138.35 13.588C138.766 14.188 138.974 14.972 138.974 15.94V22H135.914V16.468C135.914 15.66 135.722 15.06 135.338 14.668C134.962 14.276 134.466 14.08 133.85 14.08C133.45 14.08 133.066 14.192 132.698 14.416C132.338 14.632 132.042 14.936 131.81 15.328C131.586 15.712 131.474 16.152 131.474 16.648V22H128.426V12.148H131.474V13.72C131.562 13.448 131.762 13.168 132.074 12.88C132.386 12.592 132.782 12.352 133.262 12.16C133.742 11.96 134.258 11.86 134.81 11.86ZM148.614 22V20.284C148.542 20.46 148.358 20.708 148.062 21.028C147.766 21.348 147.366 21.64 146.862 21.904C146.366 22.16 145.782 22.288 145.11 22.288C144.166 22.288 143.33 22.064 142.602 21.616C141.874 21.16 141.302 20.54 140.886 19.756C140.478 18.964 140.274 18.072 140.274 17.08C140.274 16.088 140.478 15.2 140.886 14.416C141.302 13.624 141.874 13 142.602 12.544C143.33 12.088 144.166 11.86 145.11 11.86C145.766 11.86 146.334 11.972 146.814 12.196C147.302 12.412 147.694 12.668 147.99 12.964C148.294 13.252 148.49 13.512 148.578 13.744V12.148H151.602V22H148.614ZM143.262 17.08C143.262 17.632 143.386 18.12 143.634 18.544C143.882 18.96 144.21 19.284 144.618 19.516C145.026 19.748 145.47 19.864 145.95 19.864C146.454 19.864 146.902 19.748 147.294 19.516C147.686 19.276 147.994 18.948 148.218 18.532C148.45 18.108 148.566 17.624 148.566 17.08C148.566 16.536 148.45 16.056 148.218 15.64C147.994 15.216 147.686 14.884 147.294 14.644C146.902 14.404 146.454 14.284 145.95 14.284C145.47 14.284 145.026 14.404 144.618 14.644C144.21 14.876 143.882 15.204 143.634 15.628C143.386 16.044 143.262 16.528 143.262 17.08ZM158.616 27.268C157.896 27.268 157.204 27.2 156.54 27.064C155.884 26.928 155.288 26.716 154.752 26.428C154.216 26.14 153.768 25.764 153.408 25.3L155.256 23.428C155.424 23.644 155.64 23.86 155.904 24.076C156.176 24.3 156.52 24.484 156.936 24.628C157.352 24.78 157.872 24.856 158.496 24.856C159.088 24.856 159.596 24.74 160.02 24.508C160.452 24.284 160.784 23.964 161.016 23.548C161.256 23.132 161.376 22.648 161.376 22.096V21.82H164.364V22.276C164.364 23.364 164.108 24.28 163.596 25.024C163.084 25.768 162.396 26.328 161.532 26.704C160.668 27.08 159.696 27.268 158.616 27.268ZM161.376 22V20.284C161.304 20.46 161.12 20.708 160.824 21.028C160.528 21.348 160.128 21.64 159.624 21.904C159.128 22.16 158.544 22.288 157.872 22.288C156.928 22.288 156.092 22.064 155.364 21.616C154.636 21.16 154.064 20.54 153.648 19.756C153.24 18.964 153.036 18.072 153.036 17.08C153.036 16.088 153.24 15.2 153.648 14.416C154.064 13.624 154.636 13 155.364 12.544C156.092 12.088 156.928 11.86 157.872 11.86C158.528 11.86 159.096 11.972 159.576 12.196C160.064 12.412 160.456 12.668 160.752 12.964C161.056 13.252 161.252 13.512 161.34 13.744V12.148H164.364V22H161.376ZM156.024 17.08C156.024 17.632 156.148 18.12 156.396 18.544C156.644 18.96 156.972 19.284 157.38 19.516C157.788 19.748 158.232 19.864 158.712 19.864C159.216 19.864 159.664 19.748 160.056 19.516C160.448 19.276 160.756 18.948 160.98 18.532C161.212 18.108 161.328 17.624 161.328 17.08C161.328 16.536 161.212 16.056 160.98 15.64C160.756 15.216 160.448 14.884 160.056 14.644C159.664 14.404 159.216 14.284 158.712 14.284C158.232 14.284 157.788 14.404 157.38 14.644C156.972 14.876 156.644 15.204 156.396 15.628C156.148 16.044 156.024 16.528 156.024 17.08ZM168.701 17.752C168.725 18.2 168.845 18.6 169.061 18.952C169.277 19.304 169.589 19.58 169.997 19.78C170.413 19.98 170.909 20.08 171.485 20.08C172.005 20.08 172.461 20.016 172.853 19.888C173.253 19.76 173.589 19.604 173.861 19.42C174.141 19.228 174.349 19.044 174.485 18.868L175.745 20.74C175.521 21.02 175.221 21.28 174.845 21.52C174.477 21.752 174.005 21.936 173.429 22.072C172.861 22.216 172.149 22.288 171.293 22.288C170.213 22.288 169.265 22.076 168.449 21.652C167.633 21.228 166.997 20.616 166.541 19.816C166.085 19.016 165.857 18.064 165.857 16.96C165.857 16 166.061 15.136 166.469 14.368C166.877 13.592 167.469 12.98 168.245 12.532C169.029 12.084 169.969 11.86 171.065 11.86C172.097 11.86 172.989 12.06 173.741 12.46C174.501 12.852 175.089 13.428 175.505 14.188C175.921 14.948 176.129 15.876 176.129 16.972C176.129 17.036 176.125 17.168 176.117 17.368C176.117 17.56 176.109 17.688 176.093 17.752H168.701ZM173.273 15.868C173.265 15.612 173.185 15.336 173.033 15.04C172.889 14.744 172.661 14.492 172.349 14.284C172.037 14.076 171.621 13.972 171.101 13.972C170.581 13.972 170.153 14.072 169.817 14.272C169.489 14.472 169.241 14.72 169.073 15.016C168.905 15.304 168.809 15.588 168.785 15.868H173.273ZM180.54 22H177.492V12.148H180.54V13.744H180.48C180.536 13.552 180.688 13.308 180.936 13.012C181.192 12.716 181.544 12.452 181.992 12.22C182.44 11.98 182.98 11.86 183.612 11.86C184.068 11.86 184.48 11.928 184.848 12.064C185.224 12.192 185.492 12.32 185.652 12.448L184.452 14.944C184.348 14.816 184.152 14.684 183.864 14.548C183.584 14.412 183.232 14.344 182.808 14.344C182.304 14.344 181.884 14.484 181.548 14.764C181.212 15.036 180.96 15.372 180.792 15.772C180.624 16.164 180.54 16.532 180.54 16.876V22Z" fill="#2B2B2B"/>
<path d="M45.176 6.16V5.16H44.176V6.16H45.176ZM53.984 6.16H54.984V5.16H53.984V6.16ZM53.984 8.812V9.812H54.984V8.812H53.984ZM48.176 8.812V7.812H47.176V8.812H48.176ZM48.176 12.736H47.176V13.736H48.176V12.736ZM53.564 12.736H54.564V11.736H53.564V12.736ZM53.564 15.376V16.376H54.564V15.376H53.564ZM48.176 15.376V14.376H47.176V15.376H48.176ZM48.176 22V23H49.176V22H48.176ZM45.176 22H44.176V23H45.176V22ZM45.176 7.16H53.984V5.16H45.176V7.16ZM52.984 6.16V8.812H54.984V6.16H52.984ZM53.984 7.812H48.176V9.812H53.984V7.812ZM47.176 8.812V12.736H49.176V8.812H47.176ZM48.176 13.736H53.564V11.736H48.176V13.736ZM52.564 12.736V15.376H54.564V12.736H52.564ZM53.564 14.376H48.176V16.376H53.564V14.376ZM47.176 15.376V22H49.176V15.376H47.176ZM48.176 21H45.176V23H48.176V21ZM46.176 22V6.16H44.176V22H46.176ZM59.0049 22V23H60.0049V22H59.0049ZM55.9449 22H54.9449V23H55.9449V22ZM55.9449 5.488V4.488H54.9449V5.488H55.9449ZM59.0049 5.488H60.0049V4.488H59.0049V5.488ZM59.0049 21H55.9449V23H59.0049V21ZM56.9449 22V5.488H54.9449V22H56.9449ZM55.9449 6.488H59.0049V4.488H55.9449V6.488ZM58.0049 5.488V22H60.0049V5.488H58.0049ZM63.3808 17.752V16.752H62.3257L62.3822 17.8055L63.3808 17.752ZM64.6768 19.78L64.2366 20.6779L64.2435 20.6813L64.6768 19.78ZM67.5328 19.888L67.228 18.9356L67.2223 18.9374L67.5328 19.888ZM68.5408 19.42L69.1011 20.2483L69.1063 20.2447L68.5408 19.42ZM69.1648 18.868L69.9943 18.3096L69.2207 17.1602L68.3735 18.2566L69.1648 18.868ZM70.4248 20.74L71.2056 21.3647L71.6645 20.7911L71.2543 20.1816L70.4248 20.74ZM69.5248 21.52L70.0581 22.3659L70.0628 22.3629L69.5248 21.52ZM68.1088 22.072L67.879 21.0988L67.871 21.1006L67.863 21.1027L68.1088 22.072ZM63.1288 21.652L63.5898 20.7646L63.1288 21.652ZM61.2208 19.816L62.0895 19.3208L61.2208 19.816ZM61.1488 14.368L62.0319 14.8372L62.0339 14.8334L61.1488 14.368ZM62.9248 12.532L62.4286 11.6637L62.4248 11.666L62.9248 12.532ZM68.4208 12.46L67.9511 13.3429L67.9623 13.3487L68.4208 12.46ZM70.1848 14.188L69.3076 14.6681L70.1848 14.188ZM70.7968 17.368L69.7976 17.328L69.7968 17.348V17.368H70.7968ZM70.7728 17.752V18.752H71.5535L71.7429 17.9945L70.7728 17.752ZM67.9528 15.868V16.868H68.9845L68.9523 15.8368L67.9528 15.868ZM67.7128 15.04L66.8135 15.4775L66.8182 15.4872L66.8232 15.4968L67.7128 15.04ZM67.0288 14.284L66.4741 15.116V15.1161L67.0288 14.284ZM64.4968 14.272L63.9852 13.4127L63.9761 13.4182L64.4968 14.272ZM63.7528 15.016L64.6166 15.5199L64.6224 15.5096L63.7528 15.016ZM63.4648 15.868L62.4684 15.7826L62.3754 16.868H63.4648V15.868ZM62.3822 17.8055C62.4143 18.405 62.578 18.9691 62.8884 19.475L64.5931 18.429C64.4715 18.2309 64.3952 17.995 64.3793 17.6985L62.3822 17.8055ZM62.8884 19.475C63.2133 20.0045 63.6761 20.4032 64.2366 20.6779L65.1169 18.8821C64.8614 18.7568 64.7002 18.6035 64.5931 18.429L62.8884 19.475ZM64.2435 20.6813C64.8239 20.9603 65.475 21.08 66.1648 21.08V19.08C65.7025 19.08 65.3616 18.9997 65.11 18.8787L64.2435 20.6813ZM66.1648 21.08C66.7639 21.08 67.3287 21.0066 67.8432 20.8386L67.2223 18.9374C66.9528 19.0254 66.6056 19.08 66.1648 19.08V21.08ZM67.8375 20.8404C68.3043 20.6911 68.7318 20.4981 69.1011 20.2483L67.9804 18.5917C67.8057 18.7099 67.5612 18.8289 67.228 18.9356L67.8375 20.8404ZM69.1063 20.2447C69.4319 20.0214 69.7321 19.7692 69.956 19.4794L68.3735 18.2566C68.3254 18.3188 68.2096 18.4346 67.9752 18.5953L69.1063 20.2447ZM68.3352 19.4264L69.5952 21.2984L71.2543 20.1816L69.9943 18.3096L68.3352 19.4264ZM69.6439 20.1153C69.5027 20.2918 69.292 20.4822 68.9867 20.6771L70.0628 22.3629C70.5095 22.0778 70.8988 21.7482 71.2056 21.3647L69.6439 20.1153ZM68.9915 20.6741C68.7438 20.8302 68.3835 20.9796 67.879 21.0988L68.3385 23.0452C68.986 22.8924 69.5697 22.6738 70.0581 22.3659L68.9915 20.6741ZM67.863 21.1027C67.4029 21.2193 66.7802 21.288 65.9728 21.288V23.288C66.8773 23.288 67.6786 23.2127 68.3545 23.0413L67.863 21.1027ZM65.9728 21.288C65.0253 21.288 64.2405 21.1027 63.5898 20.7646L62.6677 22.5394C63.649 23.0493 64.7602 23.288 65.9728 23.288V21.288ZM63.5898 20.7646C62.9449 20.4295 62.4503 19.9538 62.0895 19.3208L60.352 20.3112C60.9032 21.2782 61.6806 22.0265 62.6677 22.5394L63.5898 20.7646ZM62.0895 19.3208C61.7352 18.6991 61.5368 17.9249 61.5368 16.96H59.5368C59.5368 18.2031 59.7943 19.3329 60.352 20.3112L62.0895 19.3208ZM61.5368 16.96C61.5368 16.1463 61.7084 15.4461 62.0319 14.8372L60.2656 13.8988C59.7732 14.8259 59.5368 15.8537 59.5368 16.96H61.5368ZM62.0339 14.8334C62.3519 14.2285 62.8086 13.7538 63.4247 13.398L62.4248 11.666C61.4889 12.2062 60.7616 12.9555 60.2636 13.9026L62.0339 14.8334ZM63.4209 13.4002C64.0246 13.0553 64.7857 12.86 65.7448 12.86V10.86C64.5118 10.86 63.3929 11.1127 62.4286 11.6638L63.4209 13.4002ZM65.7448 12.86C66.6473 12.86 67.3713 13.0344 67.9511 13.3429L68.8904 11.5771C67.9662 11.0856 66.9062 10.86 65.7448 10.86V12.86ZM67.9623 13.3487C68.5427 13.6481 68.986 14.0806 69.3076 14.6681L71.0619 13.7079C70.5515 12.7754 69.8188 12.0559 68.8792 11.5713L67.9623 13.3487ZM69.3076 14.6681C69.6244 15.2469 69.8088 16.0002 69.8088 16.972H71.8088C71.8088 15.7518 71.5771 14.6491 71.0619 13.7079L69.3076 14.6681ZM69.8088 16.972C69.8088 17.0125 69.8057 17.1241 69.7976 17.328L71.796 17.408C71.8038 17.2119 71.8088 17.0595 71.8088 16.972H69.8088ZM69.7968 17.368C69.7968 17.4523 69.7949 17.5098 69.7927 17.5456C69.7916 17.5632 69.7907 17.5698 69.791 17.568C69.7911 17.5667 69.7918 17.5614 69.7933 17.5526C69.7948 17.5442 69.7977 17.5292 69.8026 17.5095L71.7429 17.9945C71.7935 17.7921 71.7968 17.5414 71.7968 17.368H69.7968ZM70.7728 16.752H63.3808V18.752H70.7728V16.752ZM68.9523 15.8368C68.9385 15.3951 68.8026 14.9732 68.6023 14.5832L66.8232 15.4968C66.9269 15.6988 66.951 15.8289 66.9532 15.8992L68.9523 15.8368ZM68.612 14.6025C68.3799 14.1255 68.0224 13.7446 67.5835 13.4519L66.4741 15.1161C66.6591 15.2394 66.7576 15.3625 66.8135 15.4775L68.612 14.6025ZM67.5835 13.452C67.055 13.0996 66.4244 12.972 65.7808 12.972V14.972C66.1771 14.972 66.3785 15.0524 66.4741 15.116L67.5835 13.452ZM65.7808 12.972C65.1383 12.972 64.519 13.095 63.9853 13.4127L65.0082 15.1313C65.1465 15.049 65.3832 14.972 65.7808 14.972V12.972ZM63.9761 13.4182C63.5221 13.6951 63.1453 14.0604 62.8831 14.5224L64.6224 15.5096C64.6962 15.3796 64.8155 15.2489 65.0174 15.1258L63.9761 13.4182ZM62.889 14.5121C62.6601 14.9045 62.5072 15.33 62.4684 15.7826L64.4611 15.9534C64.4703 15.846 64.5094 15.7035 64.6165 15.5199L62.889 14.5121ZM63.4648 16.868H67.9528V14.868H63.4648V16.868ZM74.6429 17.752V16.752H73.5879L73.6444 17.8055L74.6429 17.752ZM75.9389 19.78L75.4988 20.6779L75.5056 20.6813L75.9389 19.78ZM78.7949 19.888L78.4902 18.9356L78.4845 18.9374L78.7949 19.888ZM79.8029 19.42L80.3633 20.2483L80.3685 20.2447L79.8029 19.42ZM80.4269 18.868L81.2565 18.3096L80.4829 17.1602L79.6357 18.2566L80.4269 18.868ZM81.6869 20.74L82.4678 21.3647L82.9267 20.7911L82.5165 20.1816L81.6869 20.74ZM80.7869 21.52L81.3202 22.3659L81.325 22.3629L80.7869 21.52ZM79.3709 22.072L79.1411 21.0988L79.1332 21.1006L79.1252 21.1027L79.3709 22.072ZM74.3909 21.652L74.852 20.7646L74.3909 21.652ZM72.4829 19.816L73.3517 19.3208L72.4829 19.816ZM72.4109 14.368L73.2941 14.8372L73.2961 14.8334L72.4109 14.368ZM74.1869 12.532L73.6908 11.6637L73.687 11.666L74.1869 12.532ZM79.6829 12.46L79.2133 13.3429L79.2245 13.3487L79.6829 12.46ZM81.4469 14.188L80.5697 14.6681L81.4469 14.188ZM82.0589 17.368L81.0597 17.328L81.0589 17.348V17.368H82.0589ZM82.0349 17.752V18.752H82.8157L83.0051 17.9945L82.0349 17.752ZM79.2149 15.868V16.868H80.2467L80.2145 15.8368L79.2149 15.868ZM78.9749 15.04L78.0757 15.4775L78.0804 15.4872L78.0854 15.4968L78.9749 15.04ZM78.2909 14.284L77.7362 15.116V15.1161L78.2909 14.284ZM75.7589 14.272L75.2474 13.4127L75.2383 13.4182L75.7589 14.272ZM75.0149 15.016L75.8788 15.5199L75.8846 15.5096L75.0149 15.016ZM74.7269 15.868L73.7306 15.7826L73.6376 16.868H74.7269V15.868ZM73.6444 17.8055C73.6765 18.405 73.8401 18.9691 74.1506 19.475L75.8553 18.429C75.7337 18.2309 75.6574 17.995 75.6415 17.6985L73.6444 17.8055ZM74.1506 19.475C74.4755 20.0045 74.9383 20.4032 75.4988 20.6779L76.3791 18.8821C76.1236 18.7568 75.9624 18.6035 75.8553 18.429L74.1506 19.475ZM75.5056 20.6813C76.0861 20.9603 76.7372 21.08 77.4269 21.08V19.08C76.9647 19.08 76.6238 18.9997 76.3722 18.8787L75.5056 20.6813ZM77.4269 21.08C78.0261 21.08 78.5909 21.0066 79.1053 20.8386L78.4845 18.9374C78.215 19.0254 77.8677 19.08 77.4269 19.08V21.08ZM79.0997 20.8404C79.5665 20.6911 79.994 20.4981 80.3632 20.2483L79.2426 18.5917C79.0679 18.7099 78.8234 18.8289 78.4902 18.9356L79.0997 20.8404ZM80.3685 20.2447C80.6941 20.0214 80.9943 19.7692 81.2182 19.4794L79.6357 18.2566C79.5875 18.3188 79.4717 18.4346 79.2374 18.5953L80.3685 20.2447ZM79.5974 19.4264L80.8573 21.2984L82.5165 20.1816L81.2565 18.3096L79.5974 19.4264ZM80.9061 20.1153C80.7649 20.2918 80.5542 20.4822 80.2489 20.6771L81.325 22.3629C81.7717 22.0778 82.161 21.7482 82.4678 21.3647L80.9061 20.1153ZM80.2536 20.6741C80.006 20.8302 79.6457 20.9796 79.1411 21.0988L79.6007 23.0452C80.2482 22.8924 80.8319 22.6738 81.3202 22.3659L80.2536 20.6741ZM79.1252 21.1027C78.6651 21.2193 78.0424 21.288 77.2349 21.288V23.288C78.1395 23.288 78.9408 23.2127 79.6167 23.0413L79.1252 21.1027ZM77.2349 21.288C76.2875 21.288 75.5027 21.1027 74.852 20.7646L73.9299 22.5394C74.9112 23.0493 76.0224 23.288 77.2349 23.288V21.288ZM74.852 20.7646C74.2071 20.4295 73.7125 19.9538 73.3517 19.3208L71.6142 20.3112C72.1653 21.2782 72.9428 22.0265 73.9299 22.5394L74.852 20.7646ZM73.3517 19.3208C72.9973 18.6991 72.7989 17.9249 72.7989 16.96H70.7989C70.7989 18.2031 71.0565 19.3329 71.6142 20.3112L73.3517 19.3208ZM72.7989 16.96C72.7989 16.1463 72.9705 15.4461 73.2941 14.8372L71.5278 13.8988C71.0353 14.8259 70.7989 15.8537 70.7989 16.96H72.7989ZM73.2961 14.8334C73.6141 14.2285 74.0708 13.7538 74.6869 13.398L73.687 11.666C72.7511 12.2062 72.0238 12.9555 71.5258 13.9026L73.2961 14.8334ZM74.6831 13.4002C75.2868 13.0553 76.0479 12.86 77.0069 12.86V10.86C75.774 10.86 74.6551 11.1127 73.6908 11.6638L74.6831 13.4002ZM77.0069 12.86C77.9095 12.86 78.6335 13.0344 79.2133 13.3429L80.1525 11.5771C79.2284 11.0856 78.1684 10.86 77.0069 10.86V12.86ZM79.2245 13.3487C79.8049 13.6481 80.2481 14.0806 80.5697 14.6681L82.3241 13.7079C81.8137 12.7754 81.081 12.0559 80.1413 11.5713L79.2245 13.3487ZM80.5697 14.6681C80.8866 15.2469 81.0709 16.0002 81.0709 16.972H83.0709C83.0709 15.7518 82.8393 14.6491 82.3241 13.7079L80.5697 14.6681ZM81.0709 16.972C81.0709 17.0125 81.0679 17.1241 81.0597 17.328L83.0581 17.408C83.066 17.2119 83.0709 17.0595 83.0709 16.972H81.0709ZM81.0589 17.368C81.0589 17.4523 81.0571 17.5098 81.0549 17.5456C81.0538 17.5632 81.0529 17.5698 81.0532 17.568C81.0533 17.5667 81.054 17.5614 81.0555 17.5526C81.057 17.5442 81.0599 17.5292 81.0648 17.5095L83.0051 17.9945C83.0557 17.7921 83.0589 17.5414 83.0589 17.368H81.0589ZM82.0349 16.752H74.6429V18.752H82.0349V16.752ZM80.2145 15.8368C80.2006 15.3951 80.0648 14.9732 79.8645 14.5832L78.0854 15.4968C78.1891 15.6988 78.2132 15.8289 78.2154 15.8992L80.2145 15.8368ZM79.8742 14.6025C79.6421 14.1255 79.2845 13.7446 78.8456 13.4519L77.7362 15.1161C77.9213 15.2394 78.0198 15.3625 78.0757 15.4775L79.8742 14.6025ZM78.8456 13.452C78.3172 13.0996 77.6866 12.972 77.0429 12.972V14.972C77.4393 14.972 77.6407 15.0524 77.7362 15.116L78.8456 13.452ZM77.0429 12.972C76.4005 12.972 75.7811 13.095 75.2475 13.4127L76.2704 15.1313C76.4087 15.049 76.6454 14.972 77.0429 14.972V12.972ZM75.2383 13.4182C74.7842 13.6951 74.4074 14.0604 74.1453 14.5224L75.8846 15.5096C75.9584 15.3796 76.0776 15.2489 76.2795 15.1258L75.2383 13.4182ZM74.1512 14.5121C73.9223 14.9045 73.7694 15.33 73.7306 15.7826L75.7233 15.9534C75.7325 15.846 75.7716 15.7035 75.8787 15.5199L74.1512 14.5121ZM74.7269 16.868H79.2149V14.868H74.7269V16.868ZM82.7971 12.148V11.148H81.7971V12.148H82.7971ZM84.5731 12.148V13.148H85.5731V12.148H84.5731ZM84.5731 8.104V7.104H83.5731V8.104H84.5731ZM87.5971 8.104H88.5971V7.104H87.5971V8.104ZM87.5971 12.148H86.5971V13.148H87.5971V12.148ZM89.9251 12.148H90.9251V11.148H89.9251V12.148ZM89.9251 14.68V15.68H90.9251V14.68H89.9251ZM87.5971 14.68V13.68H86.5971V14.68H87.5971ZM87.8251 19.348L86.9584 19.847L86.9653 19.8585L87.8251 19.348ZM89.1571 19.588L89.6716 20.4455L89.687 20.4362L89.7021 20.4264L89.1571 19.588ZM89.4451 19.372L90.3415 18.9287L89.6454 17.5209L88.6643 18.7473L89.4451 19.372ZM90.5251 21.556L91.2322 22.2631L91.7395 21.7558L91.4215 21.1127L90.5251 21.556ZM90.0571 21.808L89.6433 20.8976L89.6327 20.9025L90.0571 21.808ZM89.0611 22.132L88.8321 21.1586L88.8208 21.1612L88.8095 21.1642L89.0611 22.132ZM85.4611 21.508L84.7955 22.2543L84.8012 22.2593L85.4611 21.508ZM84.5731 14.68H85.5731V13.68H84.5731V14.68ZM82.7971 14.68H81.7971V15.68H82.7971V14.68ZM82.7971 13.148H84.5731V11.148H82.7971V13.148ZM85.5731 12.148V8.104H83.5731V12.148H85.5731ZM84.5731 9.104H87.5971V7.104H84.5731V9.104ZM86.5971 8.104V12.148H88.5971V8.104H86.5971ZM87.5971 13.148H89.9251V11.148H87.5971V13.148ZM88.9251 12.148V14.68H90.9251V12.148H88.9251ZM89.9251 13.68H87.5971V15.68H89.9251V13.68ZM86.5971 14.68V18.244H88.5971V14.68H86.5971ZM86.5971 18.244C86.5971 18.8032 86.6838 19.3698 86.9585 19.847L88.6917 18.849C88.6625 18.7982 88.5971 18.6288 88.5971 18.244H86.5971ZM86.9653 19.8585C87.3185 20.4534 87.9075 20.732 88.5451 20.732V18.732C88.5117 18.732 88.5379 18.726 88.5897 18.7536C88.6145 18.7668 88.637 18.7836 88.6554 18.8016C88.6734 18.8193 88.6824 18.8332 88.685 18.8375L86.9653 19.8585ZM88.5451 20.732C88.9164 20.732 89.3131 20.6606 89.6716 20.4455L88.6426 18.7305C88.6812 18.7074 88.6698 18.732 88.5451 18.732V20.732ZM89.7021 20.4264C89.7913 20.3684 89.876 20.3109 89.9491 20.256C89.9988 20.2187 90.1232 20.1252 90.226 19.9967L88.6643 18.7473C88.6773 18.731 88.689 18.7176 88.6984 18.7072C88.708 18.6967 88.7163 18.6881 88.723 18.6814C88.736 18.6684 88.7459 18.6596 88.7506 18.6554C88.7556 18.651 88.7582 18.649 88.7574 18.6496C88.7568 18.6501 88.7542 18.6522 88.7491 18.656C88.7388 18.6638 88.7224 18.6756 88.6986 18.692C88.6751 18.7081 88.6465 18.7272 88.6121 18.7496L89.7021 20.4264ZM88.5487 19.8153L89.6287 21.9993L91.4215 21.1127L90.3415 18.9287L88.5487 19.8153ZM89.818 20.8489C89.8535 20.8134 89.8831 20.7901 89.897 20.7795C89.9124 20.7678 89.9229 20.7609 89.9256 20.7592C89.9302 20.7562 89.9231 20.761 89.898 20.7745C89.8482 20.8014 89.766 20.8419 89.6433 20.8976L90.4709 22.7184C90.6123 22.6541 90.7401 22.5926 90.8462 22.5355C90.9151 22.4984 91.091 22.4043 91.2322 22.2631L89.818 20.8489ZM89.6327 20.9025C89.4614 20.9828 89.2017 21.0716 88.8321 21.1586L89.2902 23.1054C89.7365 23.0004 90.1408 22.8732 90.4816 22.7135L89.6327 20.9025ZM88.8095 21.1642C88.5073 21.2427 88.1421 21.288 87.7051 21.288V23.288C88.2762 23.288 88.815 23.2293 89.3128 23.0998L88.8095 21.1642ZM87.7051 21.288C87.0059 21.288 86.5039 21.0929 86.1211 20.7567L84.8012 22.2593C85.6024 22.9631 86.5963 23.288 87.7051 23.288V21.288ZM86.1267 20.7617C85.8208 20.4888 85.5731 19.9946 85.5731 19.06H83.5731C83.5731 20.3334 83.9175 21.4712 84.7955 22.2543L86.1267 20.7617ZM85.5731 19.06V14.68H83.5731V19.06H85.5731ZM84.5731 13.68H82.7971V15.68H84.5731V13.68ZM83.7971 14.68V12.148H81.7971V14.68H83.7971ZM113.214 6.16H114.214V5.16H113.214V6.16ZM113.214 22V23H114.214V22H113.214ZM110.226 22H109.226V23H110.226V22ZM110.226 11.86L109.228 11.7976L109.226 11.8288V11.86H110.226ZM110.37 9.556L111.368 9.61838L109.391 9.35384L110.37 9.556ZM109.83 12.172L110.772 12.5084L110.795 12.4426L110.809 12.3742L109.83 12.172ZM106.722 20.872V21.872H107.427L107.664 21.2084L106.722 20.872ZM103.77 20.872L102.828 21.2073L103.065 21.872H103.77V20.872ZM100.674 12.172L99.6939 12.3698L99.708 12.4399L99.732 12.5073L100.674 12.172ZM100.146 9.556L101.126 9.35815L99.1478 9.6132L100.146 9.556ZM100.278 11.86H101.278V11.8314L101.276 11.8028L100.278 11.86ZM100.278 22V23H101.278V22H100.278ZM97.2781 22H96.2781V23H97.2781V22ZM97.2781 6.16V5.16H96.2781V6.16H97.2781ZM101.43 6.16L102.382 5.85442L102.159 5.16H101.43V6.16ZM105.054 17.452L106.039 17.277L106.027 17.2106L106.006 17.1464L105.054 17.452ZM105.246 18.532L104.262 18.707H106.231L105.246 18.532ZM105.438 17.452L104.486 17.1455L104.465 17.2101L104.454 17.277L105.438 17.452ZM109.074 6.16V5.16H108.346L108.122 5.8535L109.074 6.16ZM112.214 6.16V22H114.214V6.16H112.214ZM113.214 21H110.226V23H113.214V21ZM111.226 22V11.86H109.226V22H111.226ZM111.224 11.9224L111.368 9.61838L109.372 9.49362L109.228 11.7976L111.224 11.9224ZM109.391 9.35384L108.851 11.9698L110.809 12.3742L111.349 9.75816L109.391 9.35384ZM108.888 11.8356L105.78 20.5356L107.664 21.2084L110.772 12.5084L108.888 11.8356ZM106.722 19.872H103.77V21.872H106.722V19.872ZM104.712 20.5367L101.616 11.8367L99.732 12.5073L102.828 21.2073L104.712 20.5367ZM101.654 11.9742L101.126 9.35815L99.1659 9.75384L99.6939 12.3698L101.654 11.9742ZM99.1478 9.6132L99.2798 11.9172L101.276 11.8028L101.144 9.4988L99.1478 9.6132ZM99.2781 11.86V22H101.278V11.86H99.2781ZM100.278 21H97.2781V23H100.278V21ZM98.2781 22V6.16H96.2781V22H98.2781ZM97.2781 7.16H101.43V5.16H97.2781V7.16ZM100.478 6.46558L104.102 17.7576L106.006 17.1464L102.382 5.85442L100.478 6.46558ZM104.07 17.627L104.262 18.707L106.231 18.357L106.039 17.277L104.07 17.627ZM106.231 18.707L106.423 17.627L104.454 17.277L104.262 18.357L106.231 18.707ZM106.39 17.7585L110.026 6.4665L108.122 5.8535L104.486 17.1455L106.39 17.7585ZM109.074 7.16H113.214V5.16H109.074V7.16ZM123.512 22H122.512V23H123.512V22ZM123.512 20.284H124.512L122.586 19.9054L123.512 20.284ZM122.96 21.028L123.694 21.707L122.96 21.028ZM121.76 21.904L122.218 22.7926L122.224 22.7898L121.76 21.904ZM117.5 21.616L116.969 22.4635L116.976 22.4677L117.5 21.616ZM115.784 19.756L114.895 20.214L114.9 20.2247L115.784 19.756ZM115.784 14.416L114.898 13.951L114.897 13.9544L115.784 14.416ZM117.5 12.544L116.969 11.6965V11.6965L117.5 12.544ZM121.712 12.196L121.289 13.1022L121.298 13.1064L121.307 13.1104L121.712 12.196ZM122.888 12.964L122.181 13.6711L122.19 13.6807L122.2 13.69L122.888 12.964ZM123.476 13.744L122.541 14.0987L124.476 13.744H123.476ZM123.476 12.148V11.148H122.476V12.148H123.476ZM126.5 12.148H127.5V11.148H126.5V12.148ZM126.5 22V23H127.5V22H126.5ZM118.532 18.544L117.668 19.0489L117.673 19.0561L118.532 18.544ZM119.516 19.516L120.01 18.6467L119.516 19.516ZM122.192 19.516L122.701 20.3766L122.707 20.3728L122.714 20.3689L122.192 19.516ZM123.116 18.532L122.238 18.052L122.235 18.0579L123.116 18.532ZM123.116 15.64L122.231 16.1071L122.237 16.1172L122.242 16.1271L123.116 15.64ZM122.192 14.644L122.714 13.7911L122.192 14.644ZM119.516 14.644L120.01 15.5133L120.016 15.5097L120.023 15.5059L119.516 14.644ZM118.532 15.628L119.391 16.1401L119.395 16.1329L118.532 15.628ZM124.512 22V20.284H122.512V22H124.512ZM122.586 19.9054C122.595 19.8834 122.586 19.9131 122.517 20.0062C122.453 20.0921 122.358 20.2056 122.226 20.349L123.694 21.707C123.993 21.3835 124.291 21.0209 124.437 20.6626L122.586 19.9054ZM122.226 20.349C122.027 20.5639 121.728 20.7919 121.296 21.0182L122.224 22.7898C122.8 22.4881 123.301 22.1321 123.694 21.707L122.226 20.349ZM121.301 21.0154C120.973 21.1847 120.552 21.288 120.008 21.288V23.288C120.807 23.288 121.554 23.1353 122.218 22.7926L121.301 21.0154ZM120.008 21.288C119.229 21.288 118.578 21.1054 118.024 20.7643L116.976 22.4677C117.877 23.0226 118.898 23.288 120.008 23.288V21.288ZM118.03 20.7685C117.456 20.4088 117.004 19.9217 116.667 19.2873L114.9 20.2247C115.396 21.1583 116.087 21.9112 116.969 22.4635L118.03 20.7685ZM116.673 19.298C116.346 18.6631 116.172 17.931 116.172 17.08H114.172C114.172 18.213 114.406 19.2649 114.895 20.214L116.673 19.298ZM116.172 17.08C116.172 16.2288 116.346 15.5024 116.671 14.8776L114.897 13.9544C114.406 14.8976 114.172 15.9472 114.172 17.08H116.172ZM116.669 14.881C117.006 14.2388 117.459 13.7496 118.03 13.3915L116.969 11.6965C116.085 12.2504 115.393 13.0092 114.898 13.951L116.669 14.881ZM118.03 13.3915C118.584 13.0449 119.232 12.86 120.008 12.86V10.86C118.895 10.86 117.871 11.1311 116.969 11.6965L118.03 13.3915ZM120.008 12.86C120.551 12.86 120.969 12.9529 121.289 13.1022L122.135 11.2898C121.494 10.9911 120.776 10.86 120.008 10.86V12.86ZM121.307 13.1104C121.712 13.2897 121.992 13.4826 122.181 13.6711L123.595 12.2569C123.191 11.8534 122.687 11.5343 122.116 11.2816L121.307 13.1104ZM122.2 13.69C122.46 13.9364 122.531 14.0726 122.541 14.0987L124.411 13.3893C124.244 12.9514 123.923 12.5676 123.575 12.238L122.2 13.69ZM124.476 13.744V12.148H122.476V13.744H124.476ZM123.476 13.148H126.5V11.148H123.476V13.148ZM125.5 12.148V22H127.5V12.148H125.5ZM126.5 21H123.512V23H126.5V21ZM117.16 17.08C117.16 17.787 117.32 18.4534 117.668 19.0489L119.395 18.0391C119.247 17.7866 119.16 17.477 119.16 17.08H117.16ZM117.673 19.0561C118.006 19.6157 118.458 20.065 119.021 20.3853L120.01 18.6467C119.757 18.503 119.553 18.3043 119.391 18.0319L117.673 19.0561ZM119.021 20.3853C119.584 20.705 120.198 20.864 120.848 20.864V18.864C120.537 18.864 120.264 18.791 120.01 18.6467L119.021 20.3853ZM120.848 20.864C121.511 20.864 122.139 20.7093 122.701 20.3766L121.682 18.6554C121.461 18.7867 121.192 18.864 120.848 18.864V20.864ZM122.714 20.3689C123.261 20.0338 123.691 19.5733 123.996 19.0061L122.235 18.0579C122.093 18.3227 121.906 18.5182 121.669 18.6631L122.714 20.3689ZM123.993 19.012C124.315 18.4231 124.464 17.7704 124.464 17.08H122.464C122.464 17.4776 122.38 17.7929 122.238 18.052L123.993 19.012ZM124.464 17.08C124.464 16.39 124.315 15.7379 123.989 15.1529L122.242 16.1271C122.38 16.3741 122.464 16.682 122.464 17.08H124.464ZM124 15.1729C123.696 14.5973 123.266 14.129 122.714 13.7911L121.669 15.4969C121.902 15.639 122.088 15.8347 122.231 16.1071L124 15.1729ZM122.714 13.7911C122.15 13.4458 121.518 13.284 120.848 13.284V15.284C121.186 15.284 121.45 15.3622 121.669 15.4969L122.714 13.7911ZM120.848 13.284C120.192 13.284 119.573 13.4503 119.009 13.7821L120.023 15.5059C120.275 15.3577 120.543 15.284 120.848 15.284V13.284ZM119.021 13.7747C118.453 14.0978 118.001 14.5547 117.668 15.1231L119.395 16.1329C119.558 15.8533 119.762 15.6542 120.01 15.5133L119.021 13.7747ZM117.673 15.1159C117.32 15.7075 117.16 16.3734 117.16 17.08H119.16C119.16 16.6826 119.247 16.3805 119.391 16.1401L117.673 15.1159ZM136.778 12.28L136.377 13.1962L136.387 13.2003L136.778 12.28ZM138.35 13.588L137.523 14.1503L137.528 14.1578L138.35 13.588ZM138.974 22V23H139.974V22H138.974ZM135.914 22H134.914V23H135.914V22ZM135.338 14.668L134.616 15.3603L134.623 15.3678L135.338 14.668ZM132.698 14.416L133.212 15.2735L133.218 15.2702L132.698 14.416ZM131.81 15.328L130.949 14.8187L130.946 14.8241L131.81 15.328ZM131.474 22V23H132.474V22H131.474ZM128.426 22H127.426V23H128.426V22ZM128.426 12.148V11.148H127.426V12.148H128.426ZM131.474 12.148H132.474V11.148H131.474V12.148ZM131.474 13.72H130.474L132.425 14.0278L131.474 13.72ZM133.262 12.16L133.633 13.0885L133.64 13.0858L133.646 13.0831L133.262 12.16ZM134.81 12.86C135.338 12.86 135.858 12.9692 136.377 13.1962L137.179 11.3638C136.417 11.0308 135.625 10.86 134.81 10.86V12.86ZM136.387 13.2003C136.842 13.3939 137.218 13.7017 137.523 14.1503L139.177 13.0257C138.666 12.2743 137.993 11.7101 137.169 11.3597L136.387 13.2003ZM137.528 14.1578C137.796 14.5437 137.974 15.1102 137.974 15.94H139.974C139.974 14.8338 139.736 13.8323 139.172 13.0182L137.528 14.1578ZM137.974 15.94V22H139.974V15.94H137.974ZM138.974 21H135.914V23H138.974V21ZM136.914 22V16.468H134.914V22H136.914ZM136.914 16.468C136.914 15.521 136.69 14.6195 136.052 13.9682L134.623 15.3678C134.753 15.5005 134.914 15.799 134.914 16.468H136.914ZM136.06 13.9758C135.469 13.36 134.698 13.08 133.85 13.08V15.08C134.233 15.08 134.455 15.192 134.616 15.3602L136.06 13.9758ZM133.85 13.08C133.252 13.08 132.69 13.2501 132.178 13.5618L133.218 15.2702C133.442 15.1339 133.647 15.08 133.85 15.08V13.08ZM132.183 13.5585C131.669 13.8672 131.258 14.2961 130.949 14.8187L132.67 15.8373C132.825 15.5759 133.007 15.3968 133.212 15.2735L132.183 13.5585ZM130.946 14.8241C130.623 15.3782 130.474 15.9959 130.474 16.648H132.474C132.474 16.3081 132.549 16.0458 132.674 15.8319L130.946 14.8241ZM130.474 16.648V22H132.474V16.648H130.474ZM131.474 21H128.426V23H131.474V21ZM129.426 22V12.148H127.426V22H129.426ZM128.426 13.148H131.474V11.148H128.426V13.148ZM130.474 12.148V13.72H132.474V12.148H130.474ZM132.425 14.0278C132.441 13.9797 132.51 13.8387 132.752 13.6148L131.396 12.1452C131.014 12.4973 130.683 12.9163 130.522 13.4122L132.425 14.0278ZM132.752 13.6148C132.957 13.4254 133.243 13.2447 133.633 13.0885L132.89 11.2315C132.321 11.4593 131.814 11.7586 131.396 12.1452L132.752 13.6148ZM133.646 13.0831C133.997 12.9369 134.382 12.86 134.81 12.86V10.86C134.134 10.86 133.486 10.9831 132.877 11.2369L133.646 13.0831ZM148.614 22H147.614V23H148.614V22ZM148.614 20.284H149.614L147.689 19.9054L148.614 20.284ZM148.062 21.028L148.796 21.707L148.062 21.028ZM146.862 21.904L147.321 22.7926L147.326 22.7898L146.862 21.904ZM142.602 21.616L142.071 22.4635L142.078 22.4677L142.602 21.616ZM140.886 19.756L139.997 20.214L140.003 20.2247L140.886 19.756ZM140.886 14.416L140.001 13.951L139.999 13.9544L140.886 14.416ZM142.602 12.544L142.071 11.6965V11.6965L142.602 12.544ZM146.814 12.196L146.391 13.1022L146.4 13.1064L146.409 13.1104L146.814 12.196ZM147.99 12.964L147.283 13.6711L147.293 13.6807L147.302 13.69L147.99 12.964ZM148.578 13.744L147.643 14.0987L149.578 13.744H148.578ZM148.578 12.148V11.148H147.578V12.148H148.578ZM151.602 12.148H152.602V11.148H151.602V12.148ZM151.602 22V23H152.602V22H151.602ZM143.634 18.544L142.771 19.0489L142.775 19.0561L143.634 18.544ZM144.618 19.516L145.112 18.6467L144.618 19.516ZM147.294 19.516L147.803 20.3766L147.81 20.3728L147.816 20.3689L147.294 19.516ZM148.218 18.532L147.341 18.052L147.338 18.0579L148.218 18.532ZM148.218 15.64L147.334 16.1071L147.339 16.1172L147.345 16.1271L148.218 15.64ZM147.294 14.644L147.816 13.7911L147.294 14.644ZM144.618 14.644L145.112 15.5133L145.119 15.5097L145.125 15.5059L144.618 14.644ZM143.634 15.628L144.493 16.1401L144.497 16.1329L143.634 15.628ZM149.614 22V20.284H147.614V22H149.614ZM147.689 19.9054C147.698 19.8834 147.688 19.9131 147.619 20.0062C147.555 20.0921 147.461 20.2056 147.328 20.349L148.796 21.707C149.096 21.3835 149.393 21.0209 149.54 20.6626L147.689 19.9054ZM147.328 20.349C147.129 20.5639 146.83 20.7919 146.398 21.0182L147.326 22.7898C147.902 22.4881 148.403 22.1321 148.796 21.707L147.328 20.349ZM146.403 21.0154C146.075 21.1847 145.655 21.288 145.11 21.288V23.288C145.909 23.288 146.657 23.1353 147.321 22.7926L146.403 21.0154ZM145.11 21.288C144.331 21.288 143.68 21.1054 143.126 20.7643L142.078 22.4677C142.98 23.0226 144.001 23.288 145.11 23.288V21.288ZM143.133 20.7685C142.559 20.4088 142.106 19.9217 141.769 19.2873L140.003 20.2247C140.498 21.1583 141.19 21.9112 142.071 22.4635L143.133 20.7685ZM141.775 19.298C141.448 18.6631 141.274 17.931 141.274 17.08H139.274C139.274 18.213 139.508 19.2649 139.997 20.214L141.775 19.298ZM141.274 17.08C141.274 16.2288 141.448 15.5024 141.773 14.8776L139.999 13.9544C139.508 14.8976 139.274 15.9472 139.274 17.08H141.274ZM141.771 14.881C142.109 14.2388 142.561 13.7496 143.133 13.3915L142.071 11.6965C141.187 12.2504 140.496 13.0092 140.001 13.951L141.771 14.881ZM143.133 13.3915C143.686 13.0449 144.335 12.86 145.11 12.86V10.86C143.998 10.86 142.974 11.1311 142.071 11.6965L143.133 13.3915ZM145.11 12.86C145.654 12.86 146.071 12.9529 146.391 13.1022L147.237 11.2898C146.597 10.9911 145.878 10.86 145.11 10.86V12.86ZM146.409 13.1104C146.814 13.2897 147.094 13.4826 147.283 13.6711L148.697 12.2569C148.294 11.8534 147.79 11.5343 147.219 11.2816L146.409 13.1104ZM147.302 13.69C147.563 13.9364 147.633 14.0726 147.643 14.0987L149.513 13.3893C149.347 12.9514 149.026 12.5676 148.678 12.238L147.302 13.69ZM149.578 13.744V12.148H147.578V13.744H149.578ZM148.578 13.148H151.602V11.148H148.578V13.148ZM150.602 12.148V22H152.602V12.148H150.602ZM151.602 21H148.614V23H151.602V21ZM142.262 17.08C142.262 17.787 142.423 18.4534 142.771 19.0489L144.497 18.0391C144.35 17.7866 144.262 17.477 144.262 17.08H142.262ZM142.775 19.0561C143.109 19.6157 143.56 20.065 144.124 20.3853L145.112 18.6467C144.86 18.503 144.655 18.3043 144.493 18.0319L142.775 19.0561ZM144.124 20.3853C144.686 20.705 145.301 20.864 145.95 20.864V18.864C145.639 18.864 145.366 18.791 145.112 18.6467L144.124 20.3853ZM145.95 20.864C146.614 20.864 147.241 20.7093 147.803 20.3766L146.785 18.6554C146.563 18.7867 146.295 18.864 145.95 18.864V20.864ZM147.816 20.3689C148.363 20.0338 148.793 19.5733 149.099 19.0061L147.338 18.0579C147.195 18.3227 147.009 18.5182 146.772 18.6631L147.816 20.3689ZM149.095 19.012C149.418 18.4231 149.566 17.7704 149.566 17.08H147.566C147.566 17.4776 147.483 17.7929 147.341 18.052L149.095 19.012ZM149.566 17.08C149.566 16.39 149.418 15.7379 149.091 15.1529L147.345 16.1271C147.483 16.3741 147.566 16.682 147.566 17.08H149.566ZM149.102 15.1729C148.798 14.5973 148.368 14.129 147.816 13.7911L146.772 15.4969C147.004 15.639 147.19 15.8347 147.334 16.1071L149.102 15.1729ZM147.816 13.7911C147.252 13.4458 146.62 13.284 145.95 13.284V15.284C146.288 15.284 146.552 15.3622 146.772 15.4969L147.816 13.7911ZM145.95 13.284C145.294 13.284 144.675 13.4503 144.111 13.7821L145.125 15.5059C145.377 15.3577 145.646 15.284 145.95 15.284V13.284ZM144.124 13.7747C143.556 14.0978 143.103 14.5547 142.771 15.1231L144.497 16.1329C144.661 15.8533 144.865 15.6542 145.112 15.5133L144.124 13.7747ZM142.775 15.1159C142.423 15.7075 142.262 16.3734 142.262 17.08H144.262C144.262 16.6826 144.35 16.3805 144.493 16.1401L142.775 15.1159ZM156.54 27.064L156.337 28.0432L156.34 28.0437L156.54 27.064ZM154.752 26.428L154.279 27.3089L154.752 26.428ZM153.408 25.3L152.697 24.5975L152.081 25.2209L152.618 25.913L153.408 25.3ZM155.256 23.428L156.046 22.8141L155.346 21.9141L154.545 22.7255L155.256 23.428ZM155.904 24.076L156.54 23.3041L156.538 23.302L155.904 24.076ZM156.936 24.628L157.28 23.6887L157.271 23.6858L157.263 23.683L156.936 24.628ZM160.02 24.508L159.56 23.6202L159.55 23.6254L159.54 23.6307L160.02 24.508ZM161.016 23.548L160.15 23.0483L160.146 23.0546L160.143 23.0609L161.016 23.548ZM161.376 21.82V20.82H160.376V21.82H161.376ZM164.364 21.82H165.364V20.82H164.364V21.82ZM163.596 25.024L162.773 24.4571L163.596 25.024ZM161.532 26.704L161.931 27.6209L161.532 26.704ZM161.376 22H160.376V23H161.376V22ZM161.376 20.284H162.376L160.451 19.9054L161.376 20.284ZM160.824 21.028L161.558 21.707L160.824 21.028ZM159.624 21.904L160.083 22.7926L160.088 22.7898L159.624 21.904ZM155.364 21.616L154.833 22.4635L154.84 22.4677L155.364 21.616ZM153.648 19.756L152.759 20.214L152.765 20.2247L153.648 19.756ZM153.648 14.416L152.763 13.951L152.761 13.9544L153.648 14.416ZM155.364 12.544L154.833 11.6965V11.6965L155.364 12.544ZM159.576 12.196L159.153 13.1022L159.162 13.1064L159.172 13.1104L159.576 12.196ZM160.752 12.964L160.045 13.6711L160.055 13.6807L160.065 13.69L160.752 12.964ZM161.34 13.744L160.405 14.0987L162.34 13.744H161.34ZM161.34 12.148V11.148H160.34V12.148H161.34ZM164.364 12.148H165.364V11.148H164.364V12.148ZM164.364 22V23H165.364V22H164.364ZM156.396 18.544L155.533 19.0489L155.537 19.0561L156.396 18.544ZM157.38 19.516L157.875 18.6467L157.38 19.516ZM160.056 19.516L160.566 20.3766L160.572 20.3728L160.578 20.3689L160.056 19.516ZM160.98 18.532L160.103 18.052L160.1 18.0579L160.98 18.532ZM160.98 15.64L160.096 16.1071L160.101 16.1172L160.107 16.1271L160.98 15.64ZM160.056 14.644L160.578 13.7911L160.056 14.644ZM157.38 14.644L157.875 15.5133L157.881 15.5097L157.887 15.5059L157.38 14.644ZM156.396 15.628L157.255 16.1401L157.259 16.1329L156.396 15.628ZM158.616 26.268C157.96 26.268 157.335 26.206 156.741 26.0843L156.34 28.0437C157.074 28.194 157.833 28.268 158.616 28.268V26.268ZM156.743 26.0848C156.172 25.9664 155.669 25.7851 155.226 25.5471L154.279 27.3089C154.908 27.6469 155.596 27.8896 156.337 28.0432L156.743 26.0848ZM155.226 25.5471C154.808 25.3228 154.47 25.0365 154.198 24.687L152.618 25.913C153.067 26.4915 153.624 26.9572 154.279 27.3089L155.226 25.5471ZM154.12 26.0025L155.968 24.1305L154.545 22.7255L152.697 24.5975L154.12 26.0025ZM154.467 24.0419C154.69 24.3293 154.963 24.5977 155.271 24.85L156.538 23.302C156.318 23.1223 156.158 22.9587 156.046 22.8141L154.467 24.0419ZM155.269 24.8479C155.652 25.1637 156.108 25.3994 156.609 25.573L157.263 23.683C156.933 23.5686 156.701 23.4363 156.54 23.3041L155.269 24.8479ZM156.593 25.5673C157.154 25.7722 157.799 25.856 158.496 25.856V23.856C157.945 23.856 157.551 23.7878 157.28 23.6887L156.593 25.5673ZM158.496 25.856C159.219 25.856 159.9 25.714 160.5 25.3853L159.54 23.6307C159.293 23.766 158.958 23.856 158.496 23.856V25.856ZM160.481 25.3958C161.083 25.0836 161.56 24.6261 161.89 24.0351L160.143 23.0609C160.009 23.3019 159.822 23.4844 159.56 23.6202L160.481 25.3958ZM161.882 24.0477C162.223 23.4583 162.376 22.7969 162.376 22.096H160.376C160.376 22.4991 160.29 22.8057 160.15 23.0483L161.882 24.0477ZM162.376 22.096V21.82H160.376V22.096H162.376ZM161.376 22.82H164.364V20.82H161.376V22.82ZM163.364 21.82V22.276H165.364V21.82H163.364ZM163.364 22.276C163.364 23.2037 163.148 23.9115 162.773 24.4571L164.42 25.5909C165.069 24.6485 165.364 23.5243 165.364 22.276H163.364ZM162.773 24.4571C162.371 25.0401 161.834 25.4823 161.133 25.7871L161.931 27.6209C162.959 27.1737 163.797 26.4959 164.42 25.5909L162.773 24.4571ZM161.133 25.7871C160.412 26.1008 159.579 26.268 158.616 26.268V28.268C159.814 28.268 160.924 28.0592 161.931 27.6209L161.133 25.7871ZM162.376 22V20.284H160.376V22H162.376ZM160.451 19.9054C160.46 19.8834 160.45 19.9131 160.381 20.0062C160.317 20.0921 160.223 20.2056 160.09 20.349L161.558 21.707C161.858 21.3835 162.155 21.0209 162.302 20.6626L160.451 19.9054ZM160.09 20.349C159.891 20.5639 159.592 20.7919 159.16 21.0182L160.088 22.7898C160.664 22.4881 161.165 22.1321 161.558 21.707L160.09 20.349ZM159.166 21.0154C158.838 21.1847 158.417 21.288 157.872 21.288V23.288C158.672 23.288 159.419 23.1353 160.083 22.7926L159.166 21.0154ZM157.872 21.288C157.093 21.288 156.443 21.1054 155.888 20.7643L154.84 22.4677C155.742 23.0226 156.763 23.288 157.872 23.288V21.288ZM155.895 20.7685C155.321 20.4088 154.868 19.9217 154.532 19.2873L152.765 20.2247C153.26 21.1583 153.952 21.9112 154.833 22.4635L155.895 20.7685ZM154.537 19.298C154.21 18.6631 154.036 17.931 154.036 17.08H152.036C152.036 18.213 152.27 19.2649 152.759 20.214L154.537 19.298ZM154.036 17.08C154.036 16.2288 154.21 15.5024 154.535 14.8776L152.761 13.9544C152.27 14.8976 152.036 15.9472 152.036 17.08H154.036ZM154.534 14.881C154.871 14.2388 155.323 13.7496 155.895 13.3915L154.833 11.6965C153.949 12.2504 153.258 13.0092 152.763 13.951L154.534 14.881ZM155.895 13.3915C156.448 13.0449 157.097 12.86 157.872 12.86V10.86C156.76 10.86 155.736 11.1311 154.833 11.6965L155.895 13.3915ZM157.872 12.86C158.416 12.86 158.834 12.9529 159.153 13.1022L159.999 11.2898C159.359 10.9911 158.64 10.86 157.872 10.86V12.86ZM159.172 13.1104C159.576 13.2897 159.857 13.4826 160.045 13.6711L161.459 12.2569C161.056 11.8534 160.552 11.5343 159.981 11.2816L159.172 13.1104ZM160.065 13.69C160.325 13.9364 160.395 14.0726 160.405 14.0987L162.275 13.3893C162.109 12.9514 161.788 12.5676 161.44 12.238L160.065 13.69ZM162.34 13.744V12.148H160.34V13.744H162.34ZM161.34 13.148H164.364V11.148H161.34V13.148ZM163.364 12.148V22H165.364V12.148H163.364ZM164.364 21H161.376V23H164.364V21ZM155.024 17.08C155.024 17.787 155.185 18.4534 155.533 19.0489L157.259 18.0391C157.112 17.7866 157.024 17.477 157.024 17.08H155.024ZM155.537 19.0561C155.871 19.6157 156.323 20.065 156.886 20.3853L157.875 18.6467C157.622 18.503 157.418 18.3043 157.255 18.0319L155.537 19.0561ZM156.886 20.3853C157.448 20.705 158.063 20.864 158.712 20.864V18.864C158.402 18.864 158.128 18.791 157.875 18.6467L156.886 20.3853ZM158.712 20.864C159.376 20.864 160.003 20.7093 160.566 20.3766L159.547 18.6554C159.325 18.7867 159.057 18.864 158.712 18.864V20.864ZM160.578 20.3689C161.126 20.0338 161.555 19.5733 161.861 19.0061L160.1 18.0579C159.957 18.3227 159.771 18.5182 159.534 18.6631L160.578 20.3689ZM161.858 19.012C162.18 18.4231 162.328 17.7704 162.328 17.08H160.328C160.328 17.4776 160.245 17.7929 160.103 18.052L161.858 19.012ZM162.328 17.08C162.328 16.39 162.18 15.7379 161.854 15.1529L160.107 16.1271C160.245 16.3741 160.328 16.682 160.328 17.08H162.328ZM161.865 15.1729C161.56 14.5973 161.13 14.129 160.578 13.7911L159.534 15.4969C159.766 15.639 159.952 15.8347 160.096 16.1071L161.865 15.1729ZM160.578 13.7911C160.014 13.4458 159.382 13.284 158.712 13.284V15.284C159.05 15.284 159.314 15.3622 159.534 15.4969L160.578 13.7911ZM158.712 13.284C158.057 13.284 157.437 13.4503 156.873 13.7821L157.887 15.5059C158.139 15.3577 158.408 15.284 158.712 15.284V13.284ZM156.886 13.7747C156.318 14.0978 155.866 14.5547 155.533 15.1231L157.259 16.1329C157.423 15.8533 157.627 15.6542 157.875 15.5133L156.886 13.7747ZM155.537 15.1159C155.185 15.7075 155.024 16.3734 155.024 17.08H157.024C157.024 16.6826 157.112 16.3805 157.255 16.1401L155.537 15.1159ZM168.701 17.752V16.752H167.646L167.703 17.8055L168.701 17.752ZM169.997 19.78L169.557 20.6779L169.564 20.6813L169.997 19.78ZM172.853 19.888L172.549 18.9356L172.543 18.9374L172.853 19.888ZM173.861 19.42L174.422 20.2483L174.427 20.2447L173.861 19.42ZM174.485 18.868L175.315 18.3096L174.541 17.1602L173.694 18.2566L174.485 18.868ZM175.745 20.74L176.526 21.3647L176.985 20.7911L176.575 20.1816L175.745 20.74ZM174.845 21.52L175.379 22.3659L175.383 22.3629L174.845 21.52ZM173.429 22.072L173.2 21.0988L173.192 21.1006L173.184 21.1027L173.429 22.072ZM168.449 21.652L168.91 20.7646L168.449 21.652ZM166.541 19.816L167.41 19.3208L166.541 19.816ZM166.469 14.368L167.353 14.8372L167.354 14.8334L166.469 14.368ZM168.245 12.532L167.749 11.6637L167.745 11.666L168.245 12.532ZM173.741 12.46L173.272 13.3429L173.283 13.3487L173.741 12.46ZM175.505 14.188L174.628 14.6681L175.505 14.188ZM176.117 17.368L175.118 17.328L175.117 17.348V17.368H176.117ZM176.093 17.752V18.752H176.874L177.064 17.9945L176.093 17.752ZM173.273 15.868V16.868H174.305L174.273 15.8368L173.273 15.868ZM173.033 15.04L172.134 15.4775L172.139 15.4872L172.144 15.4968L173.033 15.04ZM172.349 14.284L171.795 15.116V15.1161L172.349 14.284ZM169.817 14.272L169.306 13.4127L169.297 13.4182L169.817 14.272ZM169.073 15.016L169.937 15.5199L169.943 15.5096L169.073 15.016ZM168.785 15.868L167.789 15.7826L167.696 16.868H168.785V15.868ZM167.703 17.8055C167.735 18.405 167.899 18.9691 168.209 19.475L169.914 18.429C169.792 18.2309 169.716 17.995 169.7 17.6985L167.703 17.8055ZM168.209 19.475C168.534 20.0045 168.997 20.4032 169.557 20.6779L170.438 18.8821C170.182 18.7568 170.021 18.6035 169.914 18.429L168.209 19.475ZM169.564 20.6813C170.145 20.9603 170.796 21.08 171.485 21.08V19.08C171.023 19.08 170.682 18.9997 170.431 18.8787L169.564 20.6813ZM171.485 21.08C172.085 21.08 172.649 21.0066 173.164 20.8386L172.543 18.9374C172.273 19.0254 171.926 19.08 171.485 19.08V21.08ZM173.158 20.8404C173.625 20.6911 174.052 20.4981 174.422 20.2483L173.301 18.5917C173.126 18.7099 172.882 18.8289 172.549 18.9356L173.158 20.8404ZM174.427 20.2447C174.753 20.0214 175.053 19.7692 175.277 19.4794L173.694 18.2566C173.646 18.3188 173.53 18.4346 173.296 18.5953L174.427 20.2447ZM173.656 19.4264L174.916 21.2984L176.575 20.1816L175.315 18.3096L173.656 19.4264ZM174.965 20.1153C174.823 20.2918 174.613 20.4822 174.307 20.6771L175.383 22.3629C175.83 22.0778 176.219 21.7482 176.526 21.3647L174.965 20.1153ZM174.312 20.6741C174.064 20.8302 173.704 20.9796 173.2 21.0988L173.659 23.0452C174.307 22.8924 174.89 22.6738 175.379 22.3659L174.312 20.6741ZM173.184 21.1027C172.724 21.2193 172.101 21.288 171.293 21.288V23.288C172.198 23.288 172.999 23.2127 173.675 23.0413L173.184 21.1027ZM171.293 21.288C170.346 21.288 169.561 21.1027 168.91 20.7646L167.988 22.5394C168.97 23.0493 170.081 23.288 171.293 23.288V21.288ZM168.91 20.7646C168.266 20.4295 167.771 19.9538 167.41 19.3208L165.673 20.3112C166.224 21.2782 167.001 22.0265 167.988 22.5394L168.91 20.7646ZM167.41 19.3208C167.056 18.6991 166.857 17.9249 166.857 16.96H164.857C164.857 18.2031 165.115 19.3329 165.673 20.3112L167.41 19.3208ZM166.857 16.96C166.857 16.1463 167.029 15.4461 167.352 14.8372L165.586 13.8988C165.094 14.8259 164.857 15.8537 164.857 16.96H166.857ZM167.354 14.8334C167.673 14.2285 168.129 13.7538 168.745 13.398L167.745 11.666C166.81 12.2062 166.082 12.9555 165.584 13.9026L167.354 14.8334ZM168.742 13.4002C169.345 13.0553 170.106 12.86 171.065 12.86V10.86C169.832 10.86 168.714 11.1127 167.749 11.6638L168.742 13.4002ZM171.065 12.86C171.968 12.86 172.692 13.0344 173.272 13.3429L174.211 11.5771C173.287 11.0856 172.227 10.86 171.065 10.86V12.86ZM173.283 13.3487C173.863 13.6481 174.307 14.0806 174.628 14.6681L176.383 13.7079C175.872 12.7754 175.139 12.0559 174.2 11.5713L173.283 13.3487ZM174.628 14.6681C174.945 15.2469 175.129 16.0002 175.129 16.972H177.129C177.129 15.7518 176.898 14.6491 176.383 13.7079L174.628 14.6681ZM175.129 16.972C175.129 17.0125 175.126 17.1241 175.118 17.328L177.117 17.408C177.124 17.2119 177.129 17.0595 177.129 16.972H175.129ZM175.117 17.368C175.117 17.4523 175.116 17.5098 175.113 17.5456C175.112 17.5632 175.111 17.5698 175.112 17.568C175.112 17.5667 175.112 17.5614 175.114 17.5526C175.115 17.5442 175.118 17.5292 175.123 17.5095L177.064 17.9945C177.114 17.7921 177.117 17.5414 177.117 17.368H175.117ZM176.093 16.752H168.701V18.752H176.093V16.752ZM174.273 15.8368C174.259 15.3951 174.123 14.9732 173.923 14.5832L172.144 15.4968C172.248 15.6988 172.272 15.8289 172.274 15.8992L174.273 15.8368ZM173.933 14.6025C173.701 14.1255 173.343 13.7446 172.904 13.4519L171.795 15.1161C171.98 15.2394 172.078 15.3625 172.134 15.4775L173.933 14.6025ZM172.904 13.452C172.376 13.0996 171.745 12.972 171.101 12.972V14.972C171.498 14.972 171.699 15.0524 171.795 15.116L172.904 13.452ZM171.101 12.972C170.459 12.972 169.84 13.095 169.306 13.4127L170.329 15.1313C170.467 15.049 170.704 14.972 171.101 14.972V12.972ZM169.297 13.4182C168.843 13.6951 168.466 14.0604 168.204 14.5224L169.943 15.5096C170.017 15.3796 170.136 15.2489 170.338 15.1258L169.297 13.4182ZM168.21 14.5121C167.981 14.9045 167.828 15.33 167.789 15.7826L169.782 15.9534C169.791 15.846 169.83 15.7035 169.937 15.5199L168.21 14.5121ZM168.785 16.868H173.273V14.868H168.785V16.868ZM180.54 22V23H181.54V22H180.54ZM177.492 22H176.492V23H177.492V22ZM177.492 12.148V11.148H176.492V12.148H177.492ZM180.54 12.148H181.54V11.148H180.54V12.148ZM180.54 13.744V14.744H181.54V13.744H180.54ZM180.48 13.744L179.52 13.464L179.146 14.744H180.48V13.744ZM180.936 13.012L180.179 12.3578L180.174 12.3638L180.169 12.3698L180.936 13.012ZM181.992 12.22L182.451 13.1081L182.464 13.1015L181.992 12.22ZM184.848 12.064L184.501 13.002L184.513 13.0065L184.525 13.0106L184.848 12.064ZM185.652 12.448L186.553 12.8813L186.898 12.1642L186.276 11.6671L185.652 12.448ZM184.452 14.944L183.675 15.5746L184.67 16.7982L185.353 15.3773L184.452 14.944ZM183.864 14.548L183.427 15.4476L183.437 15.4522L183.864 14.548ZM181.548 14.764L182.177 15.5412L182.182 15.5368L182.188 15.5322L181.548 14.764ZM180.792 15.772L181.711 16.1659L181.714 16.1592L180.792 15.772ZM180.54 21H177.492V23H180.54V21ZM178.492 22V12.148H176.492V22H178.492ZM177.492 13.148H180.54V11.148H177.492V13.148ZM179.54 12.148V13.744H181.54V12.148H179.54ZM180.54 12.744H180.48V14.744H180.54V12.744ZM181.44 14.024C181.434 14.0446 181.437 14.021 181.484 13.9457C181.529 13.8743 181.599 13.7777 181.702 13.6542L180.169 12.3698C179.9 12.6914 179.636 13.066 179.52 13.464L181.44 14.024ZM181.692 13.6662C181.845 13.4896 182.085 13.2977 182.451 13.108L181.532 11.332C181.002 11.6063 180.538 11.9424 180.179 12.3578L181.692 13.6662ZM182.464 13.1015C182.735 12.956 183.105 12.86 183.612 12.86V10.86C182.854 10.86 182.144 11.004 181.519 11.3385L182.464 13.1015ZM183.612 12.86C183.968 12.86 184.26 12.9131 184.501 13.002L185.194 11.126C184.699 10.9429 184.167 10.86 183.612 10.86V12.86ZM184.525 13.0106C184.688 13.0659 184.81 13.1158 184.9 13.1584C184.944 13.1794 184.976 13.1969 184.998 13.2102C185.021 13.2238 185.029 13.2304 185.027 13.2289L186.276 11.6671C185.976 11.4271 185.573 11.2544 185.17 11.1173L184.525 13.0106ZM184.75 12.0147L183.55 14.5107L185.353 15.3773L186.553 12.8813L184.75 12.0147ZM185.228 14.3134C184.977 14.0049 184.611 13.7949 184.291 13.6438L183.437 15.4522C183.549 15.5056 183.623 15.5484 183.668 15.5784C183.716 15.611 183.706 15.6125 183.675 15.5746L185.228 14.3134ZM184.3 13.6485C183.844 13.4269 183.331 13.344 182.808 13.344V15.344C183.132 15.344 183.323 15.3971 183.427 15.4475L184.3 13.6485ZM182.808 13.344C182.107 13.344 181.45 13.5436 180.907 13.9958L182.188 15.5322C182.317 15.4244 182.5 15.344 182.808 15.344V13.344ZM180.918 13.9868C180.454 14.363 180.101 14.8332 179.87 15.3848L181.714 16.1592C181.818 15.9108 181.97 15.709 182.177 15.5412L180.918 13.9868ZM179.872 15.3781C179.663 15.8656 179.54 16.3683 179.54 16.876H181.54C181.54 16.6957 181.584 16.4624 181.711 16.1659L179.872 15.3781ZM179.54 16.876V22H181.54V16.876H179.54Z" fill="black" mask="url(#path-8-inside-1_123_25)"/>
</g>
<defs>
<filter id="filter0_d_123_25" x="41.176" y="5.488" width="148.476" height="29.78" filterUnits="userSpaceOnUse" color-interpolation-filters="sRGB">
<feFlood flood-opacity="0" result="BackgroundImageFix"/>
<feColorMatrix in="SourceAlpha" type="matrix" values="0 0 0 0 0 0 0 0 0 0 0 0 0 0 0 0 0 0 127 0" result="hardAlpha"/>
<feOffset dy="4"/>
<feGaussianBlur stdDeviation="2"/>
<feComposite in2="hardAlpha" operator="out"/>
<feColorMatrix type="matrix" values="0 0 0 0 0 0 0 0 0 0 0 0 0 0 0 0 0 0 0.25 0"/>
<feBlend mode="normal" in2="BackgroundImageFix" result="effect1_dropShadow_123_25"/>
<feBlend mode="normal" in="SourceGraphic" in2="effect1_dropShadow_123_25" result="shape"/>
</filter>
</defs>
</svg>
