<svg width="195" height="41" viewBox="0 0 195 41" fill="none" xmlns="http://www.w3.org/2000/svg">
<path d="M51.9661 12.4003H59.4531H61.1858C61.3427 12.4003 61.4924 12.4074 61.635 12.4217C61.7776 12.436 61.8846 12.4859 61.9559 12.5714C62.0129 12.6427 62.0486 12.7426 62.0628 12.8709C62.0914 12.985 62.1056 13.1205 62.1056 13.2773C62.1056 13.42 62.0985 13.5697 62.0842 13.7266C62.0842 13.8692 62.0842 14.0046 62.0842 14.133C62.0842 14.2328 62.0842 14.3326 62.0842 14.4325C62.0985 14.5323 62.0985 14.625 62.0842 14.7106C62.0557 14.7819 62.0272 14.8532 61.9987 14.9245C61.9844 14.9815 61.9488 15.0314 61.8917 15.0742C61.7776 15.1598 61.578 15.2026 61.2928 15.2026C61.0218 15.1883 60.7865 15.1812 60.5868 15.1812H56.4583C56.2301 15.1812 55.9521 15.1812 55.6241 15.1812C55.3103 15.1669 55.0821 15.2026 54.9395 15.2881C54.854 15.3452 54.7827 15.4521 54.7256 15.609C54.6971 15.7088 54.6828 15.8372 54.6828 15.994C54.6971 16.1509 54.7042 16.2864 54.7042 16.4005V17.4273C54.7042 17.4986 54.6971 17.5841 54.6828 17.684C54.6828 17.7838 54.69 17.8693 54.7042 17.9406V18.176C54.7328 18.3043 54.7613 18.4113 54.7898 18.4968C54.8326 18.5824 54.911 18.6466 55.0251 18.6893C55.0964 18.7179 55.182 18.7393 55.2818 18.7535C55.3816 18.7535 55.4886 18.7535 55.6027 18.7535H56.4155H59.3889C59.503 18.7535 59.6314 18.7535 59.774 18.7535C59.9308 18.7393 60.0806 18.7393 60.2232 18.7535C60.3801 18.7535 60.5155 18.7606 60.6296 18.7749C60.758 18.7892 60.8507 18.8177 60.9077 18.8605C61.0503 18.9603 61.1145 19.1528 61.1002 19.438C61.1002 19.709 61.1002 19.9586 61.1002 20.1867C61.1002 20.3008 61.1002 20.4292 61.1002 20.5718C61.1145 20.7001 61.1074 20.8213 61.0788 20.9354C61.0218 21.0923 60.9434 21.1993 60.8435 21.2563C60.7437 21.3133 60.5512 21.3419 60.266 21.3419C59.9808 21.3276 59.7454 21.3205 59.5601 21.3205H56.0519C55.7809 21.3205 55.5171 21.3276 55.2604 21.3419C55.0037 21.3561 54.8397 21.456 54.7684 21.6413C54.7399 21.6841 54.7256 21.734 54.7256 21.7911C54.7256 21.8339 54.7185 21.8766 54.7042 21.9194V22.1333V22.4542V23.0318V26.048C54.7042 26.2476 54.7042 26.4972 54.7042 26.7966C54.7185 27.0819 54.69 27.2886 54.6187 27.417C54.5759 27.4883 54.5188 27.5382 54.4475 27.5667C54.3762 27.581 54.3049 27.6024 54.2336 27.6309C54.1338 27.6594 54.0268 27.6666 53.9128 27.6523C53.7987 27.638 53.6846 27.6309 53.5705 27.6309H52.3298C52.1729 27.6309 52.0232 27.6309 51.8806 27.6309C51.7522 27.6166 51.6453 27.5739 51.5597 27.5026C51.4599 27.4313 51.4028 27.3243 51.3886 27.1817C51.3886 27.0248 51.3886 26.868 51.3886 26.7111V24.8714V17.0422V13.9191C51.3886 13.7194 51.3814 13.4841 51.3672 13.2132C51.3672 12.9422 51.4028 12.7497 51.4741 12.6356C51.5312 12.5358 51.6381 12.4645 51.795 12.4217C51.8235 12.4074 51.8521 12.4074 51.8806 12.4217C51.9091 12.4217 51.9376 12.4146 51.9661 12.4003ZM64.2185 12.3789H65.7801C65.9227 12.3789 66.0582 12.386 66.1865 12.4003C66.3149 12.4146 66.4147 12.4573 66.486 12.5286C66.5716 12.6285 66.6144 12.764 66.6144 12.9351C66.6286 13.092 66.6358 13.256 66.6358 13.4271V15.3309V23.0104V26.2833C66.6358 26.4544 66.6358 26.654 66.6358 26.8822C66.65 27.0961 66.6215 27.2601 66.5502 27.3742C66.4789 27.4883 66.3505 27.5667 66.1652 27.6095C66.0796 27.638 65.9798 27.6452 65.8657 27.6309C65.7659 27.6166 65.666 27.6095 65.5662 27.6095H64.5394C64.3825 27.6095 64.2399 27.6024 64.1116 27.5881C63.9832 27.5739 63.8763 27.5311 63.7907 27.4598C63.7052 27.3885 63.6552 27.2815 63.641 27.1389C63.641 26.982 63.641 26.8252 63.641 26.6683V24.7645V16.7427V13.8335C63.641 13.6481 63.6339 13.4271 63.6196 13.1704C63.6196 12.9137 63.6552 12.7283 63.7265 12.6142C63.7551 12.5572 63.7907 12.5144 63.8335 12.4859C63.8905 12.4573 63.9476 12.4288 64.0046 12.4003C64.0332 12.4003 64.0688 12.4003 64.1116 12.4003C64.1544 12.386 64.19 12.3789 64.2185 12.3789ZM79.2954 22.005C79.3239 22.1191 79.3239 22.2474 79.2954 22.39C79.2669 22.5326 79.217 22.6253 79.1457 22.6681C79.0744 22.7252 78.9674 22.7679 78.8248 22.7965C78.6965 22.8107 78.5467 22.825 78.3756 22.8393C78.2187 22.8393 78.0547 22.8393 77.8836 22.8393C77.7267 22.825 77.5841 22.8179 77.4558 22.8179H72.2363C72.1364 22.8179 72.0366 22.8179 71.9368 22.8179C71.8512 22.8179 71.7728 22.8321 71.7015 22.8606C71.5874 22.9177 71.5161 22.9747 71.4876 23.0318C71.4591 23.0603 71.4305 23.1173 71.402 23.2029C71.3735 23.2742 71.3664 23.3455 71.3806 23.4168C71.4091 23.5024 71.4234 23.5879 71.4234 23.6735C71.4377 23.7448 71.4591 23.8233 71.4876 23.9088C71.6017 24.2511 71.7371 24.5363 71.894 24.7645C72.0651 24.9784 72.2933 25.1709 72.5785 25.342C72.6926 25.4133 72.8067 25.4633 72.9208 25.4918C73.0491 25.506 73.1775 25.5346 73.3058 25.5773C73.4199 25.6059 73.5768 25.6273 73.7765 25.6415C73.9761 25.6558 74.1472 25.6486 74.2898 25.6201H74.4824C74.625 25.5916 74.7533 25.5631 74.8674 25.5346C74.9958 25.4918 75.117 25.449 75.2311 25.4062C75.3737 25.3349 75.5305 25.2422 75.7017 25.1281C75.8871 25.014 76.0225 24.9 76.1081 24.7859C76.1794 24.686 76.2507 24.5933 76.322 24.5078C76.4076 24.4079 76.5074 24.3366 76.6215 24.2939C76.7641 24.2226 76.9424 24.194 77.1563 24.2083C77.3845 24.2083 77.5912 24.2083 77.7766 24.2083C77.8622 24.2083 77.9478 24.2083 78.0333 24.2083C78.1331 24.194 78.2187 24.2012 78.29 24.2297H78.5039C78.6465 24.2582 78.7464 24.2939 78.8034 24.3366C78.8605 24.3652 78.889 24.4293 78.889 24.5292C78.9032 24.629 78.8961 24.7146 78.8676 24.7859C78.7963 24.9855 78.7178 25.1638 78.6323 25.3206C78.5467 25.4775 78.4469 25.6344 78.3328 25.7913C78.0191 26.2619 77.6625 26.6398 77.2632 26.925C76.8639 27.2102 76.3648 27.4526 75.7658 27.6523C75.609 27.7093 75.4521 27.745 75.2952 27.7593C75.1384 27.7735 74.9744 27.802 74.8032 27.8448C74.7462 27.8591 74.682 27.8591 74.6107 27.8448C74.5537 27.8448 74.4966 27.8519 74.4396 27.8662H74.2043C74.133 27.8947 74.0474 27.9019 73.9476 27.8876C73.862 27.8876 73.7836 27.8805 73.7123 27.8662C73.5982 27.8519 73.4984 27.8519 73.4128 27.8662C73.3272 27.8805 73.2345 27.8733 73.1347 27.8448C73.0634 27.8163 72.985 27.802 72.8994 27.802C72.8138 27.802 72.7354 27.7878 72.6641 27.7593C72.5072 27.7307 72.3504 27.6951 72.1935 27.6523C72.0366 27.6238 71.894 27.5739 71.7657 27.5026C71.6088 27.4455 71.4591 27.3956 71.3165 27.3528C71.1881 27.2958 71.0669 27.2316 70.9528 27.1603C70.4965 26.8751 70.09 26.5471 69.7335 26.1763C69.377 25.7913 69.0846 25.3492 68.8564 24.85C68.7851 24.6932 68.7281 24.5363 68.6853 24.3794C68.6425 24.2083 68.5855 24.0372 68.5142 23.866C68.4999 23.809 68.4928 23.7591 68.4928 23.7163C68.4928 23.6593 68.4857 23.6022 68.4714 23.5452C68.4144 23.374 68.3787 23.1886 68.3645 22.989C68.3502 22.7893 68.3359 22.5897 68.3217 22.39C68.3217 22.3187 68.3145 22.2403 68.3003 22.1547C68.3003 22.0692 68.3074 21.9907 68.3217 21.9194V21.6627L68.3858 21.1493C68.4429 20.9069 68.4928 20.6716 68.5356 20.4434C68.5784 20.2153 68.6425 20.0013 68.7281 19.8017C69.3413 18.3186 70.3824 17.2704 71.8512 16.6572C72.0509 16.5716 72.2505 16.5146 72.4502 16.486C72.6641 16.4433 72.8851 16.3933 73.1133 16.3363C73.2274 16.322 73.3344 16.3149 73.4342 16.3149C73.534 16.3149 73.641 16.3078 73.7551 16.2935C74.4824 16.2793 75.1027 16.3648 75.6161 16.5502C76.1438 16.7213 76.6144 16.9495 77.0279 17.2347C77.1563 17.3203 77.2846 17.4201 77.413 17.5342C77.5413 17.634 77.6554 17.741 77.7552 17.8551C77.798 17.9264 77.8551 17.9834 77.9264 18.0262C78.0405 18.1831 78.1474 18.3471 78.2472 18.5182C78.3471 18.6751 78.454 18.8391 78.5681 19.0102C78.6394 19.1386 78.6965 19.274 78.7392 19.4166C78.7963 19.545 78.8533 19.6876 78.9104 19.8445C78.9817 20.0299 79.0387 20.2224 79.0815 20.422C79.1243 20.6217 79.1742 20.8213 79.2312 21.021C79.2598 21.1351 79.2669 21.2634 79.2526 21.406C79.2526 21.5344 79.2669 21.6556 79.2954 21.7697V22.005ZM76.0867 20.7429C76.1865 20.6003 76.1937 20.4292 76.1081 20.2295C76.0368 20.0156 75.9798 19.8587 75.937 19.7589C75.7373 19.3739 75.4735 19.0815 75.1455 18.8819C74.8175 18.6679 74.3611 18.5539 73.7765 18.5396C73.7337 18.5681 73.6838 18.5753 73.6267 18.561C73.5697 18.5467 73.5198 18.5467 73.477 18.561C73.4057 18.5895 73.3272 18.6109 73.2417 18.6252C73.1561 18.6252 73.0777 18.6394 73.0064 18.668C72.3789 18.8676 71.9154 19.2598 71.6159 19.8445C71.5874 19.9015 71.5518 19.9799 71.509 20.0798C71.4805 20.1653 71.4591 20.258 71.4448 20.3579C71.4305 20.4434 71.4305 20.529 71.4448 20.6146C71.4733 20.7001 71.5232 20.7714 71.5945 20.8285C71.7086 20.8998 71.8655 20.9354 72.0651 20.9354C72.2648 20.9354 72.4573 20.9354 72.6427 20.9354H75.0171C75.2168 20.9354 75.4236 20.9354 75.6375 20.9354C75.8657 20.9212 76.0154 20.857 76.0867 20.7429ZM91.3645 22.005C91.393 22.1191 91.393 22.2474 91.3645 22.39C91.336 22.5326 91.286 22.6253 91.2147 22.6681C91.1434 22.7252 91.0365 22.7679 90.8939 22.7965C90.7655 22.8107 90.6158 22.825 90.4446 22.8393C90.2878 22.8393 90.1238 22.8393 89.9526 22.8393C89.7958 22.825 89.6532 22.8179 89.5248 22.8179H84.3056C84.2058 22.8179 84.106 22.8179 84.0061 22.8179C83.9206 22.8179 83.8421 22.8321 83.7708 22.8606C83.6567 22.9177 83.5854 22.9747 83.5569 23.0318C83.5284 23.0603 83.4999 23.1173 83.4713 23.2029C83.4428 23.2742 83.4357 23.3455 83.45 23.4168C83.4785 23.5024 83.4927 23.5879 83.4927 23.6735C83.507 23.7448 83.5284 23.8233 83.5569 23.9088C83.671 24.2511 83.8065 24.5363 83.9633 24.7645C84.1345 24.9784 84.3626 25.1709 84.6479 25.342C84.762 25.4133 84.876 25.4633 84.9901 25.4918C85.1185 25.506 85.2468 25.5346 85.3752 25.5773C85.4893 25.6059 85.6461 25.6273 85.8458 25.6415C86.0454 25.6558 86.2166 25.6486 86.3592 25.6201H86.5517C86.6943 25.5916 86.8227 25.5631 86.9367 25.5346C87.0651 25.4918 87.1863 25.449 87.3004 25.4062C87.443 25.3349 87.5999 25.2422 87.771 25.1281C87.9564 25.014 88.0919 24.9 88.1774 24.7859C88.2487 24.686 88.32 24.5933 88.3913 24.5078C88.4769 24.4079 88.5767 24.3366 88.6908 24.2939C88.8334 24.2226 89.0117 24.194 89.2253 24.2083C89.4535 24.2083 89.6603 24.2083 89.8457 24.2083C89.9313 24.2083 90.0168 24.2083 90.1024 24.2083C90.2022 24.194 90.2878 24.2012 90.3591 24.2297H90.573C90.7156 24.2582 90.8154 24.2939 90.8725 24.3366C90.9295 24.3652 90.958 24.4293 90.958 24.5292C90.9723 24.629 90.9652 24.7146 90.9366 24.7859C90.8653 24.9855 90.7869 25.1638 90.7013 25.3206C90.6158 25.4775 90.516 25.6344 90.4019 25.7913C90.0881 26.2619 89.7316 26.6398 89.3323 26.925C88.9333 27.2102 88.4341 27.4526 87.8352 27.6523C87.6783 27.7093 87.5214 27.745 87.3646 27.7593C87.2077 27.7735 87.0437 27.802 86.8726 27.8448C86.8155 27.8591 86.7513 27.8591 86.68 27.8448C86.623 27.8448 86.566 27.8519 86.5089 27.8662H86.2736C86.2023 27.8947 86.1167 27.9019 86.0169 27.8876C85.9313 27.8876 85.8529 27.8805 85.7816 27.8662C85.6675 27.8519 85.5677 27.8519 85.4821 27.8662C85.3966 27.8805 85.3039 27.8733 85.204 27.8448C85.1327 27.8163 85.0543 27.802 84.9687 27.802C84.8832 27.802 84.8047 27.7878 84.7334 27.7593C84.5766 27.7307 84.4197 27.6951 84.2628 27.6523C84.106 27.6238 83.9634 27.5739 83.835 27.5026C83.6781 27.4455 83.5284 27.3956 83.3858 27.3528C83.2574 27.2958 83.1362 27.2316 83.0221 27.1603C82.5658 26.8751 82.1593 26.5471 81.8028 26.1763C81.4463 25.7913 81.154 25.3492 80.9258 24.85C80.8545 24.6932 80.7974 24.5363 80.7547 24.3794C80.7119 24.2083 80.6548 24.0372 80.5835 23.866C80.5693 23.809 80.5621 23.7591 80.5621 23.7163C80.5621 23.6593 80.555 23.6022 80.5407 23.5452C80.4837 23.374 80.448 23.1886 80.4338 22.989C80.4195 22.7893 80.4053 22.5897 80.391 22.39C80.391 22.3187 80.3839 22.2403 80.3696 22.1547C80.3696 22.0692 80.3767 21.9907 80.391 21.9194V21.6627L80.4552 21.1493C80.5122 20.9069 80.5621 20.6716 80.6049 20.4434C80.6477 20.2153 80.7119 20.0013 80.7974 19.8017C81.4107 18.3186 82.4517 17.2704 83.9206 16.6572C84.1202 16.5716 84.3199 16.5146 84.5195 16.486C84.7334 16.4433 84.9545 16.3933 85.1826 16.3363C85.2967 16.322 85.4037 16.3149 85.5035 16.3149C85.6033 16.3149 85.7103 16.3078 85.8244 16.2935C86.5517 16.2793 87.172 16.3648 87.6854 16.5502C88.2131 16.7213 88.6837 16.9495 89.0973 17.2347C89.2253 17.3203 89.3537 17.4201 89.482 17.5342C89.6104 17.634 89.7245 17.741 89.8243 17.8551C89.8671 17.9264 89.9241 17.9834 89.9954 18.0262C90.1095 18.1831 90.2165 18.3471 90.3163 18.5182C90.4161 18.6751 90.5231 18.8391 90.6372 19.0102C90.7085 19.1386 90.7655 19.274 90.8083 19.4166C90.8653 19.545 90.9224 19.6876 90.9794 19.8445C91.0507 20.0299 91.1078 20.2224 91.1506 20.422C91.1933 20.6217 91.2433 20.8213 91.3003 21.021C91.3288 21.1351 91.3359 21.2634 91.3217 21.406C91.3217 21.5344 91.336 21.6556 91.3645 21.7697V22.005ZM88.156 20.7429C88.2559 20.6003 88.263 20.4292 88.1774 20.2295C88.1061 20.0156 88.0491 19.8587 88.0063 19.7589C87.8067 19.3739 87.5428 19.0815 87.2148 18.8819C86.8868 18.6679 86.4305 18.5539 85.8458 18.5396C85.803 18.5681 85.7531 18.5753 85.696 18.561C85.639 18.5467 85.5891 18.5467 85.5463 18.561C85.475 18.5895 85.3966 18.6109 85.311 18.6252C85.2254 18.6252 85.147 18.6394 85.0757 18.668C84.4482 18.8676 83.9847 19.2598 83.6853 19.8445C83.6567 19.9015 83.6211 19.9799 83.5783 20.0798C83.5498 20.1653 83.5284 20.258 83.5141 20.3579C83.4999 20.4434 83.4999 20.529 83.5141 20.6146C83.5427 20.7001 83.5926 20.7714 83.6639 20.8285C83.778 20.8998 83.9348 20.9354 84.1345 20.9354C84.3341 20.9354 84.5266 20.9354 84.712 20.9354H87.0865C87.2861 20.9354 87.4929 20.9354 87.7068 20.9354C87.935 20.9212 88.0847 20.857 88.156 20.7429ZM94.4288 13.2987H95.862C96.0759 13.2987 96.2613 13.313 96.4182 13.3415C96.5893 13.3558 96.7105 13.4413 96.7818 13.5982C96.8103 13.6695 96.8246 13.7551 96.8246 13.8549C96.8246 13.9547 96.8246 14.0546 96.8246 14.1544V15.117C96.8246 15.1883 96.8175 15.2739 96.8032 15.3737C96.8032 15.4593 96.8103 15.5377 96.8246 15.609V15.8443C96.8246 15.9584 96.8317 16.0653 96.846 16.1652C96.8603 16.2507 96.8959 16.3292 96.953 16.4005C97.0528 16.5288 97.231 16.6001 97.4877 16.6144C97.7587 16.6144 98.0154 16.6144 98.2578 16.6144C98.3434 16.6144 98.4289 16.6144 98.5145 16.6144C98.6001 16.6144 98.6785 16.6286 98.7498 16.6572C98.9067 16.7285 98.9923 16.8568 99.0065 17.0422C99.035 17.2276 99.0493 17.4344 99.0493 17.6626C99.0493 17.7624 99.0493 17.8622 99.0493 17.962C99.0636 18.0619 99.0564 18.1474 99.0279 18.2187C98.9566 18.4469 98.8069 18.5681 98.5787 18.5824C98.3505 18.5966 98.0938 18.6038 97.8086 18.6038C97.7516 18.6038 97.6874 18.6038 97.6161 18.6038C97.559 18.5895 97.5091 18.5895 97.4663 18.6038C97.4093 18.618 97.3594 18.6252 97.3166 18.6252C97.2738 18.6109 97.231 18.618 97.1883 18.6466C97.0742 18.6751 96.9886 18.7393 96.9316 18.8391C96.8888 18.9246 96.8531 19.0316 96.8246 19.16C96.8103 19.2313 96.8103 19.3097 96.8246 19.3953C96.8389 19.4808 96.8389 19.5593 96.8246 19.6306V20.9568V23.4596C96.8246 23.8161 96.8317 24.1299 96.846 24.4008C96.8745 24.6575 96.9672 24.8857 97.1241 25.0853C97.1954 25.1709 97.2881 25.2351 97.4022 25.2779C97.5305 25.3064 97.6589 25.3349 97.7872 25.3634C97.83 25.3777 97.8728 25.3848 97.9156 25.3848C97.9726 25.3706 98.0154 25.3706 98.0439 25.3848H98.2792C98.4361 25.3848 98.5716 25.3919 98.6856 25.4062C98.7997 25.4205 98.8924 25.4775 98.9637 25.5773C99.0208 25.6629 99.0493 25.777 99.0493 25.9196C99.0493 26.0479 99.0493 26.1834 99.0493 26.326C99.0493 26.6255 99.0422 26.9036 99.0279 27.1603C99.0279 27.4027 98.9138 27.5667 98.6856 27.6523C98.6143 27.6808 98.5502 27.6879 98.4931 27.6737C98.4361 27.6737 98.3719 27.6879 98.3006 27.7165H98.0867C98.0582 27.7165 98.0154 27.7093 97.9583 27.6951C97.9013 27.6951 97.8514 27.7022 97.8086 27.7165C97.7373 27.7307 97.6589 27.7307 97.5733 27.7165C97.502 27.7165 97.4307 27.7165 97.3594 27.7165C97.2881 27.7165 97.2168 27.7165 97.1455 27.7165C97.0742 27.7307 97.01 27.7307 96.953 27.7165H96.7176C96.6463 27.7022 96.5679 27.6951 96.4823 27.6951C96.3968 27.6951 96.3183 27.6879 96.247 27.6737C96.1472 27.6594 96.0545 27.6452 95.9689 27.6309C95.8834 27.6166 95.7978 27.6024 95.7123 27.5881C95.5554 27.5453 95.4056 27.4954 95.263 27.4384C95.1204 27.3813 94.985 27.3172 94.8566 27.2459C94.8138 27.2173 94.771 27.1888 94.7283 27.1603C94.6855 27.1175 94.6356 27.0747 94.5785 27.0319C94.55 27.0034 94.5143 26.9749 94.4716 26.9464C94.4288 26.9036 94.3931 26.8679 94.3646 26.8394C94.165 26.5685 94.0152 26.269 93.9154 25.941C93.8869 25.8839 93.8726 25.834 93.8726 25.7913C93.8869 25.7342 93.8869 25.67 93.8726 25.5987C93.8583 25.5702 93.8512 25.5346 93.8512 25.4918C93.8512 25.449 93.8441 25.4133 93.8298 25.3848V25.1709C93.8156 25.1139 93.8084 25.0497 93.8084 24.9784C93.8227 24.9071 93.8298 24.8358 93.8298 24.7645V23.9516V20.7643V19.6306C93.8298 19.5307 93.8298 19.4309 93.8298 19.3311C93.8441 19.2313 93.837 19.1386 93.8084 19.053C93.7514 18.8533 93.6516 18.725 93.509 18.668C93.3521 18.5966 93.1524 18.5753 92.91 18.6038C92.6676 18.6323 92.4608 18.6109 92.2896 18.5396C92.1756 18.4968 92.1043 18.4326 92.0757 18.3471C92.0472 18.2615 92.0187 18.1546 91.9902 18.0262V17.577C91.9902 17.3203 92.0044 17.1135 92.033 16.9566C92.0615 16.7998 92.1827 16.6928 92.3966 16.6358C92.4536 16.6073 92.5107 16.6001 92.5677 16.6144C92.6248 16.6144 92.6889 16.6144 92.7603 16.6144C92.9742 16.6144 93.1738 16.6073 93.3592 16.593C93.5446 16.5645 93.673 16.4789 93.7443 16.3363C93.787 16.2365 93.8084 16.1224 93.8084 15.994C93.8227 15.8657 93.8298 15.7373 93.8298 15.609V14.2827C93.8298 14.1686 93.8298 14.0474 93.8298 13.9191C93.8298 13.7907 93.8441 13.6838 93.8726 13.5982C93.9439 13.4556 94.0509 13.3629 94.1935 13.3201C94.222 13.3059 94.2576 13.3059 94.3004 13.3201C94.3575 13.3201 94.4003 13.313 94.4288 13.2987ZM106.961 12.3789H109.764C109.992 12.3789 110.22 12.3789 110.448 12.3789C110.691 12.3789 110.876 12.4288 111.004 12.5286C111.104 12.5999 111.175 12.7069 111.218 12.8495C111.261 12.9779 111.304 13.1062 111.347 13.2346C111.432 13.4627 111.511 13.698 111.582 13.9405C111.667 14.1686 111.753 14.4039 111.839 14.6464C112.167 15.5448 112.473 16.4575 112.758 17.3845C113.058 18.3114 113.379 19.2313 113.721 20.144C113.835 20.4292 113.935 20.7215 114.021 21.021C114.106 21.3205 114.206 21.6128 114.32 21.898C114.349 21.9693 114.377 22.0406 114.406 22.112C114.434 22.1833 114.484 22.2403 114.555 22.2831C114.584 22.2973 114.612 22.3116 114.641 22.3259C114.669 22.3401 114.698 22.333 114.726 22.3045C114.841 22.2759 114.919 22.1904 114.962 22.0478C115.005 21.9052 115.047 21.7768 115.09 21.6627C115.204 21.3347 115.304 21.0139 115.39 20.7001C115.489 20.3721 115.596 20.0441 115.71 19.7161C115.996 18.8462 116.281 17.9763 116.566 17.1064C116.851 16.2222 117.137 15.338 117.422 14.4539C117.493 14.2257 117.564 14.0046 117.636 13.7907C117.707 13.5626 117.778 13.3344 117.85 13.1062C117.892 12.9921 117.935 12.878 117.978 12.7639C118.021 12.6499 118.099 12.5572 118.213 12.4859C118.299 12.4146 118.406 12.3789 118.534 12.3789C118.677 12.3789 118.819 12.3789 118.962 12.3789H120.352H121.828C121.957 12.3789 122.085 12.3789 122.213 12.3789C122.356 12.3789 122.463 12.4074 122.534 12.4645C122.691 12.55 122.77 12.714 122.77 12.9565C122.77 13.1846 122.77 13.42 122.77 13.6624V16.8711V24.8286V26.6897C122.77 26.8466 122.762 27.0034 122.748 27.1603C122.748 27.3029 122.705 27.4099 122.62 27.4812C122.534 27.5525 122.427 27.5953 122.299 27.6095C122.171 27.6095 122.028 27.6095 121.871 27.6095H120.844H120.267C120.153 27.581 120.053 27.5596 119.967 27.5453C119.896 27.5311 119.832 27.4812 119.775 27.3956C119.718 27.3243 119.689 27.2316 119.689 27.1175C119.689 27.0034 119.689 26.8822 119.689 26.7539V25.6629V20.1653C119.675 19.9657 119.668 19.7803 119.668 19.6092C119.668 19.4238 119.668 19.2384 119.668 19.053C119.668 18.9389 119.668 18.8248 119.668 18.7107C119.682 18.5824 119.675 18.4612 119.646 18.3471C119.618 18.2473 119.604 18.1403 119.604 18.0262C119.604 17.9121 119.561 17.8408 119.475 17.8123C119.433 17.798 119.397 17.8052 119.368 17.8337C119.354 17.8622 119.34 17.8836 119.326 17.8979C119.269 17.9549 119.219 18.0262 119.176 18.1118C119.147 18.1831 119.119 18.2544 119.09 18.3257C119.005 18.5396 118.919 18.7606 118.834 18.9888C118.762 19.217 118.684 19.4452 118.598 19.6733C118.57 19.7589 118.541 19.8445 118.513 19.93C118.498 20.0156 118.47 20.1012 118.427 20.1867C118.356 20.3721 118.292 20.5575 118.235 20.7429C118.178 20.9283 118.113 21.1137 118.042 21.2991C118.014 21.3419 117.999 21.3918 117.999 21.4488C117.999 21.4916 117.985 21.5344 117.957 21.5772C117.899 21.7055 117.85 21.841 117.807 21.9836C117.778 22.1262 117.728 22.2688 117.657 22.4114C117.6 22.5398 117.55 22.6753 117.507 22.8179C117.479 22.9605 117.436 23.1031 117.379 23.2457C117.208 23.6593 117.058 24.0799 116.93 24.5078C116.801 24.9213 116.659 25.3349 116.502 25.7485C116.473 25.7913 116.459 25.834 116.459 25.8768C116.459 25.9196 116.445 25.9624 116.416 26.0052C116.345 26.162 116.288 26.326 116.245 26.4972C116.202 26.654 116.145 26.8109 116.074 26.9678C116.031 27.0676 115.989 27.1603 115.946 27.2459C115.917 27.3314 115.867 27.4027 115.796 27.4598C115.725 27.5168 115.653 27.5525 115.582 27.5667C115.511 27.5667 115.425 27.581 115.325 27.6095H114.833C114.734 27.6095 114.612 27.6166 114.47 27.6309C114.341 27.6309 114.206 27.6309 114.063 27.6309C113.935 27.6309 113.814 27.6238 113.7 27.6095C113.586 27.5953 113.5 27.5667 113.443 27.5239C113.329 27.4526 113.25 27.3742 113.208 27.2886C113.165 27.1888 113.115 27.0747 113.058 26.9464C112.987 26.7753 112.922 26.6041 112.865 26.433C112.823 26.2476 112.766 26.0693 112.694 25.8982L112.63 25.7057C112.559 25.5346 112.495 25.3563 112.438 25.1709C112.381 24.9713 112.316 24.7859 112.245 24.6147C112.231 24.5719 112.217 24.5363 112.202 24.5078C112.202 24.465 112.195 24.4222 112.181 24.3794C112.11 24.2511 112.053 24.1156 112.01 23.973C111.967 23.8304 111.917 23.6878 111.86 23.5452C111.846 23.5166 111.831 23.481 111.817 23.4382C111.817 23.3954 111.81 23.3598 111.796 23.3313C111.739 23.1886 111.689 23.046 111.646 22.9034C111.618 22.7608 111.568 22.6182 111.496 22.4756C111.382 22.1904 111.275 21.8909 111.175 21.5772C111.076 21.2634 110.969 20.9568 110.855 20.6573C110.726 20.3008 110.605 19.9372 110.491 19.5664C110.377 19.1956 110.241 18.8391 110.085 18.4968C110.013 18.2972 109.935 18.1332 109.849 18.0048C109.821 17.9763 109.792 17.9549 109.764 17.9406C109.735 17.9121 109.699 17.9121 109.657 17.9406C109.585 17.9834 109.55 18.0547 109.55 18.1546C109.55 18.2544 109.535 18.3542 109.507 18.454C109.478 18.5539 109.464 18.6608 109.464 18.7749C109.478 18.8747 109.486 18.9817 109.486 19.0958C109.486 19.2526 109.486 19.4095 109.486 19.5664C109.486 19.7233 109.478 19.8801 109.464 20.037V25.7271V26.7753C109.464 26.8893 109.464 27.0034 109.464 27.1175C109.464 27.2316 109.436 27.3243 109.379 27.3956C109.322 27.4954 109.215 27.5596 109.058 27.5881C108.958 27.6166 108.851 27.6309 108.737 27.6309C108.623 27.6166 108.509 27.6095 108.395 27.6095H107.282C107.125 27.6095 106.983 27.6095 106.854 27.6095C106.726 27.5953 106.619 27.5525 106.534 27.4812C106.448 27.4099 106.398 27.3029 106.384 27.1603C106.37 27.0034 106.362 26.8466 106.362 26.6897V24.8073V16.8497V13.8549C106.362 13.7693 106.362 13.6695 106.362 13.5554C106.362 13.4271 106.362 13.3059 106.362 13.1918C106.362 13.0777 106.37 12.9707 106.384 12.8709C106.398 12.7568 106.419 12.6713 106.448 12.6142C106.505 12.5144 106.619 12.4431 106.79 12.4003C106.819 12.386 106.847 12.386 106.876 12.4003C106.904 12.4003 106.933 12.3932 106.961 12.3789ZM135.224 26.7753C135.252 26.9321 135.267 27.089 135.267 27.2459C135.281 27.4027 135.21 27.5097 135.053 27.5667C134.967 27.6095 134.867 27.6309 134.753 27.6309C134.639 27.6309 134.525 27.6309 134.411 27.6309H133.256C133.127 27.6309 132.999 27.6309 132.871 27.6309C132.757 27.6166 132.664 27.581 132.593 27.5239C132.493 27.4669 132.414 27.3885 132.357 27.2886C132.315 27.1746 132.25 27.0819 132.165 27.0106C132.136 26.982 132.101 26.9606 132.058 26.9464C132.015 26.9179 131.958 26.9107 131.887 26.925C131.815 26.9535 131.744 26.9892 131.673 27.0319C131.616 27.0747 131.552 27.1104 131.48 27.1389C131.409 27.196 131.331 27.2459 131.245 27.2886C131.159 27.3314 131.074 27.3742 130.988 27.417C130.803 27.5026 130.61 27.5739 130.411 27.6309C130.211 27.6737 130.004 27.7236 129.79 27.7806C129.691 27.8092 129.591 27.8234 129.491 27.8234C129.405 27.8377 129.313 27.8519 129.213 27.8662C129.17 27.8662 129.127 27.8662 129.084 27.8662C129.042 27.8805 128.999 27.8876 128.956 27.8876H128.721C128.578 27.9161 128.436 27.9161 128.293 27.8876H128.1C128.001 27.8591 127.901 27.8448 127.801 27.8448C127.715 27.8591 127.63 27.8519 127.544 27.8234C127.402 27.7949 127.266 27.7664 127.138 27.7379C127.01 27.7236 126.888 27.6879 126.774 27.6309C126.361 27.474 126.004 27.2744 125.705 27.0319C125.419 26.7753 125.191 26.4401 125.02 26.0266C124.977 25.9267 124.935 25.8198 124.892 25.7057C124.863 25.5916 124.835 25.4704 124.806 25.342C124.778 25.2707 124.763 25.1994 124.763 25.1281C124.778 25.0568 124.778 24.9855 124.763 24.9142C124.749 24.8714 124.735 24.7859 124.721 24.6575C124.721 24.5149 124.728 24.4151 124.742 24.358C124.771 24.2154 124.785 24.0942 124.785 23.9944C124.828 23.8375 124.87 23.6806 124.913 23.5238C124.956 23.3526 125.013 23.2029 125.084 23.0746C125.327 22.661 125.605 22.3473 125.919 22.1333C126.232 21.9194 126.632 21.734 127.116 21.5772C127.302 21.5059 127.494 21.456 127.694 21.4274C127.894 21.3989 128.093 21.3633 128.293 21.3205C128.407 21.2919 128.528 21.2777 128.657 21.2777C128.785 21.2634 128.913 21.242 129.042 21.2135C129.142 21.185 129.241 21.1779 129.341 21.1921C129.441 21.1921 129.548 21.1779 129.662 21.1493C129.762 21.1208 129.862 21.1066 129.962 21.1066C130.061 21.1066 130.168 21.0923 130.282 21.0638C130.582 20.9925 130.853 20.9354 131.095 20.8926C131.352 20.8356 131.58 20.7073 131.78 20.5076C131.908 20.3793 131.994 20.2366 132.036 20.0798C132.051 20.037 132.051 20.0013 132.036 19.9728C132.036 19.9443 132.044 19.9158 132.058 19.8873C132.072 19.8587 132.079 19.8159 132.079 19.7589C132.079 19.7019 132.079 19.6591 132.079 19.6306C132.065 19.5735 132.051 19.5165 132.036 19.4594C132.036 19.4024 132.029 19.3525 132.015 19.3097C131.872 18.8819 131.573 18.5895 131.117 18.4326C130.988 18.3899 130.831 18.3613 130.646 18.3471C130.475 18.3186 130.297 18.3114 130.111 18.3257C129.926 18.3257 129.748 18.3399 129.576 18.3685C129.405 18.397 129.256 18.4326 129.127 18.4754C129.042 18.504 128.956 18.5467 128.871 18.6038C128.799 18.6466 128.728 18.6965 128.657 18.7535C128.585 18.8106 128.507 18.889 128.421 18.9888C128.35 19.0886 128.3 19.1813 128.272 19.2669C128.2 19.4095 128.136 19.545 128.079 19.6733C128.036 19.8017 127.936 19.8873 127.78 19.93C127.666 19.9586 127.544 19.9728 127.416 19.9728C127.288 19.9728 127.159 19.9728 127.031 19.9728H126.218C126.147 19.9728 126.075 19.9799 126.004 19.9942C125.933 19.9942 125.869 19.9871 125.812 19.9728H125.619C125.591 19.9586 125.555 19.9514 125.512 19.9514C125.469 19.9514 125.434 19.9372 125.405 19.9086C125.291 19.8801 125.213 19.7874 125.17 19.6306C125.156 19.5593 125.156 19.488 125.17 19.4166C125.184 19.3453 125.198 19.2812 125.213 19.2241C125.255 19.0673 125.298 18.9246 125.341 18.7963C125.398 18.6537 125.462 18.5253 125.534 18.4113C125.576 18.34 125.619 18.2686 125.662 18.1973C125.705 18.126 125.747 18.0547 125.79 17.9834C125.904 17.8266 126.047 17.6768 126.218 17.5342C126.247 17.52 126.289 17.4843 126.346 17.4273C126.418 17.3702 126.482 17.3203 126.539 17.2775C126.596 17.2347 126.66 17.1919 126.731 17.1492C126.974 16.9923 127.231 16.8711 127.502 16.7855C127.772 16.6857 128.051 16.593 128.336 16.5074C128.507 16.4646 128.685 16.4361 128.871 16.4219C129.056 16.4076 129.241 16.3791 129.427 16.3363C129.484 16.322 129.569 16.322 129.683 16.3363C129.812 16.3506 129.89 16.3434 129.919 16.3149C130.503 16.3006 131.06 16.322 131.587 16.3791C132.129 16.4361 132.614 16.5431 133.042 16.7C133.484 16.8568 133.862 17.0707 134.176 17.3417C134.489 17.5984 134.732 17.9335 134.903 18.3471C135.003 18.5895 135.06 18.8676 135.074 19.1813C135.088 19.4951 135.095 19.816 135.095 20.144V24.9142C135.095 25.1852 135.095 25.4633 135.095 25.7485C135.095 26.0194 135.124 26.269 135.181 26.4972C135.195 26.54 135.202 26.5899 135.202 26.6469C135.202 26.6897 135.21 26.7325 135.224 26.7753ZM132.079 23.481C132.094 23.4097 132.101 23.3313 132.101 23.2457C132.101 23.1459 132.094 23.0603 132.079 22.989C132.051 22.9034 132.036 22.825 132.036 22.7537C132.036 22.6824 132.008 22.6253 131.951 22.5826C131.88 22.5255 131.773 22.497 131.63 22.497C131.573 22.5113 131.523 22.5255 131.48 22.5398C131.438 22.5398 131.388 22.5469 131.331 22.5612C131.231 22.5897 131.124 22.6111 131.01 22.6253C130.896 22.6396 130.782 22.661 130.667 22.6895C130.625 22.7038 130.56 22.7109 130.475 22.7109C130.29 22.7537 130.104 22.7822 129.919 22.7965C129.733 22.8107 129.555 22.8464 129.384 22.9034C129.27 22.9319 129.163 22.9605 129.063 22.989C128.963 23.0033 128.863 23.0318 128.764 23.0746C128.464 23.2029 128.207 23.3954 127.994 23.6521C127.794 23.9088 127.723 24.2653 127.78 24.7217C127.808 24.9641 127.887 25.1638 128.015 25.3206C128.115 25.4775 128.264 25.6059 128.464 25.7057C128.664 25.7913 128.878 25.8554 129.106 25.8982C129.348 25.941 129.598 25.9553 129.855 25.941C130.126 25.9125 130.375 25.8626 130.603 25.7913C130.974 25.6772 131.266 25.4989 131.48 25.2565C131.694 24.9998 131.858 24.686 131.972 24.3153C132.001 24.2154 132.015 24.1156 132.015 24.0158C132.029 23.9017 132.051 23.7876 132.079 23.6735V23.481ZM143.549 16.3149C144.405 16.2864 145.118 16.4076 145.689 16.6786C146.259 16.9495 146.708 17.3488 147.036 17.8765C147.136 18.0333 147.214 18.2045 147.272 18.3899C147.329 18.561 147.386 18.7393 147.443 18.9246C147.471 19.0387 147.485 19.1457 147.485 19.2455C147.5 19.3453 147.521 19.4452 147.55 19.545C147.55 19.6306 147.557 19.6876 147.571 19.7161C147.6 19.9158 147.614 20.1226 147.614 20.3365C147.614 20.5504 147.614 20.7572 147.614 20.9568V22.8606V26.326C147.614 26.597 147.607 26.8608 147.592 27.1175C147.592 27.3599 147.493 27.5168 147.293 27.5881C147.207 27.6166 147.108 27.6309 146.993 27.6309C146.879 27.6309 146.765 27.6309 146.651 27.6309H145.496C145.325 27.6309 145.168 27.6238 145.025 27.6095C144.897 27.581 144.797 27.5168 144.726 27.417C144.669 27.3314 144.633 27.2245 144.619 27.0961C144.619 26.9535 144.619 26.8038 144.619 26.6469V25.1495V21.9622C144.619 21.4346 144.598 20.9497 144.555 20.5076C144.512 20.0513 144.384 19.6662 144.17 19.3525C143.97 19.0673 143.678 18.8676 143.293 18.7535C143.221 18.725 143.143 18.7107 143.057 18.7107C142.986 18.7107 142.908 18.6965 142.822 18.668C142.751 18.6537 142.658 18.6537 142.544 18.668C142.444 18.668 142.366 18.6751 142.309 18.6893C142.252 18.7036 142.202 18.7107 142.159 18.7107C142.116 18.7107 142.073 18.7179 142.031 18.7321C141.703 18.8177 141.439 18.9318 141.239 19.0744C140.783 19.4024 140.512 19.8801 140.426 20.5076C140.341 21.1351 140.298 21.841 140.298 22.6253V25.2993V26.6041C140.298 26.7325 140.298 26.8608 140.298 26.9892C140.298 27.1175 140.277 27.2245 140.234 27.31C140.162 27.4669 140.048 27.5596 139.892 27.5881C139.735 27.6166 139.542 27.6309 139.314 27.6309H138.244C138.088 27.6309 137.931 27.6238 137.774 27.6095C137.617 27.5953 137.503 27.5453 137.432 27.4598C137.332 27.3314 137.282 27.146 137.282 26.9036C137.296 26.6612 137.303 26.433 137.303 26.2191V23.3099V18.6038V17.5128C137.303 17.356 137.303 17.2133 137.303 17.085C137.317 16.9566 137.36 16.8497 137.432 16.7641C137.46 16.7213 137.503 16.6928 137.56 16.6786C137.631 16.65 137.702 16.6286 137.774 16.6144H137.881C137.952 16.6001 138.023 16.593 138.095 16.593C138.18 16.593 138.259 16.593 138.33 16.593H139.228C139.342 16.593 139.449 16.6001 139.549 16.6144C139.663 16.6144 139.763 16.6286 139.849 16.6572C139.949 16.6999 140.013 16.7641 140.041 16.8497C140.084 16.9353 140.12 17.0351 140.148 17.1492C140.162 17.2062 140.162 17.2561 140.148 17.2989C140.148 17.3417 140.162 17.3845 140.191 17.4273C140.22 17.4986 140.241 17.5413 140.255 17.5556C140.284 17.5699 140.319 17.5913 140.362 17.6198C140.519 17.634 140.647 17.5841 140.747 17.47C140.847 17.3417 140.954 17.2419 141.068 17.1706C141.453 16.8853 141.881 16.6572 142.352 16.486C142.48 16.4433 142.608 16.4147 142.737 16.4005C142.879 16.3862 143.029 16.3648 143.186 16.3363C143.229 16.322 143.293 16.322 143.378 16.3363C143.464 16.3363 143.521 16.3292 143.549 16.3149ZM159.76 26.7753C159.788 26.9321 159.802 27.089 159.802 27.2459C159.817 27.4027 159.745 27.5097 159.588 27.5667C159.503 27.6095 159.403 27.6309 159.289 27.6309C159.175 27.6309 159.061 27.6309 158.947 27.6309H157.792C157.663 27.6309 157.535 27.6309 157.407 27.6309C157.292 27.6166 157.2 27.581 157.128 27.5239C157.029 27.4669 156.95 27.3885 156.893 27.2886C156.85 27.1746 156.786 27.0819 156.701 27.0106C156.672 26.982 156.636 26.9606 156.594 26.9464C156.551 26.9179 156.494 26.9107 156.423 26.925C156.351 26.9535 156.28 26.9892 156.209 27.0319C156.152 27.0747 156.087 27.1104 156.016 27.1389C155.945 27.196 155.866 27.2459 155.781 27.2886C155.695 27.3314 155.61 27.3742 155.524 27.417C155.339 27.5026 155.146 27.5739 154.947 27.6309C154.747 27.6737 154.54 27.7236 154.326 27.7806C154.226 27.8092 154.127 27.8234 154.027 27.8234C153.941 27.8377 153.848 27.8519 153.749 27.8662C153.706 27.8662 153.663 27.8662 153.62 27.8662C153.578 27.8805 153.535 27.8876 153.492 27.8876H153.257C153.114 27.9161 152.971 27.9161 152.829 27.8876H152.636C152.536 27.8591 152.437 27.8448 152.337 27.8448C152.251 27.8591 152.166 27.8519 152.08 27.8234C151.938 27.7949 151.802 27.7664 151.674 27.7379C151.545 27.7236 151.424 27.6879 151.31 27.6309C150.896 27.474 150.54 27.2744 150.24 27.0319C149.955 26.7753 149.727 26.4401 149.556 26.0266C149.513 25.9267 149.47 25.8198 149.428 25.7057C149.399 25.5916 149.371 25.4704 149.342 25.342C149.314 25.2707 149.299 25.1994 149.299 25.1281C149.314 25.0568 149.314 24.9855 149.299 24.9142C149.285 24.8714 149.271 24.7859 149.256 24.6575C149.256 24.5149 149.264 24.4151 149.278 24.358C149.306 24.2154 149.321 24.0942 149.321 23.9944C149.363 23.8375 149.406 23.6806 149.449 23.5238C149.492 23.3526 149.549 23.2029 149.62 23.0746C149.863 22.661 150.141 22.3473 150.454 22.1333C150.768 21.9194 151.167 21.734 151.652 21.5772C151.838 21.5059 152.03 21.456 152.23 21.4274C152.43 21.3989 152.629 21.3633 152.829 21.3205C152.943 21.2919 153.064 21.2777 153.192 21.2777C153.321 21.2634 153.449 21.242 153.578 21.2135C153.677 21.185 153.777 21.1779 153.877 21.1921C153.977 21.1921 154.084 21.1779 154.198 21.1493C154.298 21.1208 154.398 21.1066 154.497 21.1066C154.597 21.1066 154.704 21.0923 154.818 21.0638C155.118 20.9925 155.389 20.9354 155.631 20.8926C155.888 20.8356 156.116 20.7073 156.316 20.5076C156.444 20.3793 156.53 20.2366 156.572 20.0798C156.587 20.037 156.587 20.0013 156.572 19.9728C156.572 19.9443 156.579 19.9158 156.594 19.8873C156.608 19.8587 156.615 19.8159 156.615 19.7589C156.615 19.7019 156.615 19.6591 156.615 19.6306C156.601 19.5735 156.587 19.5165 156.572 19.4594C156.572 19.4024 156.565 19.3525 156.551 19.3097C156.408 18.8819 156.109 18.5895 155.652 18.4326C155.524 18.3899 155.367 18.3613 155.182 18.3471C155.011 18.3186 154.832 18.3114 154.647 18.3257C154.462 18.3257 154.283 18.3399 154.112 18.3685C153.941 18.397 153.791 18.4326 153.663 18.4754C153.578 18.504 153.492 18.5467 153.406 18.6038C153.335 18.6466 153.264 18.6965 153.192 18.7535C153.121 18.8106 153.043 18.889 152.957 18.9888C152.886 19.0886 152.836 19.1813 152.807 19.2669C152.736 19.4095 152.672 19.545 152.615 19.6733C152.572 19.8017 152.472 19.8873 152.315 19.93C152.201 19.9586 152.08 19.9728 151.952 19.9728C151.823 19.9728 151.695 19.9728 151.567 19.9728H150.754C150.683 19.9728 150.611 19.9799 150.54 19.9942C150.469 19.9942 150.404 19.9871 150.347 19.9728H150.155C150.126 19.9586 150.091 19.9514 150.048 19.9514C150.005 19.9514 149.97 19.9372 149.941 19.9086C149.827 19.8801 149.748 19.7874 149.706 19.6306C149.691 19.5593 149.691 19.488 149.706 19.4166C149.72 19.3453 149.734 19.2812 149.748 19.2241C149.791 19.0673 149.834 18.9246 149.877 18.7963C149.934 18.6537 149.998 18.5253 150.069 18.4113C150.112 18.34 150.155 18.2686 150.198 18.1973C150.24 18.126 150.283 18.0547 150.326 17.9834C150.44 17.8266 150.583 17.6768 150.754 17.5342C150.782 17.52 150.825 17.4843 150.882 17.4273C150.954 17.3702 151.018 17.3203 151.075 17.2775C151.132 17.2347 151.196 17.1919 151.267 17.1492C151.51 16.9923 151.766 16.8711 152.037 16.7855C152.308 16.6857 152.586 16.593 152.872 16.5074C153.043 16.4646 153.221 16.4361 153.406 16.4219C153.592 16.4076 153.777 16.3791 153.963 16.3363C154.02 16.322 154.105 16.322 154.219 16.3363C154.348 16.3506 154.426 16.3434 154.455 16.3149C155.039 16.3006 155.595 16.322 156.123 16.3791C156.665 16.4361 157.15 16.5431 157.578 16.7C158.02 16.8568 158.398 17.0707 158.711 17.3417C159.025 17.5984 159.268 17.9335 159.439 18.3471C159.539 18.5895 159.596 18.8676 159.61 19.1813C159.624 19.4951 159.631 19.816 159.631 20.144V24.9142C159.631 25.1852 159.631 25.4633 159.631 25.7485C159.631 26.0194 159.66 26.269 159.717 26.4972C159.731 26.54 159.738 26.5899 159.738 26.6469C159.738 26.6897 159.745 26.7325 159.76 26.7753ZM156.615 23.481C156.629 23.4097 156.636 23.3313 156.636 23.2457C156.636 23.1459 156.629 23.0603 156.615 22.989C156.587 22.9034 156.572 22.825 156.572 22.7537C156.572 22.6824 156.544 22.6253 156.487 22.5826C156.415 22.5255 156.308 22.497 156.166 22.497C156.109 22.5113 156.059 22.5255 156.016 22.5398C155.973 22.5398 155.923 22.5469 155.866 22.5612C155.767 22.5897 155.66 22.6111 155.546 22.6253C155.431 22.6396 155.317 22.661 155.203 22.6895C155.16 22.7038 155.096 22.7109 155.011 22.7109C154.825 22.7537 154.64 22.7822 154.455 22.7965C154.269 22.8107 154.091 22.8464 153.92 22.9034C153.806 22.9319 153.699 22.9605 153.599 22.989C153.499 23.0033 153.399 23.0318 153.299 23.0746C153 23.2029 152.743 23.3954 152.529 23.6521C152.33 23.9088 152.258 24.2653 152.315 24.7217C152.344 24.9641 152.422 25.1638 152.551 25.3206C152.651 25.4775 152.8 25.6059 153 25.7057C153.2 25.7913 153.414 25.8554 153.642 25.8982C153.884 25.941 154.134 25.9553 154.39 25.941C154.661 25.9125 154.911 25.8626 155.139 25.7913C155.51 25.6772 155.802 25.4989 156.016 25.2565C156.23 24.9998 156.394 24.686 156.508 24.3153C156.537 24.2154 156.551 24.1156 156.551 24.0158C156.565 23.9017 156.587 23.7876 156.615 23.6735V23.481ZM172.257 16.7213C172.356 16.7926 172.406 16.9139 172.406 17.085C172.421 17.2419 172.428 17.4059 172.428 17.577V26.7111C172.428 26.8252 172.421 26.9393 172.406 27.0533C172.406 27.1532 172.406 27.2601 172.406 27.3742C172.392 27.4883 172.378 27.5881 172.364 27.6737C172.364 27.7735 172.356 27.8805 172.342 27.9946C172.285 28.1942 172.235 28.3796 172.192 28.5507C172.164 28.7361 172.114 28.9073 172.043 29.0641C171.8 29.606 171.486 30.0553 171.101 30.4118C170.731 30.7683 170.274 31.0606 169.732 31.2888C169.576 31.3601 169.419 31.4172 169.262 31.4599C169.105 31.5027 168.941 31.5455 168.77 31.5883C168.613 31.6311 168.456 31.6596 168.299 31.6739C168.142 31.6881 167.985 31.7095 167.829 31.738C167.772 31.738 167.714 31.738 167.657 31.738C167.6 31.7523 167.536 31.7594 167.465 31.7594C167.408 31.7737 167.344 31.7737 167.272 31.7594C167.201 31.7594 167.13 31.7666 167.058 31.7808C166.987 31.7951 166.894 31.8022 166.78 31.8022C166.666 31.8022 166.574 31.7951 166.502 31.7808C166.431 31.7808 166.367 31.7808 166.31 31.7808C166.253 31.7808 166.196 31.7737 166.139 31.7594C166.025 31.7309 165.903 31.7166 165.775 31.7166C165.661 31.7166 165.554 31.7024 165.454 31.6739C165.426 31.6596 165.39 31.6525 165.347 31.6525C165.304 31.6525 165.269 31.6453 165.24 31.6311C165.098 31.6026 164.955 31.5669 164.812 31.5241C164.684 31.4956 164.556 31.4528 164.427 31.3958C163.885 31.1676 163.401 30.8753 162.973 30.5187C162.545 30.1765 162.231 29.713 162.032 29.1283C162.003 29.0855 161.989 29.0427 161.989 28.9999C161.989 28.9572 161.982 28.9215 161.967 28.893C161.925 28.7076 161.939 28.565 162.01 28.4652C162.096 28.3796 162.21 28.3226 162.352 28.294C162.495 28.2655 162.652 28.2513 162.823 28.2513C163.008 28.2655 163.18 28.2726 163.336 28.2726H164.064C164.135 28.2726 164.192 28.2726 164.235 28.2726C164.292 28.2869 164.356 28.294 164.427 28.294C164.656 28.3511 164.798 28.4224 164.855 28.5079C164.912 28.6078 164.998 28.7361 165.112 28.893C165.155 28.95 165.219 29.0213 165.304 29.1069C165.319 29.1354 165.333 29.1568 165.347 29.1711C165.361 29.1853 165.376 29.2067 165.39 29.2353C165.504 29.3208 165.625 29.3993 165.754 29.4706C165.882 29.5419 166.025 29.606 166.181 29.6631C166.281 29.6916 166.381 29.7059 166.481 29.7059C166.581 29.7201 166.688 29.7415 166.802 29.77H167.037C167.137 29.7986 167.265 29.7986 167.422 29.77C167.579 29.7558 167.7 29.7344 167.786 29.7059C167.857 29.6773 167.914 29.6631 167.957 29.6631C168.014 29.6631 168.071 29.6488 168.128 29.6203C168.428 29.4919 168.677 29.3208 168.877 29.1069C169.076 28.893 169.24 28.6434 169.369 28.3582C169.397 28.2726 169.419 28.1871 169.433 28.1015C169.447 28.0159 169.469 27.9233 169.497 27.8234C169.526 27.6951 169.54 27.5596 169.54 27.417C169.554 27.2601 169.561 27.1033 169.561 26.9464C169.561 26.8893 169.561 26.8323 169.561 26.7753C169.576 26.7182 169.576 26.6683 169.561 26.6255C169.533 26.5542 169.518 26.49 169.518 26.433C169.533 26.3759 169.526 26.3189 169.497 26.2619C169.483 26.2333 169.461 26.2119 169.433 26.1977C169.419 26.1834 169.397 26.162 169.369 26.1335C169.24 26.1193 169.133 26.1478 169.048 26.2191C168.977 26.2904 168.905 26.3546 168.834 26.4116C168.706 26.5114 168.577 26.6041 168.449 26.6897C168.321 26.7753 168.178 26.8537 168.021 26.925C167.864 26.9963 167.707 27.0533 167.55 27.0961C167.394 27.1389 167.23 27.1817 167.058 27.2245C166.973 27.2387 166.887 27.253 166.802 27.2673C166.73 27.2673 166.659 27.2744 166.588 27.2886C166.517 27.3029 166.402 27.31 166.246 27.31C166.089 27.31 165.975 27.3029 165.903 27.2886H165.732C165.689 27.2744 165.64 27.2673 165.582 27.2673C165.54 27.2673 165.49 27.2601 165.433 27.2459C165.233 27.2031 165.041 27.1674 164.855 27.1389C164.67 27.0961 164.499 27.0391 164.342 26.9678C163.729 26.7253 163.229 26.3902 162.844 25.9624C162.474 25.5203 162.16 24.9926 161.903 24.3794C161.832 24.2226 161.782 24.0586 161.753 23.8874C161.725 23.7163 161.682 23.5452 161.625 23.374C161.625 23.3027 161.618 23.2457 161.604 23.2029C161.575 23.0888 161.561 22.9676 161.561 22.8393C161.561 22.6966 161.547 22.5683 161.518 22.4542C161.504 22.3829 161.497 22.3187 161.497 22.2617C161.497 22.1904 161.497 22.1191 161.497 22.0478C161.482 21.9765 161.475 21.8909 161.475 21.7911C161.475 21.677 161.482 21.5843 161.497 21.513V21.2991C161.511 21.242 161.511 21.185 161.497 21.128C161.497 21.0709 161.511 21.0139 161.54 20.9568C161.568 20.8142 161.589 20.6787 161.604 20.5504C161.618 20.4078 161.639 20.2652 161.668 20.1226C161.753 19.8373 161.839 19.5664 161.925 19.3097C162.024 19.053 162.146 18.8106 162.288 18.5824C162.36 18.4398 162.438 18.3114 162.524 18.1973C162.623 18.069 162.723 17.9406 162.823 17.8123C162.866 17.741 162.923 17.6697 162.994 17.5984C163.08 17.5271 163.158 17.4629 163.229 17.4059L163.358 17.2775C163.429 17.2205 163.5 17.1706 163.572 17.1278C163.643 17.0707 163.714 17.0208 163.786 16.978C163.971 16.864 164.164 16.7641 164.363 16.6786C164.563 16.593 164.784 16.5146 165.026 16.4433C165.14 16.4005 165.254 16.3791 165.369 16.3791C165.497 16.3648 165.618 16.3434 165.732 16.3149C165.789 16.3006 165.868 16.3006 165.968 16.3149C166.067 16.3292 166.132 16.322 166.16 16.2935C166.616 16.2793 167.023 16.322 167.379 16.4219C167.75 16.5217 168.078 16.6643 168.363 16.8497C168.406 16.8782 168.449 16.9139 168.492 16.9566C168.534 16.9852 168.584 17.0208 168.641 17.0636C168.727 17.1349 168.805 17.2062 168.877 17.2775C168.948 17.3488 169.034 17.413 169.133 17.47C169.162 17.4843 169.198 17.4986 169.24 17.5128C169.297 17.5271 169.34 17.52 169.369 17.4914C169.44 17.4629 169.483 17.413 169.497 17.3417C169.511 17.2704 169.533 17.1991 169.561 17.1278C169.59 17.0565 169.611 16.9852 169.625 16.9139C169.654 16.8283 169.697 16.757 169.754 16.7C169.839 16.6429 169.939 16.6144 170.053 16.6144C170.182 16.6001 170.31 16.593 170.438 16.593H171.529C171.686 16.593 171.822 16.6001 171.936 16.6144C172.064 16.6144 172.171 16.65 172.257 16.7213ZM169.326 23.3313C169.383 23.2029 169.433 23.0389 169.476 22.8393C169.518 22.6396 169.547 22.4328 169.561 22.2189C169.576 21.9907 169.576 21.7697 169.561 21.5558C169.561 21.3419 169.54 21.1493 169.497 20.9782C169.469 20.9212 169.454 20.8784 169.454 20.8499C169.469 20.8071 169.469 20.7572 169.454 20.7001C169.426 20.6003 169.397 20.5005 169.369 20.4006C169.34 20.3008 169.305 20.2081 169.262 20.1226C169.062 19.6234 168.777 19.2384 168.406 18.9674C168.035 18.6965 167.493 18.561 166.78 18.561C166.752 18.5895 166.709 18.6038 166.652 18.6038C166.609 18.5895 166.566 18.5895 166.524 18.6038C166.424 18.6323 166.331 18.6608 166.246 18.6893C166.16 18.7036 166.074 18.725 165.989 18.7535C165.618 18.9104 165.333 19.1457 165.133 19.4594C164.934 19.7732 164.77 20.1226 164.641 20.5076C164.613 20.5789 164.598 20.636 164.598 20.6787C164.598 20.7215 164.591 20.7786 164.577 20.8499C164.534 21.0067 164.506 21.2349 164.492 21.5344C164.477 21.8339 164.492 22.0763 164.534 22.2617V22.4756C164.563 22.5897 164.584 22.7038 164.598 22.8179C164.613 22.9177 164.634 23.0246 164.663 23.1387C164.791 23.5095 164.948 23.8375 165.133 24.1227C165.319 24.3937 165.575 24.6147 165.903 24.7859C166.046 24.8572 166.246 24.9285 166.502 24.9998C166.602 24.9998 166.681 25.0069 166.738 25.0212C166.766 25.0212 166.809 25.0283 166.866 25.0426C166.923 25.0426 166.966 25.0354 166.994 25.0212H167.208C167.337 24.9926 167.458 24.9713 167.572 24.957C167.686 24.9427 167.8 24.9071 167.914 24.85C168.271 24.7074 168.556 24.5078 168.77 24.2511C168.998 23.9944 169.183 23.6878 169.326 23.3313ZM185.141 22.005C185.17 22.1191 185.17 22.2474 185.141 22.39C185.113 22.5326 185.063 22.6253 184.992 22.6681C184.92 22.7252 184.813 22.7679 184.671 22.7965C184.542 22.8107 184.393 22.825 184.221 22.8393C184.065 22.8393 183.901 22.8393 183.729 22.8393C183.573 22.825 183.43 22.8179 183.302 22.8179H178.082C177.982 22.8179 177.882 22.8179 177.783 22.8179C177.697 22.8179 177.619 22.8321 177.547 22.8606C177.433 22.9177 177.362 22.9747 177.333 23.0318C177.305 23.0603 177.276 23.1173 177.248 23.2029C177.219 23.2742 177.212 23.3455 177.226 23.4168C177.255 23.5024 177.269 23.5879 177.269 23.6735C177.284 23.7448 177.305 23.8233 177.333 23.9088C177.448 24.2511 177.583 24.5363 177.74 24.7645C177.911 24.9784 178.139 25.1709 178.424 25.342C178.538 25.4133 178.653 25.4633 178.767 25.4918C178.895 25.506 179.023 25.5346 179.152 25.5773C179.266 25.6059 179.423 25.6273 179.622 25.6415C179.822 25.6558 179.993 25.6486 180.136 25.6201H180.328C180.471 25.5916 180.599 25.5631 180.713 25.5346C180.842 25.4918 180.963 25.449 181.077 25.4062C181.22 25.3349 181.376 25.2422 181.548 25.1281C181.733 25.014 181.868 24.9 181.954 24.7859C182.025 24.686 182.097 24.5933 182.168 24.5078C182.253 24.4079 182.353 24.3366 182.467 24.2939C182.61 24.2226 182.788 24.194 183.002 24.2083C183.23 24.2083 183.437 24.2083 183.622 24.2083C183.708 24.2083 183.794 24.2083 183.879 24.2083C183.979 24.194 184.065 24.2012 184.136 24.2297H184.35C184.492 24.2582 184.592 24.2939 184.649 24.3366C184.706 24.3652 184.735 24.4293 184.735 24.5292C184.749 24.629 184.742 24.7146 184.713 24.7859C184.642 24.9855 184.564 25.1638 184.478 25.3206C184.393 25.4775 184.293 25.6344 184.179 25.7913C183.865 26.2619 183.508 26.6398 183.109 26.925C182.71 27.2102 182.211 27.4526 181.612 27.6523C181.455 27.7093 181.298 27.745 181.141 27.7593C180.984 27.7735 180.82 27.802 180.649 27.8448C180.592 27.8591 180.528 27.8591 180.457 27.8448C180.4 27.8448 180.342 27.8519 180.285 27.8662H180.05C179.979 27.8947 179.893 27.9019 179.793 27.8876C179.708 27.8876 179.629 27.8805 179.558 27.8662C179.444 27.8519 179.344 27.8519 179.259 27.8662C179.173 27.8805 179.08 27.8733 178.981 27.8448C178.909 27.8163 178.831 27.802 178.745 27.802C178.66 27.802 178.581 27.7878 178.51 27.7593C178.353 27.7307 178.196 27.6951 178.039 27.6523C177.882 27.6238 177.74 27.5739 177.612 27.5026C177.455 27.4455 177.305 27.3956 177.162 27.3528C177.034 27.2958 176.913 27.2316 176.799 27.1603C176.342 26.8751 175.936 26.5471 175.579 26.1763C175.223 25.7913 174.93 25.3492 174.702 24.85C174.631 24.6932 174.574 24.5363 174.531 24.3794C174.488 24.2083 174.431 24.0372 174.36 23.866C174.346 23.809 174.339 23.7591 174.339 23.7163C174.339 23.6593 174.332 23.6022 174.317 23.5452C174.26 23.374 174.225 23.1886 174.21 22.989C174.196 22.7893 174.182 22.5897 174.168 22.39C174.168 22.3187 174.16 22.2403 174.146 22.1547C174.146 22.0692 174.153 21.9907 174.168 21.9194V21.6627L174.232 21.1493C174.289 20.9069 174.339 20.6716 174.381 20.4434C174.424 20.2153 174.488 20.0013 174.574 19.8017C175.187 18.3186 176.228 17.2704 177.697 16.6572C177.897 16.5716 178.096 16.5146 178.296 16.486C178.51 16.4433 178.731 16.3933 178.959 16.3363C179.073 16.322 179.18 16.3149 179.28 16.3149C179.38 16.3149 179.487 16.3078 179.601 16.2935C180.328 16.2793 180.949 16.3648 181.462 16.5502C181.99 16.7213 182.46 16.9495 182.874 17.2347C183.002 17.3203 183.13 17.4201 183.259 17.5342C183.387 17.634 183.501 17.741 183.601 17.8551C183.644 17.9264 183.701 17.9834 183.772 18.0262C183.886 18.1831 183.993 18.3471 184.093 18.5182C184.193 18.6751 184.3 18.8391 184.414 19.0102C184.485 19.1386 184.542 19.274 184.585 19.4166C184.642 19.545 184.699 19.6876 184.756 19.8445C184.828 20.0299 184.885 20.2224 184.927 20.422C184.97 20.6217 185.02 20.8213 185.077 21.021C185.106 21.1351 185.113 21.2634 185.098 21.406C185.098 21.5344 185.113 21.6556 185.141 21.7697V22.005ZM181.933 20.7429C182.032 20.6003 182.04 20.4292 181.954 20.2295C181.883 20.0156 181.826 19.8587 181.783 19.7589C181.583 19.3739 181.319 19.0815 180.991 18.8819C180.663 18.6679 180.207 18.5539 179.622 18.5396C179.58 18.5681 179.53 18.5753 179.473 18.561C179.416 18.5467 179.366 18.5467 179.323 18.561C179.252 18.5895 179.173 18.6109 179.088 18.6252C179.002 18.6252 178.924 18.6394 178.852 18.668C178.225 18.8676 177.761 19.2598 177.462 19.8445C177.433 19.9015 177.398 19.9799 177.355 20.0798C177.326 20.1653 177.305 20.258 177.291 20.3579C177.276 20.4434 177.276 20.529 177.291 20.6146C177.319 20.7001 177.369 20.7714 177.44 20.8285C177.554 20.8998 177.711 20.9354 177.911 20.9354C178.111 20.9354 178.303 20.9354 178.489 20.9354H180.863C181.063 20.9354 181.269 20.9354 181.483 20.9354C181.712 20.9212 181.861 20.857 181.933 20.7429ZM193.018 16.3149C193.175 16.3149 193.31 16.3292 193.424 16.3577C193.553 16.3862 193.652 16.4504 193.724 16.5502C193.809 16.6643 193.852 16.8639 193.852 17.1492C193.852 17.4201 193.852 17.6626 193.852 17.8765C193.852 18.0333 193.852 18.2116 193.852 18.4113C193.866 18.6109 193.845 18.7678 193.788 18.8819C193.731 18.9817 193.645 19.0459 193.531 19.0744C193.431 19.1029 193.31 19.1172 193.167 19.1172C193.039 19.1172 192.897 19.11 192.74 19.0958C192.597 19.0815 192.462 19.0886 192.333 19.1172C192.233 19.1457 192.134 19.1671 192.034 19.1813C191.934 19.1813 191.841 19.1956 191.756 19.2241C191.527 19.2954 191.299 19.4024 191.071 19.545C190.843 19.6733 190.665 19.8231 190.536 19.9942C190.465 20.1083 190.387 20.2295 190.301 20.3579C190.23 20.4719 190.158 20.5932 190.087 20.7215C190.044 20.8356 190.002 20.9568 189.959 21.0852C189.93 21.1993 189.902 21.3133 189.873 21.4274C189.845 21.5273 189.83 21.6342 189.83 21.7483C189.83 21.8481 189.816 21.9479 189.788 22.0478C189.773 22.1048 189.766 22.1619 189.766 22.2189C189.781 22.2617 189.781 22.3045 189.766 22.3473V22.6895C189.738 22.7893 189.731 22.9034 189.745 23.0318C189.759 23.1459 189.766 23.26 189.766 23.374V24.7431V26.5613C189.766 26.7467 189.759 26.9179 189.745 27.0747C189.731 27.2316 189.688 27.36 189.617 27.4598C189.588 27.5026 189.538 27.5382 189.467 27.5667C189.41 27.581 189.346 27.5953 189.274 27.6095H189.167C189.096 27.6238 189.018 27.6309 188.932 27.6309C188.846 27.6309 188.768 27.6309 188.697 27.6309H187.777C187.691 27.6166 187.599 27.6095 187.499 27.6095C187.413 27.6095 187.321 27.6095 187.221 27.6095C187.149 27.581 187.078 27.5596 187.007 27.5453C186.935 27.5168 186.886 27.4669 186.857 27.3956C186.8 27.3243 186.764 27.2245 186.75 27.0961C186.75 26.9535 186.75 26.8109 186.75 26.6683V25.2137V19.1813V17.5984C186.75 17.4558 186.75 17.3203 186.75 17.192C186.75 17.0493 186.779 16.9353 186.836 16.8497C186.907 16.7356 187.014 16.6643 187.157 16.6358C187.299 16.6073 187.47 16.593 187.67 16.593H188.761C188.932 16.593 189.082 16.6073 189.21 16.6358C189.338 16.65 189.438 16.7142 189.51 16.8283C189.552 16.8996 189.574 16.9994 189.574 17.1278C189.588 17.2561 189.602 17.3845 189.617 17.5128C189.631 17.6269 189.652 17.7339 189.681 17.8337C189.723 17.9335 189.795 17.9834 189.895 17.9834C189.923 17.9549 189.952 17.9406 189.98 17.9406C190.009 17.9406 190.037 17.9264 190.066 17.8979C190.151 17.8266 190.223 17.7481 190.28 17.6626C190.351 17.5627 190.437 17.4772 190.536 17.4059C190.593 17.3631 190.643 17.3203 190.686 17.2775C190.729 17.2205 190.779 17.1706 190.836 17.1278C190.964 17.0422 191.093 16.9566 191.221 16.8711C191.363 16.7855 191.506 16.7071 191.649 16.6358C191.791 16.5787 191.934 16.5288 192.077 16.486C192.233 16.4433 192.39 16.4005 192.547 16.3577C192.59 16.3434 192.668 16.3434 192.782 16.3577C192.911 16.3577 192.989 16.3434 193.018 16.3149Z" fill="#2B2B2B"/>
<path d="M31.8889 0H9.11109C4.07917 0 0 4.07917 0 9.11109V31.8889C0 36.9208 4.07917 41 9.11109 41H31.8889C36.9208 41 41 36.9208 41 31.8889V9.11109C41 4.07917 36.9208 0 31.8889 0Z" fill="#2B2B2B"/>
<path d="M29.9552 10.9307L29.8564 11.0452L29.9552 10.947V10.9307Z" fill="#67B8D9"/>
<path d="M10.7005 30.0033C9.61428 28.9064 8.72555 27.7604 8.06723 26.6309C8.05078 26.7127 8.05078 26.7946 8.05078 26.8928C8.05078 27.2202 8.14953 27.5804 8.29765 27.9405C8.64327 28.7754 9.28512 29.6758 10.141 30.5271L10.1574 30.5435C10.7993 31.1819 11.474 31.7059 12.1323 32.0659C12.7906 32.4261 13.4325 32.6554 14.0086 32.5899C12.9059 31.9514 11.7867 31.0837 10.7334 30.036C10.717 30.0196 10.7005 30.0033 10.7005 30.0033Z" fill="#67B8D9"/>
<path d="M20.543 32.6058C20.5594 32.6058 20.5759 32.6058 20.5759 32.6058C20.5923 32.5894 20.5923 32.573 20.6087 32.5566C20.5923 32.573 20.5594 32.5894 20.543 32.6058Z" fill="#67B8D9"/>
<path d="M18.1058 33.3429C17.2664 32.9663 16.4271 32.4916 15.5713 31.9186C15.3902 31.8532 15.2092 31.7877 15.0282 31.7059C13.942 31.2475 12.7734 30.478 11.7036 29.4467C11.6214 29.3648 11.5391 29.2993 11.4567 29.2174C11.4403 29.2011 11.4074 29.1683 11.391 29.152C10.0908 27.8259 9.1856 26.3689 8.74122 25.092C7.9677 23.897 7.35875 22.7182 6.94731 21.5723C6.88147 21.8015 6.81564 22.0307 6.79918 22.2762C6.73335 22.9475 6.8321 23.6841 7.07897 24.4536C7.29292 25.1575 7.62208 25.8778 8.04998 26.6309C8.7083 27.7605 9.59703 28.9228 10.6833 30.0033C10.6998 30.0196 10.6998 30.0196 10.7162 30.036C11.7695 31.0837 12.8886 31.9514 13.9913 32.5899C14.3205 32.7863 14.6497 32.95 14.9623 33.1138C16.3777 33.7849 17.7272 34.0796 18.8629 33.834C18.9451 33.8176 19.011 33.7849 19.0933 33.7685C18.7806 33.6212 18.4514 33.4903 18.1058 33.3429Z" fill="#67B8D9"/>
<path d="M24.2117 31.6396C24.1788 31.6723 24.1459 31.7214 24.1129 31.7705C23.7509 32.1307 23.3064 32.3763 22.7799 32.5236C22.1544 32.7037 21.4139 32.7365 20.5909 32.6218C20.5745 32.6218 20.558 32.6218 20.558 32.6218C19.801 32.5073 18.978 32.2781 18.1223 31.9179C16.3448 31.1812 14.4521 29.9043 12.7241 28.2018C12.6911 28.169 12.6747 28.1527 12.6417 28.1199C12.6253 28.1199 12.6253 28.1035 12.6088 28.0871C10.3376 25.8116 8.85643 23.2414 8.31331 21.064C8.0829 20.0982 8.01707 19.2305 8.14873 18.4939C8.26394 17.7572 8.56019 17.1515 9.02098 16.7094C9.05396 16.6767 9.10334 16.644 9.13623 16.6112C8.92222 15.8418 8.80705 15.0887 8.77413 14.3848C8.29686 14.5812 7.86895 14.8432 7.50688 15.2033C6.84856 15.8418 6.48649 16.7094 6.37128 17.6589C6.25607 18.6248 6.38774 19.6889 6.70043 20.8022C6.78273 21.064 6.86501 21.326 6.96376 21.6043C7.37521 22.7503 7.98415 23.9289 8.75768 25.124C9.58054 26.3682 10.568 27.6124 11.7366 28.8075C11.7695 28.8402 11.8024 28.8893 11.8518 28.922C11.9176 28.9875 11.9834 29.0367 12.0493 29.1022C13.1849 30.2153 14.3863 31.1812 15.5878 31.967C16.4435 32.5236 17.2829 32.9984 18.1223 33.3913C18.4678 33.5386 18.797 33.6696 19.1261 33.8006C20.8213 34.4226 22.4342 34.6519 23.7673 34.3244C24.475 34.1608 25.1169 33.8169 25.6106 33.3258C25.9727 32.9656 26.236 32.54 26.417 32.0652C25.7258 31.9834 24.9687 31.8525 24.2117 31.6396Z" fill="#67B8D9"/>
<path d="M31.9645 26.518C31.7835 26.5835 31.6025 26.649 31.405 26.6982C31.0429 26.78 30.6644 26.8291 30.2694 26.8455C30.1542 27.8441 29.7921 28.679 29.1831 29.2683C28.7388 29.7103 28.1957 30.005 27.5538 30.1851C26.1219 30.5944 24.1635 30.3488 22.0734 29.4648C20.1807 28.679 18.1564 27.3693 16.2966 25.6176C16.0991 25.4376 15.9016 25.2574 15.7041 25.061C15.6054 24.9628 15.5066 24.8482 15.3914 24.7499C12.9392 22.2125 11.3098 19.364 10.7009 16.9083C10.4211 15.7624 10.3388 14.7147 10.487 13.8143C10.6351 12.9139 10.9806 12.1936 11.5403 11.637C11.9846 11.1949 12.5278 10.9002 13.1696 10.7202C13.4165 10.6547 13.6963 10.6056 13.9761 10.5729C13.9761 10.4091 13.9925 10.2291 14.0089 10.0653C14.0583 9.65606 14.1571 9.24677 14.3052 8.88665C13.581 8.85391 12.9063 8.90302 12.2809 9.05033C11.4579 9.26317 10.7174 9.63975 10.1249 10.2291C9.36783 10.9821 8.93991 11.9644 8.79178 13.0776C8.74241 13.4869 8.74241 13.9289 8.75886 14.3709C8.79178 15.0748 8.90699 15.8279 9.12094 16.5973C9.13743 16.6464 9.13743 16.6792 9.15383 16.7283C9.97677 19.6423 11.9846 22.9164 14.9141 25.8469C17.1854 28.106 19.654 29.8249 22.0075 30.8563C22.7481 31.1837 23.4887 31.4457 24.1964 31.6421C24.9699 31.8549 25.7105 31.9859 26.4182 32.0186C27.1259 32.0514 27.8171 32.0022 28.4425 31.8549C29.2655 31.6421 30.0061 31.2655 30.5985 30.6762C31.6519 29.6449 32.0633 28.1715 31.9645 26.518Z" fill="#67B8D9"/>
<path d="M34.0701 20.0823C34.0043 19.8368 33.922 19.5912 33.8233 19.362C33.6916 19.673 33.5105 19.9677 33.2801 20.1969C33.0826 20.3934 32.8687 20.5407 32.6218 20.6553C32.7042 21.2774 32.7206 21.8667 32.6383 22.3906C32.5066 23.1273 32.2269 23.733 31.766 24.175C31.4039 24.5352 30.9596 24.7808 30.4329 24.9281C29.2315 25.2719 27.5693 25.0754 25.7753 24.306C24.0967 23.602 22.3191 22.4397 20.6733 20.8681C20.5417 20.7535 20.41 20.6226 20.2948 20.5079C20.2125 20.4261 20.1303 20.3279 20.048 20.2461C17.9084 18.036 16.493 15.564 15.9828 13.4521C15.7524 12.5026 15.6866 11.6186 15.8183 10.8819C15.9335 10.1452 16.2297 9.53954 16.6905 9.09745C17.0526 8.73733 17.4805 8.49177 18.0237 8.34443C18.649 8.16434 19.4061 8.13161 20.2454 8.26258C20.3607 8.01701 20.5088 7.80419 20.7063 7.60774C20.9531 7.36218 21.2329 7.1821 21.5621 7.06751C19.9163 6.47816 18.3528 6.28171 17.0362 6.59275C16.3285 6.75646 15.6866 7.10024 15.1764 7.59137C14.8143 7.95153 14.5346 8.39354 14.3371 8.8683C14.1889 9.24478 14.0902 9.63776 14.0408 10.047C14.0244 10.2107 14.0244 10.3908 14.0079 10.5545C13.975 11.373 14.1066 12.257 14.3699 13.1902C15.1106 15.7604 16.9209 18.6744 19.5378 21.2938C21.5457 23.291 23.7181 24.8135 25.7918 25.763C27.4046 26.4833 28.9353 26.8762 30.3013 26.8435C30.6962 26.8271 31.0748 26.7944 31.4368 26.6962C31.6343 26.6471 31.8154 26.5979 31.9965 26.516C32.4902 26.3196 32.9181 26.0576 33.2966 25.6811C33.9549 25.0427 34.317 24.175 34.4322 23.2255C34.5145 22.276 34.3828 21.2119 34.0701 20.0823Z" fill="#67B8D9"/>
<path d="M33.7572 16.2997C33.461 15.3502 32.9507 14.3352 32.276 13.3366C32.3912 13.6149 32.457 13.8768 32.4735 14.1224C32.5064 14.4335 32.4241 14.7281 32.2266 14.941C32.1279 15.0392 32.0126 15.1046 31.881 15.1374C32.0291 15.4812 32.1444 15.8086 32.2266 16.1196C32.3912 16.7254 32.4241 17.282 32.3583 17.7404C32.2924 18.1987 32.1114 18.5425 31.8646 18.8044C31.6671 19.0173 31.4037 19.1482 31.0745 19.2464C30.3504 19.4429 29.2971 19.3119 28.1286 18.8208C26.9601 18.3297 25.7092 17.4784 24.5572 16.3325C23.0596 14.8426 22.0721 13.1565 21.71 11.7486C21.5454 11.1428 21.5125 10.5863 21.5783 10.1279C21.6442 9.66952 21.8087 9.32574 22.0885 9.06379C22.3025 8.85097 22.5494 8.72 22.8621 8.62178C23.5533 8.42533 24.5901 8.53992 25.7092 9.01468C25.7422 8.88371 25.808 8.76911 25.9068 8.67089C26.0549 8.52355 26.2853 8.4417 26.5157 8.42533C26.8448 8.40896 27.1905 8.50718 27.569 8.65452C26.993 8.26162 26.4169 7.9342 25.8574 7.67227C24.442 7.00107 23.0925 6.7064 21.9568 6.95195C21.8087 6.9847 21.6607 7.03381 21.5125 7.09929C21.1998 7.23026 20.9036 7.41034 20.6567 7.63953C20.4592 7.83598 20.3111 8.0488 20.1959 8.29436C20.0313 8.62178 19.9161 8.98197 19.8831 9.37485C19.8174 10.046 19.9161 10.7828 20.1629 11.5521C20.7061 13.3038 21.9404 15.2519 23.7014 17.02C23.7179 17.0527 23.7508 17.0691 23.7673 17.1018C23.833 17.1673 23.8989 17.2165 23.9483 17.282C25.2814 18.5753 26.6967 19.5739 28.0463 20.2123C29.4617 20.8836 30.8112 21.1782 31.9469 20.9327C32.1773 20.8836 32.3748 20.8016 32.5887 20.7034C32.8356 20.5889 33.066 20.4252 33.247 20.245C33.4939 19.9995 33.6749 19.7212 33.7902 19.4101C33.9053 19.1319 33.9712 18.8372 34.0041 18.5261C34.1028 17.8058 34.0041 17.0691 33.7572 16.2997Z" fill="#67B8D9"/>
<path d="M32.4747 14.1234C32.4583 13.8779 32.376 13.5995 32.2773 13.3376C32.2443 13.2721 32.2114 13.1902 32.1785 13.1248C31.8164 12.3226 31.1581 11.4386 30.3023 10.5873C29.644 9.93243 28.9692 9.40861 28.3274 9.01572C28.064 8.86836 27.8172 8.7374 27.5703 8.63917C27.2082 8.49184 26.8461 8.39361 26.517 8.40998C26.2866 8.42636 26.0562 8.49184 25.908 8.65555C25.8093 8.75377 25.7435 8.86836 25.7105 8.99932C25.6611 9.14665 25.6611 9.29399 25.6611 9.45772C25.6776 9.76879 25.7929 10.1126 25.9574 10.4563C26.3359 11.2585 26.9778 12.1425 27.8336 12.9938C27.8336 12.9938 27.8501 12.9938 27.8501 13.0102C27.8995 13.0593 27.9324 13.092 27.9817 13.1248C28.5907 13.7141 29.2161 14.2053 29.8085 14.549C30.4505 14.9256 31.0594 15.1712 31.6025 15.1548C31.6847 15.1548 31.7671 15.1384 31.8494 15.1056C31.981 15.0729 32.1127 15.0074 32.1949 14.9092C32.4418 14.7292 32.5077 14.4344 32.4747 14.1234ZM29.9896 10.8819C30.0061 10.8983 29.9896 10.8983 29.9896 10.8819ZM31.1581 13.5504C31.1252 13.5668 31.1088 13.5995 31.0264 13.5995C30.8783 13.6323 30.5162 13.5668 30.0719 13.3213C29.6275 13.092 29.1173 12.7155 28.6236 12.2244C27.9817 11.5859 27.5373 10.8983 27.3563 10.4072C27.274 10.1944 27.2411 10.0143 27.2575 9.89972C27.2575 9.7851 27.2905 9.73598 27.3234 9.70327C27.3563 9.67056 27.3893 9.65416 27.4551 9.65416C27.6032 9.62145 27.9652 9.68687 28.4096 9.93243C28.854 10.1617 29.3642 10.5382 29.8579 11.0294L29.9567 10.9147V10.931L29.8579 11.0294C30.4998 11.6678 30.9442 12.3554 31.1252 12.8465C31.2075 13.0593 31.2404 13.2393 31.2239 13.354C31.2239 13.4686 31.1911 13.5177 31.1581 13.5504Z" fill="#67B8D9"/>
</svg>
