<svg width="181" height="33" viewBox="0 0 181 33" fill="none" xmlns="http://www.w3.org/2000/svg">
<path d="M5.13922 27.7823C3.86173 26.4952 2.81786 25.1335 2.05236 23.7967C2.03744 23.8961 2.03247 24.0004 2.03247 24.1048C2.04241 24.5023 2.15177 24.9148 2.32575 25.3422C2.72838 26.3212 3.47898 27.3798 4.47811 28.3886C4.47811 28.3886 4.48308 28.3886 4.48308 28.3935C4.49302 28.4035 4.49799 28.4085 4.50793 28.4134C5.26846 29.1688 6.06379 29.7801 6.82432 30.2075C7.5948 30.6348 8.34539 30.8982 9.02142 30.8336C9.02142 30.8336 9.02142 30.8336 9.02639 30.8336C7.72901 30.0733 6.41672 29.0545 5.17402 27.822C5.16408 27.8071 5.15413 27.7972 5.13922 27.7823Z" fill="#3A6593"/>
<path d="M13.848 31.733C12.8738 31.2858 11.8746 30.7242 10.8805 30.0633C10.6717 29.9887 10.4579 29.9092 10.2392 29.8148C8.96671 29.2681 7.59973 28.3587 6.33218 27.1411C6.23773 27.0517 6.14329 26.9622 6.04885 26.8678C6.02399 26.8429 5.99914 26.8131 5.97428 26.7883C4.44328 25.2328 3.37953 23.5083 2.8725 21.9926C1.95788 20.5912 1.24705 19.1898 0.759914 17.843C0.67541 18.1064 0.60582 18.3797 0.580966 18.6679C0.506404 19.4581 0.625704 20.3228 0.904068 21.2323C1.15758 22.0572 1.55027 22.917 2.05232 23.7916C2.8228 25.1284 3.86169 26.4901 5.13919 27.7723C5.1541 27.7872 5.16404 27.7971 5.17896 27.8071C6.42166 29.0445 7.73395 30.0583 9.03133 30.8186C9.41408 31.0423 9.79683 31.251 10.1746 31.4299C11.8398 32.2151 13.4255 32.563 14.7577 32.2747C14.7577 32.2747 14.7577 32.2747 14.7627 32.2747C14.8521 32.2549 14.9416 32.225 15.0311 32.2002C14.6334 32.066 14.2407 31.9119 13.848 31.733Z" fill="#5089B3"/>
<path d="M20.9961 29.7204C20.9563 29.77 20.9215 29.8247 20.8768 29.8694C20.4542 30.2869 19.9373 30.5801 19.3159 30.759C18.5902 30.9677 17.7104 31.0025 16.741 30.8683C16.7261 30.8683 16.7112 30.8634 16.6913 30.8584C15.8016 30.7292 14.8372 30.4559 13.8381 30.0334C11.7603 29.1588 9.53339 27.6629 7.51027 25.6502C7.47548 25.6204 7.44565 25.5906 7.41086 25.5558C7.40092 25.5459 7.39097 25.531 7.37606 25.521C4.71668 22.8424 2.96696 19.806 2.33567 17.2268C2.05731 16.0937 1.99269 15.06 2.13684 14.1854C2.28099 13.3107 2.61901 12.61 3.15585 12.0733C3.19562 12.0335 3.2503 11.9987 3.29006 11.959C3.04649 11.0495 2.90731 10.1749 2.86755 9.33502C2.31082 9.55865 1.80379 9.87671 1.37631 10.2991C0.610803 11.0595 0.183316 12.0683 0.0491046 13.2014C-0.085107 14.3295 0.0590414 15.5868 0.441793 16.9137C0.531267 17.2218 0.640627 17.5349 0.754956 17.848C1.24209 19.1947 1.95292 20.5912 2.86755 21.9976C3.82691 23.4636 4.99505 24.9346 6.37196 26.3311C6.4167 26.3758 6.45646 26.4205 6.5012 26.4653C6.57576 26.5398 6.65529 26.6094 6.72986 26.6839C8.067 28.0009 9.47374 29.129 10.8755 30.0583C11.8697 30.7192 12.8688 31.2808 13.8431 31.7281C14.2407 31.907 14.6334 32.066 15.0212 32.2101C17.0144 32.9506 18.8934 33.204 20.4791 32.8264C20.4791 32.8264 20.4841 32.8264 20.489 32.8264C21.3192 32.6226 22.0648 32.23 22.6563 31.6436C23.0788 31.2212 23.387 30.7192 23.6107 30.1676C22.7756 30.1229 21.9007 29.9688 20.9961 29.7204Z" fill="#68A5C4"/>
<path d="M30.1075 23.6873C29.8988 23.7668 29.68 23.8414 29.4564 23.896C29.4564 23.896 29.4564 23.901 29.4514 23.901C29.0239 24.0004 28.5765 24.0551 28.1142 24.065C27.9751 25.2428 27.5525 26.2218 26.8417 26.9225C26.3248 27.4344 25.6835 27.7972 24.923 28.0109C23.2429 28.488 20.9513 28.2047 18.4858 27.171C16.2589 26.2367 13.8978 24.6912 11.7056 22.6338C11.477 22.4151 11.2433 22.2014 11.0197 21.9728C10.8954 21.8486 10.7811 21.7243 10.6568 21.6051C7.7787 18.6034 5.86495 15.2489 5.14418 12.3516C4.80617 11.0049 4.72663 9.76248 4.89564 8.70395C5.06962 7.64542 5.48219 6.78568 6.13834 6.12472C6.6553 5.61285 7.29156 5.25007 8.05707 5.03638C8.35034 4.9519 8.66848 4.9022 9.00152 4.86741C9.00649 4.66366 9.01146 4.46487 9.03631 4.26609C9.09596 3.7741 9.21029 3.30696 9.38427 2.86963C8.5442 2.8249 7.7439 2.87957 6.99828 3.06344C6.02898 3.30696 5.15909 3.76416 4.47312 4.44997C3.58832 5.32959 3.0813 6.49744 2.91726 7.80445C2.85761 8.29147 2.85264 8.80334 2.87749 9.33012C2.91726 10.17 3.05644 11.0446 3.30001 11.9541C3.31492 12.0087 3.32486 12.0584 3.33978 12.1131C4.31405 15.557 6.66524 19.4184 10.11 22.8723C12.7694 25.536 15.6723 27.5537 18.4361 28.7911C19.311 29.1787 20.1659 29.4869 21.006 29.7155C21.9107 29.9639 22.7855 30.118 23.6157 30.1627C24.4557 30.2074 25.2511 30.1528 25.9867 29.9689C25.9917 29.9689 25.9917 29.9689 25.9917 29.9689C26.961 29.7254 27.8259 29.2682 28.5169 28.5824C29.7298 27.3599 30.207 25.6354 30.1075 23.6873Z" fill="#7FB0CC"/>
<path d="M32.5633 16.0938C32.4837 15.8105 32.3843 15.5223 32.2799 15.234C32.1308 15.6068 31.922 15.9447 31.6337 16.228C31.4051 16.4566 31.1416 16.6355 30.8533 16.7746C30.9577 17.5201 30.9627 18.2108 30.8682 18.8171C30.7191 19.6918 30.3861 20.3975 29.8492 20.9292C29.4267 21.3467 28.9097 21.6399 28.2884 21.8188C26.8866 22.2213 24.9281 21.9877 22.8155 21.0932C20.8521 20.2682 18.7643 18.8867 16.8357 17.043C16.6865 16.8989 16.5374 16.7597 16.3883 16.6106C16.2889 16.5112 16.1895 16.4069 16.09 16.3025C13.5798 13.6935 11.9195 10.7763 11.3081 8.28155C11.0298 7.15345 10.9652 6.1148 11.1093 5.24512C11.2535 4.37047 11.5915 3.66975 12.1283 3.13304C12.5459 2.71559 13.0628 2.42238 13.6842 2.24348C14.4199 2.02978 15.3096 1.99997 16.2889 2.14409C16.4281 1.86579 16.602 1.6024 16.8257 1.37877C17.1091 1.0955 17.452 0.886774 17.8249 0.737686C15.8862 0.0369709 14.062 -0.196601 12.521 0.17612C11.6859 0.379874 10.9403 0.767503 10.3488 1.35889C9.91631 1.78627 9.59321 2.29814 9.36953 2.86965C9.19555 3.30697 9.08122 3.77412 9.02157 4.26611C8.99672 4.45992 8.99671 4.66368 8.98677 4.86743C8.95198 5.8365 9.09613 6.88509 9.40929 7.97841C10.2842 11.0198 12.3918 14.4439 15.4637 17.53C17.8199 19.8906 20.3749 21.6846 22.8056 22.7978C24.6895 23.6575 26.5039 24.1098 28.1045 24.065C28.5668 24.0501 29.0191 24.0004 29.4416 23.901C29.4416 23.901 29.4416 23.8961 29.4466 23.8961C29.6703 23.8414 29.884 23.7718 30.0978 23.6873C30.6694 23.4637 31.1864 23.1407 31.6188 22.7133C32.3843 21.9529 32.8118 20.9391 32.946 19.811C33.0902 18.673 32.9411 17.4207 32.5633 16.0938Z" fill="#9AC6DD"/>
<path d="M32.2103 11.6261C31.8624 10.5079 31.2659 9.31521 30.4706 8.12251C30.5948 8.44553 30.6793 8.75862 30.7042 9.05679C30.734 9.42455 30.6545 9.77739 30.4209 10.0159C30.3065 10.1253 30.1624 10.1998 30.0083 10.2445C30.1773 10.6421 30.3115 11.0347 30.4059 11.4025C30.5899 12.123 30.6346 12.7741 30.5551 13.3058C30.4706 13.8425 30.2767 14.25 29.9685 14.5582C29.7299 14.8017 29.4267 14.9657 29.0489 15.07C28.2088 15.3086 26.9612 15.1545 25.5992 14.5631C24.2322 13.9767 22.7559 12.9728 21.4138 11.6211C19.6591 9.8569 18.4959 7.86906 18.0734 6.20921C17.8895 5.48862 17.8398 4.83263 17.9243 4.30088C18.0088 3.76416 18.2026 3.35665 18.5158 3.04854C18.7594 2.80503 19.0526 2.63606 19.4304 2.5317C20.2506 2.29813 21.4585 2.44224 22.7807 2.99884C22.8255 2.84478 22.905 2.70066 23.0144 2.59133C23.1933 2.41243 23.4518 2.32297 23.7302 2.30807C24.1129 2.29316 24.5255 2.40249 24.9579 2.57642C24.2819 2.11922 23.6109 1.73159 22.9497 1.41851C21.2796 0.633307 19.6988 0.280465 18.3667 0.568702C18.1827 0.608459 18.0088 0.668094 17.8398 0.737669C17.4669 0.886757 17.124 1.09548 16.8406 1.37875C16.6169 1.60238 16.443 1.8608 16.3038 2.14407C16.1099 2.5317 15.9857 2.95908 15.9409 3.41629C15.8664 4.20646 15.9857 5.07117 16.269 5.98061C16.9052 8.03802 18.3518 10.339 20.4196 12.4361C20.4494 12.4659 20.4743 12.4958 20.5041 12.5256C20.5737 12.6001 20.6532 12.6647 20.7228 12.7343C22.2787 14.25 23.9439 15.4278 25.5296 16.1832C27.1948 16.9684 28.7855 17.3213 30.1127 17.033H30.1226C30.3861 16.9734 30.6346 16.8839 30.8682 16.7696C31.1565 16.6305 31.42 16.4516 31.6486 16.223C31.932 15.9397 32.1457 15.6018 32.2948 15.229C32.4241 14.9011 32.5136 14.5532 32.5484 14.1854C32.608 13.4052 32.4887 12.5355 32.2103 11.6261Z" fill="#B6D4E3"/>
<path d="M30.7039 9.05697C30.679 8.75879 30.5945 8.4457 30.4703 8.12268C30.4355 8.0382 30.4007 7.95371 30.3659 7.86923C29.9334 6.925 29.163 5.87642 28.1638 4.87256C27.3933 4.10227 26.598 3.47113 25.8425 3.02386C25.5392 2.84495 25.246 2.70084 24.9577 2.58157C24.5252 2.40266 24.1126 2.2983 23.7299 2.31321C23.4515 2.32812 23.193 2.41757 23.0141 2.59647C22.8997 2.71078 22.8252 2.84992 22.7804 3.00398C22.7307 3.17295 22.7158 3.35682 22.7307 3.55064C22.7556 3.92336 22.8848 4.32093 23.0737 4.73341C23.5112 5.6826 24.2767 6.72622 25.2758 7.73505C25.2808 7.74002 25.2857 7.74499 25.2907 7.74996C25.3404 7.79965 25.3951 7.84438 25.4448 7.89408C26.1606 8.58485 26.8913 9.16133 27.5972 9.57877C28.3477 10.026 29.0735 10.3192 29.7097 10.2894H29.7147C29.8191 10.2845 29.9185 10.2646 30.013 10.2397C30.172 10.195 30.3162 10.1205 30.4255 10.0111C30.6492 9.77756 30.7337 9.42472 30.7039 9.05697ZM29.158 8.38607C29.1282 8.41589 29.0884 8.43576 29.0138 8.45067C28.8399 8.48546 28.4173 8.40595 27.8954 8.13262C27.3784 7.86426 26.777 7.41699 26.2004 6.84052C25.4547 6.09508 24.9278 5.28503 24.7191 4.69862C24.6246 4.44517 24.5898 4.24141 24.5948 4.10724C24.5998 3.97306 24.6296 3.91839 24.6644 3.8836C24.6942 3.85379 24.734 3.83391 24.8135 3.819C24.9875 3.78421 25.415 3.86372 25.927 4.14202C26.4489 4.41535 27.0404 4.85268 27.617 5.42418L27.622 5.42915C28.3676 6.17459 28.8945 6.98464 29.1033 7.57105C29.1978 7.8245 29.2325 8.02826 29.2276 8.16244C29.2276 8.29662 29.1977 8.34631 29.158 8.38607Z" fill="#D0E3F3"/>
<path d="M40.176 8.16H48.984V10.812H43.176V14.736H48.564V17.376H43.176V24H40.176V8.16ZM54.0049 24H50.9449V7.488H54.0049V24ZM58.3808 19.752C58.4048 20.2 58.5248 20.6 58.7408 20.952C58.9568 21.304 59.2688 21.58 59.6768 21.78C60.0928 21.98 60.5888 22.08 61.1648 22.08C61.6848 22.08 62.1408 22.016 62.5328 21.888C62.9328 21.76 63.2688 21.604 63.5408 21.42C63.8208 21.228 64.0288 21.044 64.1648 20.868L65.4248 22.74C65.2008 23.02 64.9008 23.28 64.5248 23.52C64.1568 23.752 63.6848 23.936 63.1088 24.072C62.5408 24.216 61.8288 24.288 60.9728 24.288C59.8928 24.288 58.9448 24.076 58.1288 23.652C57.3128 23.228 56.6768 22.616 56.2208 21.816C55.7648 21.016 55.5368 20.064 55.5368 18.96C55.5368 18 55.7408 17.136 56.1488 16.368C56.5568 15.592 57.1488 14.98 57.9248 14.532C58.7088 14.084 59.6488 13.86 60.7448 13.86C61.7768 13.86 62.6688 14.06 63.4208 14.46C64.1808 14.852 64.7688 15.428 65.1848 16.188C65.6008 16.948 65.8088 17.876 65.8088 18.972C65.8088 19.036 65.8048 19.168 65.7968 19.368C65.7968 19.56 65.7888 19.688 65.7728 19.752H58.3808ZM62.9528 17.868C62.9448 17.612 62.8648 17.336 62.7128 17.04C62.5688 16.744 62.3408 16.492 62.0288 16.284C61.7168 16.076 61.3008 15.972 60.7808 15.972C60.2608 15.972 59.8328 16.072 59.4968 16.272C59.1688 16.472 58.9208 16.72 58.7528 17.016C58.5848 17.304 58.4888 17.588 58.4648 17.868H62.9528ZM69.6429 19.752C69.6669 20.2 69.7869 20.6 70.0029 20.952C70.2189 21.304 70.5309 21.58 70.9389 21.78C71.3549 21.98 71.8509 22.08 72.4269 22.08C72.9469 22.08 73.4029 22.016 73.7949 21.888C74.1949 21.76 74.5309 21.604 74.8029 21.42C75.0829 21.228 75.2909 21.044 75.4269 20.868L76.6869 22.74C76.4629 23.02 76.1629 23.28 75.7869 23.52C75.4189 23.752 74.9469 23.936 74.3709 24.072C73.8029 24.216 73.0909 24.288 72.2349 24.288C71.1549 24.288 70.2069 24.076 69.3909 23.652C68.5749 23.228 67.9389 22.616 67.4829 21.816C67.0269 21.016 66.7989 20.064 66.7989 18.96C66.7989 18 67.0029 17.136 67.4109 16.368C67.8189 15.592 68.4109 14.98 69.1869 14.532C69.9709 14.084 70.9109 13.86 72.0069 13.86C73.0389 13.86 73.9309 14.06 74.6829 14.46C75.4429 14.852 76.0309 15.428 76.4469 16.188C76.8629 16.948 77.0709 17.876 77.0709 18.972C77.0709 19.036 77.0669 19.168 77.0589 19.368C77.0589 19.56 77.0509 19.688 77.0349 19.752H69.6429ZM74.2149 17.868C74.2069 17.612 74.1269 17.336 73.9749 17.04C73.8309 16.744 73.6029 16.492 73.2909 16.284C72.9789 16.076 72.5629 15.972 72.0429 15.972C71.5229 15.972 71.0949 16.072 70.7589 16.272C70.4309 16.472 70.1829 16.72 70.0149 17.016C69.8469 17.304 69.7509 17.588 69.7269 17.868H74.2149ZM77.7971 14.148H79.5731V10.104H82.5971V14.148H84.9251V16.68H82.5971V20.244C82.5971 20.716 82.6731 21.084 82.8251 21.348C82.9771 21.604 83.2171 21.732 83.5451 21.732C83.7931 21.732 83.9971 21.684 84.1571 21.588C84.3171 21.484 84.4131 21.412 84.4451 21.372L85.5251 23.556C85.4771 23.604 85.3211 23.688 85.0571 23.808C84.8011 23.928 84.4691 24.036 84.0611 24.132C83.6611 24.236 83.2091 24.288 82.7051 24.288C81.8011 24.288 81.0531 24.028 80.4611 23.508C79.8691 22.98 79.5731 22.164 79.5731 21.06V16.68H77.7971V14.148ZM108.214 8.16V24H105.226V13.86L105.37 11.556L104.83 14.172L101.722 22.872H98.7701L95.6741 14.172L95.1461 11.556L95.2781 13.86V24H92.2781V8.16H96.4301L100.054 19.452L100.246 20.532L100.438 19.452L104.074 8.16H108.214ZM118.512 24V22.284C118.44 22.46 118.256 22.708 117.96 23.028C117.664 23.348 117.264 23.64 116.76 23.904C116.264 24.16 115.68 24.288 115.008 24.288C114.064 24.288 113.228 24.064 112.5 23.616C111.772 23.16 111.2 22.54 110.784 21.756C110.376 20.964 110.172 20.072 110.172 19.08C110.172 18.088 110.376 17.2 110.784 16.416C111.2 15.624 111.772 15 112.5 14.544C113.228 14.088 114.064 13.86 115.008 13.86C115.664 13.86 116.232 13.972 116.712 14.196C117.2 14.412 117.592 14.668 117.888 14.964C118.192 15.252 118.388 15.512 118.476 15.744V14.148H121.5V24H118.512ZM113.16 19.08C113.16 19.632 113.284 20.12 113.532 20.544C113.78 20.96 114.108 21.284 114.516 21.516C114.924 21.748 115.368 21.864 115.848 21.864C116.352 21.864 116.8 21.748 117.192 21.516C117.584 21.276 117.892 20.948 118.116 20.532C118.348 20.108 118.464 19.624 118.464 19.08C118.464 18.536 118.348 18.056 118.116 17.64C117.892 17.216 117.584 16.884 117.192 16.644C116.8 16.404 116.352 16.284 115.848 16.284C115.368 16.284 114.924 16.404 114.516 16.644C114.108 16.876 113.78 17.204 113.532 17.628C113.284 18.044 113.16 18.528 113.16 19.08ZM129.81 13.86C130.482 13.86 131.138 14 131.778 14.28C132.418 14.552 132.942 14.988 133.35 15.588C133.766 16.188 133.974 16.972 133.974 17.94V24H130.914V18.468C130.914 17.66 130.722 17.06 130.338 16.668C129.962 16.276 129.466 16.08 128.85 16.08C128.45 16.08 128.066 16.192 127.698 16.416C127.338 16.632 127.042 16.936 126.81 17.328C126.586 17.712 126.474 18.152 126.474 18.648V24H123.426V14.148H126.474V15.72C126.562 15.448 126.762 15.168 127.074 14.88C127.386 14.592 127.782 14.352 128.262 14.16C128.742 13.96 129.258 13.86 129.81 13.86ZM143.614 24V22.284C143.542 22.46 143.358 22.708 143.062 23.028C142.766 23.348 142.366 23.64 141.862 23.904C141.366 24.16 140.782 24.288 140.11 24.288C139.166 24.288 138.33 24.064 137.602 23.616C136.874 23.16 136.302 22.54 135.886 21.756C135.478 20.964 135.274 20.072 135.274 19.08C135.274 18.088 135.478 17.2 135.886 16.416C136.302 15.624 136.874 15 137.602 14.544C138.33 14.088 139.166 13.86 140.11 13.86C140.766 13.86 141.334 13.972 141.814 14.196C142.302 14.412 142.694 14.668 142.99 14.964C143.294 15.252 143.49 15.512 143.578 15.744V14.148H146.602V24H143.614ZM138.262 19.08C138.262 19.632 138.386 20.12 138.634 20.544C138.882 20.96 139.21 21.284 139.618 21.516C140.026 21.748 140.47 21.864 140.95 21.864C141.454 21.864 141.902 21.748 142.294 21.516C142.686 21.276 142.994 20.948 143.218 20.532C143.45 20.108 143.566 19.624 143.566 19.08C143.566 18.536 143.45 18.056 143.218 17.64C142.994 17.216 142.686 16.884 142.294 16.644C141.902 16.404 141.454 16.284 140.95 16.284C140.47 16.284 140.026 16.404 139.618 16.644C139.21 16.876 138.882 17.204 138.634 17.628C138.386 18.044 138.262 18.528 138.262 19.08ZM153.616 29.268C152.896 29.268 152.204 29.2 151.54 29.064C150.884 28.928 150.288 28.716 149.752 28.428C149.216 28.14 148.768 27.764 148.408 27.3L150.256 25.428C150.424 25.644 150.64 25.86 150.904 26.076C151.176 26.3 151.52 26.484 151.936 26.628C152.352 26.78 152.872 26.856 153.496 26.856C154.088 26.856 154.596 26.74 155.02 26.508C155.452 26.284 155.784 25.964 156.016 25.548C156.256 25.132 156.376 24.648 156.376 24.096V23.82H159.364V24.276C159.364 25.364 159.108 26.28 158.596 27.024C158.084 27.768 157.396 28.328 156.532 28.704C155.668 29.08 154.696 29.268 153.616 29.268ZM156.376 24V22.284C156.304 22.46 156.12 22.708 155.824 23.028C155.528 23.348 155.128 23.64 154.624 23.904C154.128 24.16 153.544 24.288 152.872 24.288C151.928 24.288 151.092 24.064 150.364 23.616C149.636 23.16 149.064 22.54 148.648 21.756C148.24 20.964 148.036 20.072 148.036 19.08C148.036 18.088 148.24 17.2 148.648 16.416C149.064 15.624 149.636 15 150.364 14.544C151.092 14.088 151.928 13.86 152.872 13.86C153.528 13.86 154.096 13.972 154.576 14.196C155.064 14.412 155.456 14.668 155.752 14.964C156.056 15.252 156.252 15.512 156.34 15.744V14.148H159.364V24H156.376ZM151.024 19.08C151.024 19.632 151.148 20.12 151.396 20.544C151.644 20.96 151.972 21.284 152.38 21.516C152.788 21.748 153.232 21.864 153.712 21.864C154.216 21.864 154.664 21.748 155.056 21.516C155.448 21.276 155.756 20.948 155.98 20.532C156.212 20.108 156.328 19.624 156.328 19.08C156.328 18.536 156.212 18.056 155.98 17.64C155.756 17.216 155.448 16.884 155.056 16.644C154.664 16.404 154.216 16.284 153.712 16.284C153.232 16.284 152.788 16.404 152.38 16.644C151.972 16.876 151.644 17.204 151.396 17.628C151.148 18.044 151.024 18.528 151.024 19.08ZM163.701 19.752C163.725 20.2 163.845 20.6 164.061 20.952C164.277 21.304 164.589 21.58 164.997 21.78C165.413 21.98 165.909 22.08 166.485 22.08C167.005 22.08 167.461 22.016 167.853 21.888C168.253 21.76 168.589 21.604 168.861 21.42C169.141 21.228 169.349 21.044 169.485 20.868L170.745 22.74C170.521 23.02 170.221 23.28 169.845 23.52C169.477 23.752 169.005 23.936 168.429 24.072C167.861 24.216 167.149 24.288 166.293 24.288C165.213 24.288 164.265 24.076 163.449 23.652C162.633 23.228 161.997 22.616 161.541 21.816C161.085 21.016 160.857 20.064 160.857 18.96C160.857 18 161.061 17.136 161.469 16.368C161.877 15.592 162.469 14.98 163.245 14.532C164.029 14.084 164.969 13.86 166.065 13.86C167.097 13.86 167.989 14.06 168.741 14.46C169.501 14.852 170.089 15.428 170.505 16.188C170.921 16.948 171.129 17.876 171.129 18.972C171.129 19.036 171.125 19.168 171.117 19.368C171.117 19.56 171.109 19.688 171.093 19.752H163.701ZM168.273 17.868C168.265 17.612 168.185 17.336 168.033 17.04C167.889 16.744 167.661 16.492 167.349 16.284C167.037 16.076 166.621 15.972 166.101 15.972C165.581 15.972 165.153 16.072 164.817 16.272C164.489 16.472 164.241 16.72 164.073 17.016C163.905 17.304 163.809 17.588 163.785 17.868H168.273ZM175.54 24H172.492V14.148H175.54V15.744H175.48C175.536 15.552 175.688 15.308 175.936 15.012C176.192 14.716 176.544 14.452 176.992 14.22C177.44 13.98 177.98 13.86 178.612 13.86C179.068 13.86 179.48 13.928 179.848 14.064C180.224 14.192 180.492 14.32 180.652 14.448L179.452 16.944C179.348 16.816 179.152 16.684 178.864 16.548C178.584 16.412 178.232 16.344 177.808 16.344C177.304 16.344 176.884 16.484 176.548 16.764C176.212 17.036 175.96 17.372 175.792 17.772C175.624 18.164 175.54 18.532 175.54 18.876V24Z" fill="#1D1D1D"/>
</svg>
