<svg width="205" height="36" viewBox="0 0 205 36" fill="none" xmlns="http://www.w3.org/2000/svg">
<g id="Group 1">
<g id="Group">
<path id="Vector" d="M48.3444 9.41345H50.0217C50.1641 9.41345 50.3002 9.41963 50.4302 9.4258C50.5602 9.43197 50.6592 9.48135 50.7211 9.57393C50.783 9.66651 50.8201 9.78377 50.8263 9.92573C50.8325 10.0677 50.8387 10.222 50.8387 10.3948V12.0859V18.8256V22.0104C50.8387 22.177 50.8387 22.3683 50.8511 22.572C50.8573 22.7819 50.8263 22.9362 50.7644 23.0411C50.7149 23.1337 50.5973 23.2015 50.4117 23.2571C50.3188 23.2818 50.226 23.2879 50.1208 23.2756C50.0155 23.2633 49.9103 23.2571 49.8113 23.2571H48.6601C48.5177 23.2571 48.3816 23.2509 48.2578 23.2386C48.134 23.2262 48.035 23.1892 47.9545 23.1213C47.8864 23.0596 47.8493 22.9608 47.8369 22.8312C47.8245 22.7016 47.8183 22.5658 47.8183 22.4239V20.7328V13.6289V10.796C47.8183 10.617 47.8121 10.401 47.806 10.1541C47.7998 9.90721 47.8307 9.73439 47.8926 9.62947C47.9421 9.54924 48.0288 9.48752 48.1464 9.43814C48.1835 9.43814 48.2206 9.43814 48.2516 9.4258C48.2887 9.41963 48.3197 9.41345 48.3444 9.41345Z" fill="#1D1D1E"/>
<path id="Vector_2" d="M58.9962 12.9683C59.7761 12.9437 60.4259 13.0548 60.9458 13.2955C61.4657 13.5423 61.8742 13.9065 62.1713 14.3817C62.2642 14.5237 62.3322 14.678 62.3879 14.8384C62.4375 14.9989 62.4932 15.1656 62.5427 15.3322C62.5674 15.4371 62.586 15.5359 62.5922 15.6223C62.5984 15.7149 62.6169 15.8013 62.6417 15.8938C62.6417 15.9741 62.6479 16.0234 62.6603 16.0481C62.685 16.2271 62.6974 16.4185 62.6974 16.6098C62.6974 16.8011 62.6974 16.9924 62.6974 17.1714V18.8996V22.0472C62.6974 22.2941 62.6912 22.5287 62.685 22.757C62.6788 22.9854 62.586 23.1273 62.4003 23.1952C62.3199 23.2199 62.2332 23.2323 62.128 23.2323C62.0228 23.2323 61.9176 23.2323 61.8185 23.2323H60.7663C60.6116 23.2323 60.4693 23.2199 60.3455 23.2014C60.2217 23.1829 60.1288 23.1273 60.0608 23.0348C60.0112 22.9545 59.9803 22.8558 59.9741 22.7323C59.9679 22.6089 59.9617 22.4793 59.9617 22.3312V20.9733V18.0787C59.9617 17.5973 59.9432 17.1591 59.906 16.7456C59.8689 16.332 59.7513 15.9926 59.5532 15.7087C59.3737 15.4495 59.1076 15.2705 58.7548 15.1656C58.6867 15.1409 58.6187 15.1285 58.5506 15.1285C58.4763 15.1285 58.402 15.1162 58.3278 15.0915C58.2597 15.0791 58.1792 15.073 58.0864 15.0791C57.9873 15.0853 57.9131 15.0977 57.8636 15.11C57.814 15.1223 57.7645 15.1285 57.7274 15.1285C57.6903 15.1285 57.6469 15.1347 57.6098 15.147C57.3127 15.2273 57.0713 15.326 56.8918 15.4556C56.4772 15.7519 56.2296 16.1901 56.1491 16.7579C56.0687 17.3257 56.0315 17.9676 56.0315 18.6835V21.1091V22.2941C56.0315 22.4114 56.0315 22.5287 56.0315 22.6459C56.0315 22.7632 56.013 22.8619 55.9758 22.936C55.9077 23.078 55.8087 23.1644 55.6664 23.1891C55.524 23.2137 55.3507 23.2261 55.1403 23.2261H54.1685C54.0262 23.2261 53.8838 23.2199 53.7415 23.2076C53.5991 23.1952 53.4939 23.152 53.432 23.0718C53.3392 22.9545 53.2958 22.7879 53.3082 22.5657C53.3144 22.3435 53.3206 22.1398 53.3206 21.9423V19.3007V15.0298V14.0423C53.3206 13.9003 53.3206 13.7707 53.333 13.6534C53.3392 13.5362 53.3763 13.4374 53.4382 13.3633C53.463 13.3263 53.5063 13.2955 53.562 13.2769C53.6177 13.2584 53.6796 13.2399 53.7477 13.2276H53.8467C53.9086 13.2152 53.9767 13.209 54.0509 13.209C54.1252 13.209 54.1933 13.209 54.2552 13.209H55.0722C55.1774 13.209 55.2764 13.2152 55.3755 13.2214C55.4745 13.2276 55.5611 13.2461 55.6354 13.2708C55.7282 13.3078 55.7901 13.3695 55.8211 13.4436C55.852 13.5238 55.883 13.6102 55.9077 13.7151C55.9201 13.7645 55.9263 13.8139 55.9201 13.8509C55.9139 13.888 55.9201 13.9312 55.9511 13.9682C55.9758 14.0361 56.0006 14.0731 56.0191 14.0855C56.0377 14.0978 56.0687 14.1163 56.1058 14.141C56.2481 14.1534 56.3657 14.104 56.4586 13.9929C56.5514 13.8818 56.6443 13.7954 56.7495 13.7337C57.1023 13.4744 57.4922 13.2646 57.9193 13.1103C58.0369 13.0733 58.1545 13.0486 58.2782 13.0301C58.402 13.0177 58.532 12.9992 58.6805 12.9745C58.7177 12.9622 58.7796 12.956 58.8538 12.9622C58.9157 12.9869 58.9714 12.9807 58.9962 12.9683Z" fill="#1D1D1E"/>
<path id="Vector_3" d="M74.6552 22.1336C74.6552 22.3126 74.6552 22.4916 74.6552 22.6706C74.6552 22.8496 74.6181 22.9853 74.5376 23.0903C74.4695 23.1582 74.3891 23.1952 74.2838 23.2137C74.1786 23.2322 74.061 23.2446 73.931 23.2446H72.8603C72.7303 23.2446 72.6127 23.2446 72.5013 23.2322C72.3899 23.226 72.3033 23.1952 72.2414 23.1458C72.1485 23.0841 72.099 22.9977 72.0866 22.8928C72.0743 22.7878 72.0495 22.6829 72.0062 22.5842C71.9814 22.5595 71.9567 22.5348 71.9381 22.5163C71.9195 22.4978 71.8948 22.4731 71.87 22.4484C71.7277 22.4484 71.6224 22.4792 71.5605 22.5471C71.4925 22.615 71.4306 22.6767 71.3687 22.7385C71.2758 22.8064 71.1954 22.8557 71.1149 22.9051C71.0345 22.9483 70.954 23.0039 70.8612 23.0718C70.8116 23.0964 70.7559 23.1211 70.694 23.152C70.6383 23.1767 70.5764 23.2014 70.5084 23.2322C70.3289 23.2939 70.1308 23.3557 69.9266 23.405C69.8585 23.4297 69.8028 23.4421 69.7533 23.4421C69.7037 23.4421 69.648 23.4482 69.5985 23.4606C69.5304 23.4606 69.4809 23.4606 69.4314 23.4729C69.3881 23.4791 69.3324 23.4853 69.2643 23.4853H69.091C69.0105 23.51 68.8991 23.5223 68.7382 23.5161C68.5835 23.51 68.4721 23.4914 68.4102 23.4668C68.3173 23.4421 68.2369 23.4297 68.1688 23.4359C68.0945 23.4421 68.0203 23.4297 67.946 23.405C67.7913 23.3557 67.6365 23.3063 67.488 23.2569C67.3394 23.2137 67.1909 23.1582 67.0485 23.0903C66.5967 22.8989 66.1882 22.5965 65.8292 22.1892C65.4703 21.7818 65.1917 21.3498 64.9813 20.8992C64.9132 20.7573 64.8637 20.6153 64.8266 20.4795C64.7894 20.3438 64.7399 20.2018 64.6904 20.0598C64.678 20.0105 64.6718 19.9611 64.6718 19.9117C64.6718 19.8685 64.6595 19.813 64.6347 19.7451C64.6099 19.6402 64.5852 19.5291 64.5666 19.4056C64.5481 19.2822 64.5233 19.1588 64.4985 19.0291C64.4862 18.9921 64.48 18.9427 64.4862 18.8934C64.4924 18.844 64.4862 18.7946 64.4738 18.7576C64.4738 18.6959 64.4738 18.6341 64.4738 18.5724C64.4738 18.5169 64.4676 18.4551 64.4552 18.3873C64.4428 18.3255 64.4366 18.2453 64.4366 18.1651C64.4366 18.0787 64.4428 18.0108 64.4552 17.9614C64.4676 17.8997 64.4738 17.838 64.4738 17.7762C64.4738 17.7207 64.4738 17.659 64.4738 17.5911C64.4862 17.5294 64.4924 17.4676 64.4862 17.4059C64.48 17.3504 64.4862 17.2887 64.5171 17.2208C64.5419 17.0788 64.5666 16.943 64.5852 16.8134C64.6038 16.6838 64.6347 16.5542 64.6718 16.4246C64.7214 16.2703 64.7709 16.1222 64.808 15.9802C64.8451 15.8383 64.9008 15.6963 64.9627 15.5543C65.1422 15.1655 65.3712 14.7952 65.6436 14.4496C65.6683 14.4125 65.7055 14.3755 65.7488 14.3446C65.7921 14.3138 65.8292 14.2768 65.854 14.2397C65.9035 14.178 65.9592 14.1163 66.0087 14.0669C66.0582 14.0175 66.1201 13.962 66.182 13.9126C66.2315 13.8879 66.2811 13.8509 66.3182 13.8077C66.3553 13.7645 66.4048 13.7275 66.4544 13.7028C66.7762 13.4806 67.1538 13.3016 67.5808 13.1596C67.6737 13.1349 67.7665 13.1164 67.8655 13.1041C67.9646 13.0917 68.0636 13.0732 68.1688 13.0485C68.2616 13.0239 68.3792 13.0053 68.5216 12.9992C68.6639 12.993 68.8063 12.9868 68.9487 12.9868C69.091 12.9868 69.2334 12.993 69.3695 13.0053C69.5057 13.0177 69.6171 13.0362 69.7099 13.0609C69.9018 13.1288 70.0937 13.1843 70.2732 13.2337C70.4527 13.2831 70.626 13.3571 70.7807 13.4497C70.8735 13.5176 70.954 13.5732 71.0345 13.6349C71.1149 13.6904 71.1954 13.7521 71.2882 13.82C71.3377 13.8571 71.412 13.9126 71.511 13.9743C71.6101 14.0422 71.7029 14.0422 71.7957 13.9743C71.8453 13.9496 71.8762 13.9003 71.8762 13.8385C71.8762 13.7768 71.8886 13.7089 71.9133 13.6472V13.4559C71.9257 13.4189 71.9319 13.3695 71.9319 13.3201C71.9319 13.2707 71.9319 13.2152 71.9319 13.1658V10.5242C71.9319 10.3823 71.9257 10.2218 71.9195 10.049C71.9133 9.87617 71.9443 9.74039 72.0062 9.64781C72.0557 9.54289 72.1547 9.48117 72.2971 9.45648C72.3218 9.44413 72.3466 9.43796 72.3775 9.44413C72.4023 9.45031 72.427 9.45031 72.458 9.43179H73.8382C73.9929 9.43179 74.1353 9.43796 74.2653 9.45031C74.3952 9.46265 74.4943 9.5182 74.5562 9.60461C74.6181 9.70953 74.6552 9.83914 74.6552 9.99961C74.6552 10.1601 74.6552 10.3205 74.6552 10.4748V22.1336ZM72.0062 18.3317C72.0186 18.2823 72.0247 18.2268 72.0186 18.1651C72.0124 18.1095 72.0062 18.054 72.0062 17.9984C72.0062 17.8688 72 17.7392 71.9876 17.6096C71.9752 17.48 71.9567 17.3627 71.9319 17.2578C71.9071 17.1158 71.8824 16.9862 71.8638 16.869C71.8453 16.7517 71.8081 16.6406 71.7586 16.5419C71.5791 16.0728 71.313 15.7086 70.9726 15.4371C70.626 15.1655 70.1308 15.0297 69.4809 15.0297C69.4005 15.0297 69.3014 15.0421 69.1715 15.0668C69.0663 15.0915 68.9734 15.1161 68.8868 15.1347C68.8001 15.1532 68.7197 15.184 68.6454 15.2211C68.2926 15.363 68.0203 15.5852 67.8284 15.8815C67.6365 16.1777 67.4756 16.5172 67.358 16.8937C67.3209 17.0233 67.2899 17.1529 67.2775 17.2825C67.2652 17.4121 67.2404 17.5479 67.1971 17.6898V17.9614C67.1723 18.0787 67.1661 18.2391 67.1785 18.4366C67.1909 18.6403 67.2095 18.7823 67.2342 18.8748C67.2342 18.9119 67.2342 18.9489 67.2466 18.9798C67.2528 19.0106 67.259 19.0415 67.259 19.0662C67.2837 19.1711 67.3085 19.2698 67.3271 19.3563C67.3456 19.4488 67.3704 19.5414 67.3951 19.6463C67.618 20.3191 67.9893 20.819 68.5216 21.1399C68.6887 21.2572 68.9239 21.3498 69.221 21.4115C69.2705 21.4238 69.351 21.43 69.4562 21.43C69.4933 21.4424 69.5552 21.4547 69.6419 21.4609C69.7285 21.467 69.7966 21.467 69.8461 21.4485C69.9513 21.4238 70.0565 21.4053 70.1556 21.393C70.2608 21.3806 70.366 21.356 70.465 21.3128C70.7869 21.1708 71.0468 20.9918 71.2449 20.7696C71.4368 20.5474 71.6101 20.2697 71.7524 19.9364C71.8019 19.8191 71.8453 19.7019 71.87 19.5784C71.8948 19.455 71.9195 19.3254 71.9505 19.1773C71.9628 19.1155 71.969 19.0538 71.9628 18.9921C71.9567 18.9366 71.9628 18.8748 71.9938 18.8069C72.0062 18.7699 72.0124 18.7205 72.0124 18.6712C72.0124 18.6218 72.0124 18.5601 72.0124 18.4984V18.3317H72.0062Z" fill="#1D1D1E"/>
<path id="Vector_4" d="M77.2422 13.2399H78.7028C78.8452 13.2399 78.9752 13.2461 79.0928 13.2584C79.2104 13.2708 79.2908 13.314 79.3465 13.3942C79.4084 13.4745 79.4518 13.5794 79.4641 13.7152C79.4765 13.8509 79.4827 13.9929 79.4827 14.1349V15.4927V18.3873C79.4827 18.8564 79.5013 19.2946 79.5384 19.7081C79.5755 20.1216 79.6931 20.4672 79.8912 20.7388C80.0707 21.0104 80.3678 21.2079 80.7701 21.319C80.832 21.3313 80.8877 21.3375 80.9372 21.3375C80.9805 21.3375 81.0362 21.3437 81.1043 21.356C81.1662 21.3684 81.2405 21.3745 81.3209 21.3745C81.4014 21.3745 81.4571 21.3684 81.4942 21.356C81.5561 21.3313 81.6118 21.3251 81.6613 21.3375C81.7047 21.3498 81.7542 21.3437 81.8099 21.319C82.0822 21.2573 82.2988 21.1709 82.4536 21.0659C82.6888 20.924 82.8744 20.7388 83.0106 20.5105C83.1468 20.2821 83.2458 20.029 83.3015 19.7513C83.3572 19.4736 83.3943 19.165 83.4067 18.8193C83.4191 18.4737 83.4253 18.1157 83.4253 17.7393V15.3878V14.1225C83.4253 14.0052 83.4253 13.888 83.4253 13.7645C83.4253 13.6411 83.45 13.5423 83.5058 13.4621C83.5676 13.3448 83.6667 13.277 83.7966 13.2584C83.9266 13.2399 84.0814 13.2276 84.267 13.2276H85.3007C85.4306 13.2276 85.5544 13.2276 85.672 13.2276C85.7896 13.2276 85.8886 13.2523 85.9629 13.3078C86.0681 13.3757 86.1238 13.4683 86.1362 13.5979C86.1486 13.7275 86.1548 13.8756 86.1548 14.0423V15.5174V20.9733V22.3497C86.1548 22.4793 86.1548 22.6089 86.1548 22.7385C86.1548 22.8681 86.13 22.9669 86.0743 23.0286C86.0062 23.1335 85.9134 23.1891 85.7834 23.2014C85.6534 23.2138 85.5173 23.2199 85.3749 23.2199H84.3227C84.1804 23.2199 84.0504 23.2138 83.9452 23.2014C83.8338 23.1891 83.7471 23.1397 83.6852 23.0471C83.6605 23.0101 83.6357 22.9484 83.6172 22.8743C83.5986 22.7941 83.58 22.72 83.5615 22.6398C83.5429 22.5595 83.5181 22.4916 83.4934 22.4238C83.4686 22.362 83.4253 22.3188 83.3758 22.3065C83.351 22.2818 83.3201 22.2756 83.2767 22.288C83.2396 22.3003 83.2025 22.3127 83.1777 22.325C83.0849 22.3744 83.0106 22.4361 82.9425 22.4978C82.8744 22.5657 82.8064 22.6213 82.7259 22.6706C82.6764 22.7077 82.6269 22.7509 82.5774 22.7941C82.534 22.8373 82.4783 22.8805 82.4102 22.9175C82.1132 23.0965 81.7604 23.2384 81.3581 23.3434C81.2652 23.3681 81.1786 23.3866 81.0857 23.3927C80.9929 23.3989 80.9001 23.4174 80.7948 23.4421C80.7453 23.4545 80.6896 23.4606 80.6277 23.4545C80.572 23.4483 80.5163 23.4483 80.4606 23.4668C80.4235 23.4792 80.343 23.4853 80.2192 23.4792C80.0954 23.473 80.015 23.4606 79.9778 23.4483C79.9098 23.4483 79.8479 23.4421 79.786 23.436C79.7179 23.4298 79.656 23.4236 79.5941 23.4236C79.4394 23.3866 79.2908 23.3495 79.1485 23.3249C79.0061 23.3002 78.8638 23.257 78.7214 23.2076C78.6533 23.1829 78.6038 23.1582 78.5543 23.1397C78.511 23.1212 78.4553 23.0965 78.3872 23.0718C77.9354 22.8249 77.5702 22.4855 77.2979 22.0411C77.1308 21.7695 77.007 21.4424 76.9265 21.0598C76.8461 20.6771 76.8027 20.2697 76.778 19.8377C76.7594 19.4057 76.7532 18.9551 76.7594 18.4984C76.7656 18.0417 76.7718 17.585 76.7718 17.1282V14.4867C76.7718 14.32 76.7656 14.1225 76.7594 13.8941C76.7532 13.6658 76.7842 13.5053 76.8461 13.4004C76.8832 13.3387 76.9636 13.277 77.0812 13.2276C77.1431 13.2584 77.205 13.2523 77.2422 13.2399Z" fill="#1D1D1E"/>
<path id="Vector_5" d="M92.1028 12.9499C93.0745 12.9253 93.9225 13.0302 94.6466 13.2709C95.3646 13.5116 95.9154 13.9189 96.293 14.5053C96.3858 14.6472 96.4663 14.7953 96.5344 14.9435C96.6086 15.0916 96.6643 15.2582 96.7201 15.4372C96.7448 15.5175 96.7572 15.5977 96.7572 15.6903C96.7572 15.7829 96.7448 15.8569 96.7201 15.9248C96.6705 16.005 96.5963 16.0544 96.5034 16.0791C96.4353 16.1038 96.3611 16.1161 96.2682 16.1161C96.1754 16.1161 96.0887 16.1161 95.9959 16.1161H95.1418C95.0489 16.1161 94.9623 16.1223 94.8694 16.1285C94.7766 16.1347 94.6961 16.1285 94.6157 16.0976C94.4857 16.0729 94.3867 16.0174 94.3248 15.9433C94.2567 15.8631 94.201 15.7829 94.1515 15.7026C94.102 15.6162 94.0525 15.5298 94.0029 15.4311C93.9596 15.3323 93.8915 15.2521 93.7987 15.1903C93.6687 15.0854 93.5449 15.0114 93.4212 14.9558C93.2974 14.9064 93.1426 14.8571 92.9631 14.82C92.8703 14.7953 92.7403 14.7768 92.5608 14.7645C92.3875 14.7521 92.2514 14.7583 92.1585 14.783H92.0224C91.9543 14.7953 91.8986 14.8077 91.8367 14.8139C91.781 14.82 91.7191 14.8324 91.651 14.8447C91.4282 14.9126 91.2487 14.999 91.1125 15.1039C90.9764 15.215 90.8835 15.3817 90.8278 15.5977C90.8031 15.6903 90.8031 15.7705 90.8278 15.8507C90.8526 15.931 90.8773 15.9927 90.9083 16.0421C91.0011 16.1964 91.1063 16.3198 91.2301 16.4124C91.3539 16.505 91.5025 16.579 91.6696 16.6469C91.9171 16.7518 92.1833 16.8383 92.4804 16.9061C92.7713 16.9802 93.0684 17.0419 93.3778 17.0975C93.6811 17.153 93.9844 17.2209 94.2753 17.2888C94.5662 17.3629 94.8447 17.4493 95.1046 17.548C95.2222 17.5974 95.3336 17.6406 95.4451 17.6715C95.5565 17.7023 95.6617 17.7517 95.7669 17.8196C96.0145 17.9739 96.2373 18.1405 96.4415 18.3257C96.6396 18.5047 96.8005 18.733 96.9181 19.0046C96.9552 19.0972 96.9924 19.1836 97.0171 19.2762C97.0419 19.3687 97.0667 19.4613 97.0976 19.5662C97.11 19.6465 97.1224 19.7637 97.1285 19.9242C97.1347 20.0847 97.1285 20.2143 97.1162 20.3007V20.3995C97.0914 20.4797 97.0728 20.5538 97.0667 20.6216C97.0605 20.6957 97.0481 20.7636 97.0357 20.8253C96.9429 21.2142 96.8005 21.5598 96.6086 21.856C96.3982 22.1646 96.1506 22.4177 95.8474 22.6152C95.5503 22.8065 95.2099 22.9793 94.8323 23.1213C94.69 23.1892 94.5352 23.2324 94.3743 23.2571C94.2134 23.2817 94.0525 23.3126 93.8977 23.3558C93.7801 23.3805 93.6625 23.399 93.5387 23.4052C93.415 23.4114 93.2974 23.4299 93.1798 23.4546H92.8208C92.7403 23.4792 92.6103 23.4916 92.4185 23.4916C92.2328 23.4916 92.0966 23.4792 92.0162 23.4546C91.979 23.4546 91.9357 23.4484 91.8924 23.4422C91.8491 23.436 91.7995 23.4299 91.7438 23.4299C91.5891 23.4052 91.4344 23.3867 91.2735 23.3743C91.1187 23.362 90.9702 23.3373 90.8278 23.2941C90.3203 23.1521 89.8747 22.9855 89.4847 22.8003C89.0948 22.6152 88.7668 22.3313 88.4945 21.9548C88.315 21.7079 88.154 21.424 88.0241 21.1031C87.9993 21.0228 87.9746 20.9241 87.9436 20.7945C87.9189 20.7327 87.9003 20.6402 87.8879 20.5229C87.8755 20.4056 87.8817 20.3069 87.9065 20.2328C87.9436 20.1402 88.0117 20.0785 88.0983 20.0415C88.1602 20.0168 88.2407 20.0045 88.3335 20.0045C88.4264 20.0045 88.5192 20.0045 88.6244 20.0045H89.5405C89.6457 20.0045 89.7509 20.0045 89.8499 20.0045C89.9551 20.0045 90.0418 20.0168 90.1222 20.0415C90.2646 20.0909 90.3574 20.1773 90.407 20.2945C90.4503 20.4118 90.506 20.5352 90.5741 20.6649C90.5988 20.7327 90.6483 20.813 90.7226 20.9179C90.7969 21.0228 90.8526 21.0845 90.9083 21.1092C91.063 21.2388 91.2116 21.3376 91.3539 21.4117C91.4963 21.4857 91.6758 21.5536 91.8986 21.6153C91.9605 21.64 92.0286 21.6524 92.0904 21.6462C92.1523 21.64 92.2204 21.6462 92.2823 21.6585C92.3875 21.6832 92.4989 21.6956 92.6227 21.6894C92.7465 21.6832 92.8517 21.6647 92.9446 21.64C93.0065 21.6277 93.0684 21.6215 93.1303 21.6215C93.186 21.6215 93.2478 21.6092 93.3159 21.5845C93.4954 21.5227 93.6625 21.4425 93.8111 21.3499C93.9596 21.2574 94.0834 21.1401 94.1701 20.9981C94.2319 20.8932 94.2877 20.7327 94.3248 20.5106C94.3495 20.418 94.3495 20.3377 94.3248 20.2575C94.3 20.1773 94.2753 20.1155 94.2443 20.0662C94.1515 19.8872 94.0401 19.7514 93.9039 19.6588C93.7678 19.5662 93.6068 19.486 93.4273 19.4058C93.1798 19.3009 92.9198 19.2206 92.6475 19.1527C92.3752 19.091 92.1028 19.0169 91.8305 18.9367C91.7253 18.912 91.6201 18.8935 91.5087 18.8812C91.3972 18.8688 91.292 18.8503 91.1868 18.8256C90.7721 18.7083 90.376 18.5973 89.9985 18.4862C89.6209 18.3751 89.2805 18.2084 88.9648 17.9924C88.5997 17.7332 88.3335 17.3814 88.1664 16.9432C88.1417 16.8506 88.1169 16.7272 88.086 16.5729C88.0612 16.4803 88.0426 16.3754 88.0303 16.2457C88.0179 16.1161 88.0241 15.9989 88.0488 15.8939C88.0736 15.8322 88.0798 15.7767 88.0674 15.7273C88.055 15.6841 88.0612 15.6286 88.086 15.5607C88.1107 15.4187 88.1417 15.2829 88.1726 15.1595C88.2036 15.0361 88.2469 14.9188 88.2964 14.8015C88.4635 14.425 88.6987 14.1226 88.9958 13.8881C89.2929 13.6535 89.6333 13.4684 90.0108 13.3264C90.1532 13.2647 90.3017 13.2153 90.4565 13.1783C90.6112 13.1474 90.7721 13.1104 90.9454 13.0734C91.0259 13.0487 91.1002 13.0302 91.1806 13.024C91.2611 13.0178 91.3354 13.0055 91.4158 12.9931C91.521 12.9808 91.6324 12.9746 91.7438 12.9746C91.8553 12.9746 91.9976 12.9623 92.1028 12.9499Z" fill="#1D1D1E"/>
<path id="Vector_6" d="M100.069 10.2341H101.374C101.566 10.2341 101.74 10.2465 101.888 10.265C102.037 10.2835 102.142 10.3637 102.21 10.5057C102.235 10.5736 102.247 10.6476 102.247 10.7402C102.247 10.8328 102.247 10.9192 102.247 11.0118V11.8882C102.247 11.9561 102.241 12.0301 102.235 12.1104C102.229 12.1968 102.229 12.2709 102.247 12.3326V12.5486C102.247 12.6535 102.253 12.7461 102.266 12.8325C102.278 12.9189 102.309 12.993 102.365 13.0547C102.458 13.172 102.619 13.2337 102.86 13.2398C103.101 13.246 103.33 13.2522 103.553 13.2522C103.634 13.2522 103.708 13.2522 103.788 13.2522C103.869 13.2522 103.937 13.2645 104.005 13.2892C104.147 13.3571 104.228 13.4682 104.246 13.641C104.265 13.8077 104.277 13.999 104.277 14.2027C104.277 14.2952 104.277 14.3817 104.29 14.4742C104.296 14.5668 104.283 14.6409 104.259 14.7088C104.191 14.9186 104.054 15.0235 103.85 15.0359C103.64 15.0482 103.411 15.0544 103.151 15.0544C103.101 15.0544 103.046 15.0544 102.984 15.042C102.928 15.0359 102.878 15.042 102.835 15.0544C102.786 15.0667 102.736 15.0729 102.699 15.0667C102.662 15.0606 102.619 15.0729 102.581 15.0976C102.476 15.1223 102.402 15.1778 102.359 15.2642C102.315 15.3506 102.278 15.4494 102.253 15.5667C102.241 15.6346 102.241 15.7024 102.253 15.7827C102.266 15.8629 102.266 15.9308 102.253 15.9987V17.2022V19.4735C102.253 19.7944 102.266 20.0783 102.284 20.319C102.303 20.5598 102.383 20.7696 102.526 20.9486C102.588 21.0288 102.68 21.0844 102.786 21.1152C102.897 21.1461 103.008 21.1769 103.126 21.2016C103.163 21.214 103.207 21.2201 103.25 21.214C103.293 21.2078 103.33 21.214 103.355 21.2263H103.572C103.714 21.2263 103.838 21.2325 103.943 21.2448C104.048 21.2572 104.129 21.3127 104.197 21.3991C104.246 21.4794 104.277 21.5781 104.277 21.7016C104.277 21.825 104.277 21.9484 104.277 22.078C104.277 22.3496 104.271 22.5965 104.265 22.8249C104.259 23.0532 104.153 23.2013 103.943 23.2816C103.875 23.3063 103.819 23.3186 103.77 23.3124C103.72 23.3063 103.658 23.3124 103.596 23.3433H103.405C103.38 23.3433 103.336 23.3371 103.287 23.3309C103.237 23.3248 103.188 23.3248 103.151 23.3433C103.083 23.3556 103.015 23.3618 102.947 23.3556C102.872 23.3495 102.804 23.3433 102.742 23.3433C102.674 23.3433 102.612 23.3433 102.55 23.3556C102.482 23.3618 102.427 23.3556 102.377 23.3433H102.161C102.092 23.331 102.024 23.3248 101.944 23.3248C101.863 23.3248 101.795 23.3186 101.727 23.3063C101.634 23.2939 101.554 23.2816 101.474 23.2692C101.393 23.2569 101.319 23.2445 101.238 23.2322C101.096 23.1952 100.96 23.1458 100.83 23.0964C100.7 23.047 100.576 22.9853 100.458 22.9236C100.421 22.8989 100.378 22.8681 100.341 22.8372C100.304 22.8063 100.254 22.7693 100.205 22.7323C100.18 22.7076 100.149 22.6767 100.106 22.6459C100.069 22.615 100.031 22.5841 100.007 22.5595C99.8271 22.3126 99.691 22.041 99.5981 21.7448C99.5734 21.6954 99.561 21.646 99.5672 21.5966C99.5734 21.5534 99.5672 21.4979 99.5548 21.43C99.5424 21.4053 99.5362 21.3744 99.5362 21.3312C99.5362 21.2942 99.5301 21.2572 99.5177 21.2325V21.0412C99.5053 20.9918 99.4991 20.9301 99.5053 20.8684C99.5115 20.8066 99.5177 20.7387 99.5177 20.677V19.9364V17.0418V15.9802C99.5177 15.8876 99.5177 15.8012 99.5301 15.7086C99.5362 15.616 99.5239 15.5358 99.4991 15.4556C99.4496 15.2766 99.3568 15.1593 99.2268 15.1038C99.0844 15.042 98.9049 15.0174 98.6821 15.0482C98.4593 15.0729 98.2736 15.0544 98.1189 14.9927C98.0137 14.9556 97.9518 14.8939 97.927 14.8199C97.9023 14.7396 97.8775 14.647 97.8466 14.5298V14.1224C97.8466 13.8879 97.8589 13.7027 97.8837 13.5608C97.9085 13.4188 98.0199 13.3201 98.2117 13.2707C98.2612 13.246 98.3169 13.2337 98.3665 13.2398C98.416 13.246 98.4779 13.2522 98.5398 13.2522C98.7316 13.2522 98.9173 13.2398 99.0844 13.2213C99.2515 13.2028 99.3691 13.1288 99.4372 12.9991C99.4744 12.9066 99.4991 12.8078 99.5053 12.6905C99.5115 12.5733 99.5177 12.456 99.5177 12.3387V11.1352C99.5177 11.0303 99.5177 10.9192 99.5177 10.8081C99.5177 10.6908 99.5301 10.5921 99.5548 10.518C99.6167 10.3884 99.7157 10.302 99.8457 10.265C99.8705 10.2526 99.9076 10.2465 99.9509 10.2526C100.007 10.2465 100.038 10.2465 100.069 10.2341Z" fill="#1D1D1E"/>
<path id="Vector_7" d="M111.302 12.9684C111.444 12.9684 111.574 12.9808 111.68 13.0055C111.791 13.0302 111.878 13.0919 111.94 13.1783C112.02 13.2832 112.057 13.4622 112.057 13.7152C112.057 13.9683 112.057 14.1905 112.057 14.388C112.057 14.5299 112.057 14.6904 112.07 14.8756C112.076 15.0546 112.051 15.1965 112.001 15.3014C111.952 15.394 111.878 15.4496 111.779 15.4742C111.68 15.4989 111.568 15.5113 111.451 15.5113C111.327 15.5113 111.197 15.5051 111.061 15.4928C110.924 15.4804 110.801 15.4866 110.683 15.5113C110.59 15.536 110.504 15.5545 110.411 15.5607C110.318 15.5668 110.237 15.5853 110.157 15.61C109.947 15.6779 109.742 15.7705 109.532 15.8939C109.321 16.0174 109.161 16.1532 109.043 16.3136C108.975 16.4186 108.907 16.5235 108.839 16.6346C108.764 16.7457 108.696 16.8568 108.634 16.974C108.597 17.0789 108.56 17.1839 108.529 17.295C108.498 17.4061 108.467 17.511 108.443 17.6159C108.418 17.7085 108.405 17.8011 108.405 17.8998C108.405 17.9986 108.393 18.0911 108.368 18.1837C108.356 18.2331 108.35 18.2825 108.356 18.3319C108.362 18.3751 108.356 18.4183 108.344 18.4553V18.7639C108.319 18.8565 108.313 18.9552 108.325 19.0663C108.337 19.1774 108.344 19.2823 108.344 19.3873V20.6278V22.2757C108.344 22.4424 108.337 22.5967 108.325 22.7448C108.313 22.8867 108.275 23.004 108.207 23.0966C108.183 23.1336 108.139 23.1645 108.084 23.183C108.028 23.2015 107.966 23.22 107.898 23.2324H107.799C107.731 23.2447 107.663 23.2509 107.582 23.2509C107.502 23.2509 107.434 23.2509 107.366 23.2509H106.53C106.45 23.2385 106.369 23.2324 106.289 23.2324C106.202 23.2324 106.115 23.2324 106.029 23.2324C105.961 23.2077 105.899 23.183 105.837 23.1645C105.769 23.146 105.725 23.1028 105.701 23.041C105.651 22.9793 105.62 22.8806 105.614 22.7571C105.608 22.6337 105.602 22.5102 105.602 22.3806V21.0598V15.5853V14.1473C105.602 14.0177 105.602 13.8942 105.602 13.7708C105.602 13.6474 105.626 13.5486 105.682 13.4684C105.744 13.3634 105.843 13.3017 105.973 13.277C106.103 13.2524 106.258 13.24 106.443 13.24H107.434C107.588 13.24 107.725 13.2524 107.842 13.2709C107.96 13.2894 108.053 13.3511 108.115 13.456C108.152 13.5239 108.176 13.6103 108.183 13.7276C108.189 13.8449 108.201 13.956 108.214 14.067C108.226 14.1781 108.251 14.2769 108.282 14.3695C108.313 14.4621 108.374 14.5053 108.467 14.5053C108.492 14.4806 108.517 14.4682 108.548 14.4682C108.573 14.4682 108.597 14.4559 108.628 14.4312C108.709 14.3695 108.777 14.2892 108.833 14.209C108.888 14.1226 108.962 14.0485 109.055 13.9868C109.105 13.9498 109.154 13.9066 109.191 13.8634C109.229 13.8202 109.278 13.777 109.328 13.7399C109.445 13.6597 109.563 13.5856 109.687 13.5054C109.81 13.4252 109.934 13.3573 110.064 13.2894C110.194 13.24 110.324 13.1906 110.466 13.1536C110.603 13.1166 110.745 13.0734 110.887 13.0363C110.924 13.024 110.999 13.0178 111.11 13.024C111.209 13.0055 111.277 12.9931 111.302 12.9684Z" fill="#1D1D1E"/>
<path id="Vector_8" d="M112.627 13.1845H114.106C114.236 13.1845 114.366 13.1845 114.496 13.1845C114.626 13.1845 114.737 13.2092 114.824 13.2647C114.978 13.3696 115.084 13.5301 115.146 13.7523C115.201 13.9745 115.263 14.172 115.331 14.3572C115.393 14.5115 115.449 14.6719 115.498 14.8447C115.542 15.0114 115.597 15.1718 115.666 15.3323C115.771 15.6286 115.864 15.9248 115.956 16.2149C116.049 16.505 116.142 16.7951 116.247 17.079L116.656 18.301C116.693 18.4183 116.73 18.5356 116.761 18.659C116.792 18.7824 116.835 18.8997 116.885 19.017C116.922 19.1219 116.965 19.2392 117.009 19.3688C117.052 19.4984 117.151 19.5539 117.293 19.5416C117.318 19.5169 117.343 19.4984 117.361 19.4922C117.38 19.486 117.405 19.4675 117.429 19.4428C117.467 19.3811 117.504 19.3132 117.528 19.2515C117.553 19.1898 117.578 19.1219 117.609 19.0602C117.671 18.9182 117.727 18.7639 117.764 18.6034C117.801 18.443 117.85 18.2825 117.9 18.1282C118.079 17.5851 118.259 17.0481 118.426 16.5173C118.593 15.9865 118.773 15.4496 118.952 14.9065C119.014 14.7275 119.07 14.5485 119.119 14.3695C119.162 14.1967 119.218 14.0239 119.286 13.8572C119.323 13.7523 119.361 13.6536 119.391 13.5548C119.422 13.4561 119.484 13.3758 119.577 13.3141C119.658 13.2524 119.75 13.2153 119.868 13.2092C119.986 13.203 120.116 13.1968 120.258 13.1968H121.446C121.576 13.1968 121.7 13.203 121.818 13.2153C121.935 13.2277 122.028 13.2647 122.09 13.3326C122.17 13.4252 122.183 13.5425 122.127 13.6844C122.102 13.7893 122.071 13.8943 122.028 13.993C121.991 14.0979 121.948 14.2029 121.911 14.3016C121.731 14.7522 121.552 15.2151 121.384 15.6903C121.217 16.1655 121.038 16.6284 120.858 17.079C120.778 17.2703 120.71 17.4678 120.642 17.6715C120.574 17.8752 120.506 18.0727 120.425 18.264C120.357 18.443 120.295 18.622 120.233 18.7886C120.165 18.9552 120.103 19.1342 120.041 19.3132C119.781 19.9613 119.54 20.6093 119.311 21.2635C119.082 21.9178 118.841 22.5596 118.581 23.1954C118.544 23.2879 118.513 23.3682 118.494 23.4484C118.475 23.5286 118.445 23.6027 118.407 23.6829C118.302 23.9298 118.203 24.1705 118.116 24.3989C118.024 24.6334 117.931 24.8556 117.826 25.0716C117.72 25.2876 117.597 25.4851 117.454 25.6641C117.312 25.8431 117.139 26.0098 116.928 26.1517C116.761 26.269 116.575 26.3616 116.371 26.4356C116.167 26.5097 115.95 26.5776 115.721 26.6393C115.616 26.664 115.511 26.6763 115.412 26.6763C115.307 26.6763 115.201 26.6887 115.102 26.7134H114.595C114.49 26.7134 114.366 26.7134 114.223 26.7134C114.081 26.7134 113.939 26.7072 113.803 26.6948C113.666 26.6825 113.543 26.664 113.431 26.6455C113.32 26.6269 113.239 26.5961 113.19 26.5591C113.122 26.5097 113.085 26.448 113.066 26.3739C113.047 26.2998 113.023 26.2134 112.998 26.1147V25.6456C112.998 25.4234 112.998 25.1951 112.998 24.9482C112.998 24.7013 113.078 24.547 113.233 24.4791C113.295 24.4544 113.388 24.4359 113.493 24.4297C113.604 24.4236 113.697 24.4297 113.778 24.4606H114.267H114.502C114.551 24.4483 114.607 24.4421 114.657 24.4421C114.706 24.4421 114.762 24.4297 114.811 24.4051C115.214 24.2878 115.474 24.0224 115.591 23.6089C115.616 23.5595 115.641 23.4793 115.672 23.3743C115.696 23.2694 115.696 23.183 115.672 23.1028C115.647 23.0411 115.635 22.9732 115.635 22.9114C115.635 22.8497 115.622 22.7818 115.597 22.7201C115.517 22.4609 115.437 22.2078 115.344 21.9548C115.251 21.7017 115.158 21.4549 115.053 21.208C114.948 20.9611 114.855 20.7142 114.768 20.4674C114.681 20.2205 114.589 19.9736 114.483 19.7267C114.415 19.5724 114.366 19.4181 114.316 19.2577C114.273 19.1034 114.217 18.9491 114.149 18.7886C113.939 18.2948 113.747 17.7887 113.574 17.2765C113.4 16.758 113.208 16.2519 112.998 15.7644C112.973 15.715 112.961 15.6718 112.961 15.6409C112.961 15.6101 112.948 15.573 112.924 15.536C112.818 15.3015 112.732 15.0669 112.664 14.8262C112.589 14.5855 112.503 14.3572 112.404 14.135C112.379 14.0547 112.336 13.9436 112.28 13.7955C112.224 13.6474 112.212 13.5178 112.249 13.419C112.286 13.3141 112.373 13.2524 112.503 13.2277C112.528 13.2153 112.552 13.2092 112.571 13.2153C112.577 13.203 112.602 13.1968 112.627 13.1845Z" fill="#1D1D1E"/>
<path id="Vector_9" d="M124.095 9.41324H130.91H132.488C132.63 9.41324 132.767 9.41942 132.897 9.43176C133.026 9.4441 133.126 9.48731 133.187 9.56754C133.237 9.63543 133.274 9.72184 133.293 9.82676C133.311 9.93786 133.324 10.0613 133.324 10.1971C133.324 10.3329 133.317 10.4686 133.311 10.6044C133.305 10.7402 133.299 10.8636 133.299 10.9809C133.299 11.0735 133.299 11.1599 133.311 11.2525C133.317 11.3451 133.311 11.4253 133.299 11.5055C133.274 11.5734 133.249 11.629 133.231 11.6907C133.212 11.7462 133.175 11.7956 133.126 11.8388C133.02 11.919 132.841 11.9499 132.587 11.9437C132.333 11.9376 132.117 11.9314 131.937 11.9314H128.18C127.97 11.9314 127.722 11.9314 127.431 11.919C127.14 11.9129 126.93 11.9499 126.8 12.024C126.72 12.0733 126.658 12.1721 126.608 12.314C126.583 12.4066 126.571 12.5239 126.577 12.6658C126.583 12.8078 126.59 12.9312 126.59 13.0362V13.9681C126.59 14.036 126.583 14.1101 126.577 14.2027C126.571 14.2952 126.571 14.3693 126.59 14.4372V14.6532C126.614 14.7705 126.645 14.8692 126.676 14.9433C126.707 15.0235 126.775 15.0791 126.881 15.1161C126.942 15.1408 127.023 15.1593 127.116 15.1655C127.209 15.1717 127.301 15.1778 127.407 15.1778H128.149H130.854C130.959 15.1778 131.077 15.1778 131.213 15.1655C131.349 15.1593 131.485 15.1593 131.622 15.1655C131.758 15.1717 131.881 15.184 131.993 15.1963C132.104 15.2087 132.185 15.2334 132.234 15.2766C132.364 15.3692 132.426 15.5358 132.42 15.7888C132.414 16.0419 132.408 16.2703 132.408 16.4801C132.408 16.585 132.408 16.6961 132.42 16.8196C132.426 16.943 132.414 17.0541 132.389 17.159C132.339 17.301 132.265 17.3997 132.172 17.4491C132.08 17.4985 131.906 17.5232 131.646 17.517C131.386 17.5108 131.17 17.5046 131.003 17.5046H127.809C127.561 17.5046 127.32 17.5108 127.091 17.5232C126.856 17.5355 126.707 17.6281 126.645 17.7947C126.621 17.8318 126.608 17.875 126.608 17.9182C126.608 17.9614 126.602 18.0046 126.59 18.0416V18.2329V18.523V19.0476V21.788C126.59 21.9669 126.59 22.1953 126.602 22.4607C126.608 22.7261 126.577 22.9174 126.515 23.0347C126.478 23.1026 126.422 23.1396 126.361 23.1581C126.293 23.1766 126.231 23.2013 126.169 23.226C126.076 23.2507 125.983 23.2569 125.878 23.2445C125.773 23.2322 125.667 23.226 125.568 23.226H124.442C124.3 23.226 124.163 23.226 124.04 23.2137C123.916 23.2075 123.817 23.1705 123.736 23.1088C123.643 23.047 123.594 22.9421 123.588 22.8063C123.582 22.6705 123.575 22.5286 123.575 22.3866V20.714V13.6287V10.7958C123.575 10.6168 123.569 10.4008 123.563 10.1539C123.557 9.907 123.588 9.73418 123.65 9.62926C123.699 9.53668 123.798 9.47496 123.941 9.43793C123.965 9.42559 123.99 9.41942 124.021 9.42559C124.046 9.43176 124.071 9.43176 124.095 9.41324Z" fill="#1D1D1E"/>
<path id="Vector_10" d="M135.335 13.2399H136.796C136.938 13.2399 137.068 13.2461 137.186 13.2584C137.303 13.2708 137.384 13.314 137.44 13.3942C137.501 13.4745 137.545 13.5794 137.557 13.7152C137.57 13.8509 137.576 13.9929 137.576 14.1349V15.4927V18.3873C137.576 18.8564 137.594 19.2946 137.631 19.7081C137.669 20.1216 137.786 20.4672 137.984 20.7388C138.164 21.0104 138.461 21.2079 138.863 21.319C138.925 21.3313 138.981 21.3375 139.03 21.3375C139.074 21.3375 139.129 21.3437 139.197 21.356C139.259 21.3684 139.333 21.3745 139.414 21.3745C139.494 21.3745 139.55 21.3684 139.587 21.356C139.649 21.3313 139.705 21.3251 139.754 21.3375C139.798 21.3498 139.847 21.3437 139.903 21.319C140.175 21.2573 140.392 21.1709 140.547 21.0659C140.782 20.924 140.967 20.7388 141.104 20.5105C141.24 20.2821 141.339 20.029 141.395 19.7513C141.45 19.4736 141.487 19.165 141.5 18.8193C141.512 18.4737 141.518 18.1157 141.518 17.7393V15.3878V14.1225C141.518 14.0052 141.518 13.888 141.518 13.7645C141.518 13.6411 141.543 13.5423 141.599 13.4621C141.661 13.3448 141.76 13.277 141.89 13.2584C142.02 13.2399 142.174 13.2276 142.36 13.2276H143.394C143.524 13.2276 143.647 13.2276 143.765 13.2276C143.883 13.2276 143.982 13.2523 144.056 13.3078C144.161 13.3757 144.217 13.4683 144.229 13.5979C144.242 13.7275 144.248 13.8756 144.248 14.0423V15.5174V20.9733V22.3497C144.248 22.4793 144.248 22.6089 144.248 22.7385C144.248 22.8681 144.223 22.9669 144.167 23.0286C144.099 23.1335 144.006 23.1891 143.876 23.2014C143.746 23.2138 143.61 23.2199 143.468 23.2199H142.416C142.273 23.2199 142.143 23.2138 142.038 23.2014C141.927 23.1891 141.84 23.1397 141.778 23.0471C141.754 23.0101 141.729 22.9484 141.71 22.8743C141.692 22.7941 141.673 22.72 141.654 22.6398C141.636 22.5595 141.611 22.4916 141.586 22.4238C141.562 22.362 141.518 22.3188 141.469 22.3065C141.444 22.2818 141.413 22.2756 141.37 22.288C141.333 22.3003 141.295 22.3127 141.271 22.325C141.178 22.3744 141.104 22.4361 141.036 22.4978C140.967 22.5657 140.899 22.6213 140.819 22.6706C140.769 22.7077 140.72 22.7509 140.67 22.7941C140.627 22.8373 140.571 22.8805 140.503 22.9175C140.206 23.0965 139.853 23.2384 139.451 23.3434C139.358 23.3681 139.272 23.3866 139.179 23.3927C139.086 23.3989 138.993 23.4174 138.888 23.4421C138.838 23.4545 138.783 23.4606 138.721 23.4545C138.665 23.4483 138.609 23.4483 138.554 23.4668C138.516 23.4792 138.436 23.4853 138.312 23.4792C138.188 23.473 138.108 23.4606 138.071 23.4483C138.003 23.4483 137.941 23.4421 137.879 23.436C137.811 23.4298 137.749 23.4236 137.687 23.4236C137.532 23.3866 137.384 23.3495 137.241 23.3249C137.099 23.3002 136.957 23.257 136.814 23.2076C136.746 23.1829 136.697 23.1582 136.647 23.1397C136.604 23.1212 136.548 23.0965 136.48 23.0718C136.028 22.8249 135.663 22.4855 135.391 22.0411C135.224 21.7695 135.1 21.4424 135.02 21.0598C134.939 20.6771 134.896 20.2697 134.871 19.8377C134.852 19.4057 134.846 18.9551 134.852 18.4984C134.859 18.0417 134.865 17.585 134.865 17.1282V14.4867C134.865 14.32 134.859 14.1225 134.852 13.8941C134.846 13.6658 134.877 13.5053 134.939 13.4004C134.976 13.3387 135.057 13.277 135.174 13.2276C135.236 13.2584 135.292 13.2523 135.335 13.2399Z" fill="#1D1D1E"/>
<path id="Vector_11" d="M150.19 12.9499C151.161 12.9253 152.009 13.0302 152.733 13.2709C153.451 13.5116 154.002 13.9189 154.38 14.5053C154.473 14.6472 154.553 14.7953 154.621 14.9435C154.695 15.0916 154.751 15.2582 154.807 15.4372C154.832 15.5175 154.844 15.5977 154.844 15.6903C154.844 15.7829 154.832 15.8569 154.807 15.9248C154.757 16.005 154.683 16.0544 154.59 16.0791C154.522 16.1038 154.448 16.1161 154.355 16.1161C154.262 16.1161 154.175 16.1161 154.083 16.1161H153.228C153.136 16.1161 153.049 16.1223 152.956 16.1285C152.863 16.1347 152.783 16.1285 152.702 16.0976C152.572 16.0729 152.473 16.0174 152.411 15.9433C152.343 15.8631 152.288 15.7829 152.238 15.7026C152.189 15.6162 152.139 15.5298 152.09 15.4311C152.046 15.3323 151.978 15.2521 151.885 15.1903C151.755 15.0854 151.632 15.0114 151.508 14.9558C151.384 14.9064 151.229 14.8571 151.05 14.82C150.957 14.7953 150.827 14.7768 150.648 14.7645C150.474 14.7521 150.338 14.7583 150.245 14.783H150.109C150.041 14.7953 149.985 14.8077 149.923 14.8139C149.868 14.82 149.806 14.8324 149.738 14.8447C149.515 14.9126 149.335 14.999 149.199 15.1039C149.063 15.215 148.97 15.3817 148.915 15.5977C148.89 15.6903 148.89 15.7705 148.915 15.8507C148.939 15.931 148.964 15.9927 148.995 16.0421C149.088 16.1964 149.193 16.3198 149.317 16.4124C149.441 16.505 149.589 16.579 149.756 16.6469C150.004 16.7518 150.27 16.8383 150.567 16.9061C150.858 16.9802 151.155 17.0419 151.465 17.0975C151.768 17.153 152.071 17.2209 152.362 17.2888C152.653 17.3629 152.931 17.4493 153.191 17.548C153.309 17.5974 153.42 17.6406 153.532 17.6715C153.643 17.7023 153.748 17.7517 153.854 17.8196C154.101 17.9739 154.324 18.1405 154.528 18.3257C154.726 18.5047 154.887 18.733 155.005 19.0046C155.042 19.0972 155.079 19.1836 155.104 19.2762C155.129 19.3687 155.153 19.4613 155.184 19.5662C155.197 19.6465 155.209 19.7637 155.215 19.9242C155.221 20.0847 155.215 20.2143 155.203 20.3007V20.3995C155.178 20.4797 155.16 20.5538 155.153 20.6216C155.147 20.6957 155.135 20.7636 155.122 20.8253C155.03 21.2142 154.887 21.5598 154.695 21.856C154.485 22.1646 154.237 22.4177 153.934 22.6152C153.637 22.8065 153.297 22.9793 152.919 23.1213C152.777 23.1892 152.622 23.2324 152.461 23.2571C152.3 23.2817 152.139 23.3126 151.984 23.3558C151.867 23.3805 151.749 23.399 151.625 23.4052C151.502 23.4114 151.384 23.4299 151.266 23.4546H150.914C150.833 23.4792 150.703 23.4916 150.511 23.4916C150.326 23.4916 150.19 23.4792 150.109 23.4546C150.072 23.4546 150.029 23.4484 149.985 23.4422C149.942 23.436 149.892 23.4299 149.837 23.4299C149.682 23.4052 149.527 23.3867 149.366 23.3743C149.212 23.362 149.063 23.3373 148.921 23.2941C148.413 23.1521 147.968 22.9855 147.578 22.8003C147.188 22.6152 146.86 22.3313 146.587 21.9548C146.408 21.7079 146.247 21.424 146.117 21.1031C146.092 21.0228 146.067 20.9241 146.037 20.7945C146.012 20.7327 145.993 20.6402 145.981 20.5229C145.968 20.4056 145.975 20.3069 145.999 20.2328C146.036 20.1402 146.105 20.0785 146.191 20.0415C146.253 20.0168 146.334 20.0045 146.426 20.0045C146.519 20.0045 146.612 20.0045 146.717 20.0045H147.633C147.739 20.0045 147.844 20.0045 147.943 20.0045C148.048 20.0045 148.135 20.0168 148.215 20.0415C148.357 20.0909 148.45 20.1773 148.5 20.2945C148.543 20.4118 148.599 20.5352 148.667 20.6649C148.692 20.7327 148.741 20.813 148.815 20.9179C148.89 21.0228 148.945 21.0845 149.001 21.1092C149.156 21.2388 149.304 21.3376 149.447 21.4117C149.589 21.4857 149.769 21.5536 149.991 21.6153C150.053 21.64 150.121 21.6524 150.183 21.6462C150.245 21.64 150.313 21.6462 150.375 21.6585C150.48 21.6832 150.592 21.6956 150.716 21.6894C150.839 21.6832 150.945 21.6647 151.037 21.64C151.099 21.6277 151.161 21.6215 151.223 21.6215C151.279 21.6215 151.341 21.6092 151.409 21.5845C151.588 21.5227 151.755 21.4425 151.904 21.3499C152.053 21.2574 152.176 21.1401 152.263 20.9981C152.325 20.8932 152.381 20.7327 152.418 20.5106C152.442 20.418 152.442 20.3377 152.418 20.2575C152.393 20.1773 152.368 20.1155 152.337 20.0662C152.244 19.8872 152.133 19.7514 151.997 19.6588C151.861 19.5662 151.7 19.486 151.52 19.4058C151.273 19.3009 151.013 19.2206 150.74 19.1527C150.468 19.091 150.196 19.0169 149.923 18.9367C149.818 18.912 149.713 18.8935 149.602 18.8812C149.49 18.8688 149.385 18.8503 149.28 18.8256C148.865 18.7083 148.469 18.5973 148.091 18.4862C147.714 18.3751 147.373 18.2084 147.058 17.9924C146.693 17.7332 146.426 17.3814 146.259 16.9432C146.235 16.8506 146.21 16.7272 146.179 16.5729C146.154 16.4803 146.136 16.3754 146.123 16.2457C146.111 16.1161 146.117 15.9989 146.142 15.8939C146.166 15.8322 146.173 15.7767 146.16 15.7273C146.148 15.6841 146.154 15.6286 146.179 15.5607C146.204 15.4187 146.235 15.2829 146.266 15.1595C146.296 15.0361 146.34 14.9188 146.389 14.8015C146.556 14.425 146.792 14.1226 147.089 13.8881C147.386 13.6535 147.726 13.4684 148.104 13.3264C148.246 13.2647 148.395 13.2153 148.549 13.1783C148.704 13.1474 148.865 13.1104 149.038 13.0734C149.119 13.0487 149.193 13.0302 149.274 13.024C149.354 13.0178 149.428 13.0055 149.509 12.9931C149.614 12.9808 149.725 12.9746 149.837 12.9746C149.948 12.9746 150.091 12.9623 150.19 12.9499Z" fill="#1D1D1E"/>
<path id="Vector_12" d="M159.523 9.53065C159.616 9.63558 159.659 9.78987 159.659 9.99972C159.659 10.2096 159.659 10.4071 159.659 10.6046C159.659 10.7712 159.659 10.9502 159.659 11.1292C159.659 11.3082 159.616 11.4316 159.523 11.4995C159.442 11.5674 159.343 11.6044 159.22 11.6168C159.096 11.6291 158.966 11.6353 158.817 11.6353H157.728C157.586 11.6353 157.456 11.6291 157.35 11.6168C157.239 11.6044 157.146 11.5674 157.066 11.4995C157.016 11.4625 156.979 11.3884 156.96 11.2773C156.942 11.1662 156.93 11.0428 156.923 10.907C156.917 10.7712 156.917 10.6293 156.923 10.4873C156.93 10.3453 156.936 10.2219 156.936 10.117C156.936 10.0121 156.936 9.91949 156.948 9.83308C156.954 9.74667 156.979 9.67261 157.016 9.61089C157.041 9.56151 157.078 9.51831 157.121 9.49362C157.165 9.46894 157.214 9.44425 157.27 9.41339C157.295 9.41339 157.326 9.41339 157.369 9.40105C157.406 9.39487 157.443 9.3887 157.468 9.3887H158.892C159.022 9.3887 159.145 9.39487 159.263 9.40722C159.362 9.4319 159.455 9.46893 159.523 9.53065ZM159.659 22.1769C159.659 22.4362 159.653 22.6583 159.64 22.8373C159.628 23.0163 159.51 23.1398 159.288 23.2076C159.207 23.2323 159.127 23.2447 159.034 23.2385C158.941 23.2323 158.848 23.2262 158.743 23.2262H157.654C157.536 23.2262 157.425 23.22 157.313 23.2076C157.202 23.1953 157.121 23.1583 157.072 23.0904C156.991 22.9978 156.954 22.8867 156.948 22.7509C156.942 22.6151 156.936 22.467 156.936 22.3127V14.1164C156.936 13.9868 156.936 13.8572 156.936 13.7276C156.936 13.598 156.96 13.493 157.016 13.419C157.097 13.3264 157.202 13.2708 157.344 13.2462C157.369 13.2338 157.406 13.2276 157.449 13.2338C157.493 13.24 157.53 13.24 157.555 13.2215H158.526C158.607 13.2215 158.693 13.2215 158.786 13.2091C158.885 13.203 158.966 13.2091 159.028 13.2215H159.182C159.263 13.2462 159.331 13.2647 159.399 13.277C159.461 13.2894 159.517 13.3264 159.554 13.3943C159.603 13.4622 159.634 13.5486 159.64 13.6658C159.647 13.7831 159.653 13.9066 159.653 14.0362V22.1769H159.659Z" fill="#1D1D1E"/>
<path id="Vector_13" d="M171.908 17.8257C171.933 17.9059 171.945 18.0108 171.945 18.1528C171.945 18.2947 171.933 18.4058 171.908 18.4799V18.6712C171.883 18.7761 171.871 18.881 171.877 18.9798C171.883 19.0847 171.871 19.1896 171.846 19.2884C171.821 19.381 171.803 19.4612 171.79 19.5414C171.778 19.6217 171.765 19.7019 171.753 19.7945C171.704 19.9364 171.654 20.0846 171.617 20.2327C171.58 20.3808 171.524 20.5228 171.462 20.6524C171.19 21.2758 170.831 21.7757 170.391 22.1645C169.952 22.5533 169.42 22.8743 168.795 23.1335C168.64 23.2014 168.479 23.2446 168.318 23.2816C168.157 23.3125 167.99 23.3495 167.823 23.3866C167.755 23.4112 167.687 23.4236 167.606 23.4236C167.526 23.4236 167.458 23.4298 167.39 23.4421C167.352 23.4421 167.309 23.4421 167.266 23.4544C167.222 23.4606 167.179 23.4668 167.142 23.4668C167.074 23.4791 166.975 23.4915 166.833 23.4977C166.69 23.5038 166.579 23.4915 166.505 23.4668H166.313C166.245 23.4545 166.176 23.4483 166.108 23.4544C166.034 23.4606 165.966 23.4483 165.904 23.4236C165.855 23.4112 165.805 23.4051 165.756 23.4051C165.712 23.4051 165.657 23.3989 165.588 23.3866C165.459 23.3495 165.329 23.3125 165.199 23.2878C165.069 23.2631 164.945 23.2261 164.827 23.1705C164.672 23.1212 164.524 23.0656 164.388 23.0162C164.252 22.9669 164.109 22.899 163.967 22.8249C163.515 22.5533 163.125 22.2386 162.797 21.8744C162.475 21.5103 162.197 21.0783 161.98 20.5722C161.912 20.4549 161.869 20.3315 161.832 20.2018C161.801 20.0722 161.764 19.9364 161.726 19.7945C161.702 19.7328 161.689 19.6711 161.689 19.6217C161.689 19.5723 161.677 19.5106 161.652 19.4489C161.627 19.3439 161.615 19.239 161.615 19.1279C161.615 19.0168 161.603 18.9119 161.578 18.807C161.565 18.7453 161.559 18.6835 161.559 18.6342C161.559 18.5848 161.559 18.5231 161.559 18.4614C161.534 18.3811 161.522 18.2762 161.528 18.1342C161.534 17.9923 161.553 17.8812 161.578 17.8071V17.6714C161.59 17.6096 161.596 17.5417 161.59 17.4677C161.584 17.3936 161.59 17.3257 161.621 17.264C161.634 17.2023 161.64 17.1406 161.64 17.0788C161.64 17.0233 161.652 16.9616 161.677 16.8937C161.726 16.727 161.776 16.5604 161.813 16.3999C161.85 16.2395 161.906 16.079 161.968 15.9247C162.203 15.3939 162.481 14.9495 162.803 14.5916C163.125 14.2336 163.521 13.9065 163.992 13.6102C164.122 13.5485 164.258 13.4868 164.4 13.4374C164.542 13.388 164.685 13.3263 164.827 13.2646C164.994 13.2029 165.174 13.1535 165.353 13.1288C165.533 13.1041 165.725 13.0671 165.917 13.0115C166.022 12.9992 166.115 12.993 166.207 12.993C166.3 12.993 166.387 12.9869 166.48 12.9745C167.235 12.9622 167.885 13.0424 168.436 13.209C168.986 13.3757 169.475 13.6102 169.909 13.9065C170.051 14.0114 170.2 14.1225 170.348 14.2459C170.497 14.3694 170.627 14.499 170.726 14.6409C170.831 14.7705 170.924 14.9002 171.01 15.0298C171.097 15.1594 171.184 15.2952 171.27 15.4371C171.363 15.5791 171.431 15.7334 171.487 15.8938C171.536 16.0543 171.598 16.2271 171.66 16.4061C171.697 16.511 171.734 16.6221 171.759 16.7332C171.784 16.8505 171.809 16.9678 171.84 17.085C171.852 17.1344 171.858 17.1899 171.858 17.2393C171.858 17.2887 171.864 17.3442 171.877 17.3936C171.902 17.4615 171.908 17.5294 171.895 17.6096C171.871 17.6899 171.877 17.7578 171.908 17.8257ZM169.178 18.5231C169.191 18.4614 169.197 18.3626 169.197 18.2392C169.197 18.1157 169.191 18.0232 169.178 17.9553V17.801C169.154 17.7392 169.141 17.6652 169.141 17.5849C169.141 17.5047 169.135 17.4368 169.123 17.3689C169.123 17.3196 169.116 17.2763 169.104 17.2517C169.079 17.1467 169.055 17.0418 169.036 16.9307C169.017 16.8196 168.986 16.7147 168.949 16.6098C168.807 16.2703 168.64 15.9864 168.442 15.7457C168.25 15.505 167.99 15.3137 167.662 15.1717C167.581 15.147 167.507 15.1223 167.427 15.1038C167.346 15.0853 167.266 15.0606 167.173 15.0359C167.068 15.0113 166.956 14.9989 166.845 15.0051C166.727 15.0113 166.61 15.0174 166.492 15.0174C166.455 15.0421 166.405 15.0545 166.356 15.0483C166.306 15.0421 166.257 15.0483 166.22 15.0606C166.127 15.0853 166.04 15.11 165.96 15.1285C165.873 15.147 165.799 15.1779 165.737 15.2149C165.415 15.3569 165.149 15.5606 164.951 15.8259C164.747 16.0913 164.592 16.3999 164.474 16.7456C164.437 16.8752 164.406 17.011 164.388 17.1529C164.369 17.2949 164.344 17.4368 164.32 17.5788C164.307 17.6467 164.301 17.7084 164.301 17.7701C164.301 17.838 164.301 17.8997 164.301 17.9614C164.276 18.054 164.264 18.1898 164.27 18.3688C164.276 18.5478 164.295 18.6835 164.32 18.7761V18.9489C164.344 19.0539 164.363 19.1526 164.375 19.2514C164.388 19.3501 164.406 19.4489 164.431 19.5538C164.561 19.9426 164.703 20.2574 164.852 20.4981C165.001 20.7388 165.236 20.9548 165.564 21.1461C165.657 21.214 165.756 21.2634 165.867 21.3004C165.978 21.3375 166.09 21.3745 166.207 21.3992C166.257 21.4115 166.306 21.4177 166.344 21.4115C166.381 21.4054 166.43 21.4115 166.48 21.4239C166.529 21.4362 166.585 21.4486 166.647 21.4547C166.703 21.4609 166.758 21.4609 166.814 21.4424H166.969C167.074 21.4177 167.179 21.3992 167.278 21.3869C167.383 21.3745 167.476 21.3498 167.569 21.3066C167.909 21.177 168.182 21.0042 168.386 20.782C168.596 20.5598 168.77 20.2882 168.912 19.9673C168.962 19.8377 169.005 19.7081 169.03 19.5785C169.055 19.4489 169.085 19.3131 169.129 19.1711C169.141 19.1218 169.147 19.0724 169.147 19.023C169.147 18.9798 169.154 18.9304 169.166 18.8749C169.166 18.8132 169.166 18.7514 169.166 18.6897C169.166 18.628 169.166 18.591 169.178 18.5231Z" fill="#1D1D1E"/>
<path id="Vector_14" d="M179.465 12.9683C180.245 12.9437 180.895 13.0548 181.415 13.2955C181.934 13.5423 182.343 13.9065 182.64 14.3817C182.733 14.5237 182.801 14.678 182.857 14.8384C182.906 14.9989 182.962 15.1656 183.011 15.3322C183.036 15.4371 183.055 15.5359 183.061 15.6223C183.067 15.7149 183.086 15.8013 183.11 15.8938C183.11 15.9741 183.117 16.0234 183.129 16.0481C183.154 16.2271 183.166 16.4185 183.166 16.6098C183.166 16.8011 183.166 16.9924 183.166 17.1714V18.8996V22.0472C183.166 22.2941 183.16 22.5287 183.154 22.757C183.148 22.9854 183.055 23.1273 182.869 23.1952C182.789 23.2199 182.702 23.2323 182.597 23.2323C182.492 23.2323 182.386 23.2323 182.287 23.2323H181.235C181.08 23.2323 180.938 23.2199 180.814 23.2014C180.69 23.1829 180.598 23.1273 180.53 23.0348C180.48 22.9545 180.449 22.8558 180.443 22.7323C180.437 22.6089 180.43 22.4793 180.43 22.3312V20.9733V18.0787C180.43 17.5973 180.412 17.1591 180.375 16.7456C180.338 16.3382 180.22 15.9926 180.022 15.7087C179.842 15.4495 179.576 15.2705 179.224 15.1656C179.155 15.1409 179.087 15.1285 179.019 15.1285C178.945 15.1285 178.871 15.1162 178.797 15.0915C178.728 15.0791 178.648 15.073 178.555 15.0791C178.456 15.0853 178.382 15.0977 178.332 15.11C178.283 15.1223 178.233 15.1285 178.196 15.1285C178.159 15.1285 178.116 15.1347 178.079 15.147C177.781 15.2273 177.54 15.326 177.361 15.4556C176.946 15.7519 176.698 16.1901 176.618 16.7579C176.537 17.3257 176.5 17.9676 176.5 18.6835V21.1091V22.2941C176.5 22.4114 176.5 22.5287 176.5 22.6459C176.5 22.7632 176.482 22.8619 176.445 22.936C176.376 23.078 176.277 23.1644 176.135 23.1891C175.993 23.2137 175.819 23.2261 175.609 23.2261H174.637C174.495 23.2261 174.353 23.2199 174.21 23.2076C174.068 23.1952 173.963 23.152 173.901 23.0718C173.808 22.9545 173.765 22.7879 173.777 22.5657C173.783 22.3435 173.789 22.1398 173.789 21.9423V19.3007V15.0298V14.0423C173.789 13.9003 173.789 13.7707 173.802 13.6534C173.808 13.5362 173.845 13.4374 173.907 13.3633C173.932 13.3263 173.975 13.2955 174.031 13.2769C174.086 13.2584 174.148 13.2399 174.216 13.2276H174.315C174.377 13.2152 174.445 13.209 174.52 13.209C174.594 13.209 174.662 13.209 174.724 13.209H175.541C175.646 13.209 175.745 13.2152 175.844 13.2214C175.943 13.2276 176.03 13.2461 176.104 13.2708C176.197 13.3078 176.259 13.3695 176.29 13.4436C176.321 13.5238 176.352 13.6102 176.376 13.7151C176.389 13.7645 176.395 13.8139 176.389 13.8509C176.383 13.888 176.389 13.9312 176.42 13.9682C176.445 14.0361 176.469 14.0731 176.488 14.0855C176.506 14.0978 176.537 14.1163 176.575 14.141C176.717 14.1534 176.834 14.104 176.927 13.9929C177.02 13.8818 177.113 13.7954 177.218 13.7337C177.571 13.4744 177.961 13.2646 178.388 13.1103C178.506 13.0733 178.623 13.0486 178.747 13.0301C178.871 13.0177 179.001 12.9992 179.143 12.9745C179.18 12.9622 179.242 12.956 179.316 12.9622C179.384 12.9869 179.434 12.9807 179.465 12.9683Z" fill="#1D1D1E"/>
<path id="Vector_15" d="M190.952 16.8566C191.014 16.906 191.064 16.9924 191.088 17.0973C191.113 17.2084 191.132 17.3319 191.138 17.4677C191.144 17.6034 191.144 17.7454 191.138 17.8874C191.132 18.0293 191.126 18.1589 191.126 18.2762C191.126 18.3811 191.126 18.4799 191.126 18.5786C191.126 18.6774 191.113 18.7638 191.088 18.8378C191.02 18.9798 190.921 19.06 190.779 19.0785C190.637 19.0971 190.47 19.1094 190.271 19.1094H186.632C186.465 19.1094 186.261 19.1156 186.026 19.1217C185.79 19.1279 185.623 19.0971 185.518 19.0353C185.438 18.986 185.382 18.9057 185.351 18.7946C185.32 18.6835 185.301 18.5601 185.295 18.4243C185.289 18.2885 185.289 18.1466 185.295 17.9984C185.301 17.8503 185.308 17.7145 185.308 17.5973C185.308 17.48 185.308 17.3627 185.32 17.2455C185.326 17.1282 185.351 17.0356 185.388 16.9739C185.438 16.9122 185.524 16.8505 185.642 16.8011C185.667 16.8011 185.698 16.8011 185.729 16.7887C185.759 16.7826 185.79 16.7764 185.815 16.7764H190.389C190.507 16.7764 190.612 16.7826 190.711 16.7887C190.804 16.7949 190.884 16.8134 190.952 16.8566Z" fill="#1D1D1E"/>
<path id="Vector_16" d="M193.211 9.39487H195.062C195.254 9.39487 195.44 9.40104 195.619 9.40722C195.792 9.41339 195.935 9.46276 196.04 9.55534C196.089 9.58003 196.133 9.62323 196.164 9.67261C196.195 9.72198 196.232 9.77753 196.269 9.82691C196.331 9.93183 196.393 10.0368 196.455 10.1355C196.51 10.2404 196.572 10.3453 196.64 10.4441C196.863 10.7836 197.074 11.1168 197.272 11.444C197.47 11.7711 197.686 12.1105 197.903 12.4438C197.983 12.5734 198.058 12.6969 198.126 12.8203C198.2 12.9437 198.274 13.061 198.349 13.1783C198.398 13.2462 198.448 13.3079 198.497 13.3696C198.54 13.4375 198.609 13.4807 198.701 13.5054C198.782 13.5177 198.844 13.5054 198.893 13.456C198.943 13.4128 198.986 13.3758 199.011 13.3511C199.128 13.2338 199.227 13.1042 199.302 12.9499C199.382 12.8018 199.469 12.6536 199.574 12.5117C199.797 12.1476 200.026 11.7896 200.267 11.4254C200.509 11.0613 200.738 10.7033 200.96 10.3392C201.066 10.1849 201.177 10.0121 201.288 9.81456C201.4 9.61706 201.561 9.49362 201.759 9.42573C201.864 9.40104 201.982 9.3887 202.112 9.3887C202.242 9.3887 202.372 9.3887 202.502 9.3887H203.907C204.049 9.3887 204.191 9.39487 204.334 9.40722C204.476 9.41956 204.563 9.48128 204.587 9.58003C204.625 9.67261 204.618 9.75284 204.556 9.83308C204.501 9.91332 204.457 9.97503 204.433 10.0244C204.315 10.2034 204.197 10.3824 204.08 10.5614C203.962 10.7342 203.845 10.9132 203.727 11.0983C203.312 11.7093 202.904 12.308 202.508 12.9067C202.112 13.5054 201.703 14.1041 201.288 14.7151C201.183 14.8694 201.084 15.0237 200.998 15.1718C200.905 15.3199 200.812 15.4742 200.707 15.6285C200.682 15.6779 200.645 15.7458 200.601 15.8198C200.558 15.9001 200.546 15.9865 200.571 16.0914C200.595 16.2087 200.639 16.3074 200.694 16.3938C200.75 16.4802 200.812 16.5667 200.88 16.6531C201.103 17.0049 201.35 17.3628 201.623 17.7393C202 18.3195 202.378 18.8996 202.762 19.4798C203.145 20.0538 203.529 20.634 203.919 21.2203C204.061 21.4425 204.204 21.6523 204.346 21.8622C204.488 22.072 204.631 22.2819 204.773 22.504C204.798 22.5534 204.847 22.6337 204.922 22.7386C204.996 22.8435 205.014 22.9422 204.99 23.0287C204.953 23.1459 204.854 23.2076 204.699 23.2138C204.544 23.22 204.389 23.2262 204.228 23.2262H202.669C202.539 23.2262 202.403 23.2323 202.26 23.2385C202.118 23.2447 201.994 23.2385 201.889 23.2076C201.666 23.1459 201.499 23.0101 201.381 22.8065C201.264 22.609 201.146 22.4176 201.029 22.2325C200.769 21.8313 200.515 21.4301 200.261 21.029C200.007 20.6278 199.754 20.2266 199.494 19.8254C199.425 19.7329 199.376 19.6464 199.326 19.5662C199.283 19.4798 199.227 19.3934 199.159 19.307C199.122 19.2453 199.079 19.1774 199.042 19.1157C199.005 19.0539 198.955 18.986 198.906 18.9243C198.868 18.8873 198.819 18.8379 198.769 18.7885C198.72 18.7392 198.646 18.7268 198.553 18.7515C198.46 18.7762 198.392 18.8256 198.349 18.8873C198.305 18.9552 198.256 19.0169 198.2 19.0786C198.12 19.1959 198.045 19.3132 197.977 19.4304C197.903 19.5477 197.829 19.665 197.754 19.7822C197.482 20.1957 197.21 20.6093 196.937 21.0166C196.665 21.424 196.399 21.8375 196.139 22.251C196.034 22.4176 195.922 22.609 195.799 22.8126C195.675 23.0225 195.501 23.1583 195.285 23.22C195.18 23.2447 195.062 23.257 194.932 23.2509C194.802 23.2447 194.678 23.2385 194.561 23.2385H193.273C193.143 23.2385 193.007 23.2447 192.865 23.2509C192.722 23.257 192.605 23.2323 192.512 23.183C192.487 23.1583 192.469 23.1336 192.456 23.1151C192.444 23.0965 192.425 23.0719 192.401 23.0472C192.388 22.9052 192.419 22.788 192.487 22.6892C192.562 22.5905 192.63 22.4917 192.692 22.3868C192.834 22.1769 192.97 21.9794 193.1 21.7819C193.23 21.5906 193.366 21.3869 193.509 21.1771C193.886 20.6093 194.264 20.0414 194.635 19.4798C195.013 18.9182 195.39 18.3442 195.761 17.764C195.867 17.5974 195.978 17.4307 196.089 17.2703C196.207 17.1098 196.318 16.9431 196.417 16.7765C196.479 16.6716 196.554 16.5667 196.634 16.4679C196.715 16.363 196.764 16.2395 196.789 16.0976C196.814 15.9927 196.807 15.9001 196.77 15.8137C196.733 15.7273 196.69 15.6594 196.653 15.61C196.56 15.4557 196.473 15.3076 196.38 15.1656C196.288 15.0237 196.195 14.8817 196.089 14.7398C196.021 14.6348 195.959 14.5423 195.898 14.4497C195.829 14.3571 195.768 14.2645 195.706 14.1596C195.433 13.7584 195.161 13.3572 194.895 12.9622C194.629 12.5672 194.35 12.1722 194.066 11.7711C193.997 11.6661 193.942 11.5736 193.88 11.481C193.824 11.3884 193.762 11.2958 193.694 11.1909C193.601 11.0736 193.521 10.9564 193.453 10.8391C193.379 10.7218 193.304 10.6107 193.23 10.512C193.162 10.4318 193.106 10.3577 193.057 10.2775C193.007 10.1972 192.951 10.1232 192.902 10.0429C192.877 9.9812 192.84 9.90097 192.797 9.80839C192.753 9.71581 192.753 9.63558 192.809 9.55534C192.846 9.50597 192.927 9.46276 193.044 9.43808C193.069 9.42573 193.094 9.41956 193.125 9.42573C193.156 9.41339 193.187 9.40721 193.211 9.39487Z" fill="#1D1D1E"/>
</g>
<g id="Group_2">
<path id="Vector_17" d="M5.34988 29.7147C4.01999 28.3782 2.93332 26.9644 2.13642 25.5763C2.1209 25.6795 2.11572 25.7879 2.11572 25.8962C2.12607 26.309 2.23992 26.7373 2.42103 27.1811C2.84017 28.1976 3.62155 29.2967 4.66165 30.3442C4.66165 30.3442 4.66683 30.3442 4.66683 30.3494C4.67717 30.3597 4.68235 30.3649 4.6927 30.37C5.48442 31.1544 6.31236 31.7891 7.10408 32.2328C7.90615 32.6766 8.68753 32.9501 9.39128 32.883C9.39128 32.883 9.39128 32.883 9.39645 32.883C8.04587 32.0935 6.67976 31.0357 5.3861 29.756C5.37575 29.7405 5.3654 29.7302 5.34988 29.7147Z" fill="#3A6593"/>
<path id="Vector_18" d="M14.4159 33.8169C13.4017 33.3525 12.3616 32.7694 11.3267 32.0831C11.1093 32.0057 10.8868 31.9232 10.6591 31.8251C9.33444 31.2575 7.91141 30.3132 6.59187 29.049C6.49355 28.9561 6.39524 28.8632 6.29692 28.7652C6.27105 28.7394 6.24517 28.7084 6.2193 28.6826C4.62551 27.0675 3.51813 25.2769 2.99032 23.7031C2.03818 22.2479 1.29821 20.7928 0.791094 19.3944C0.703125 19.6679 0.630681 19.9517 0.604808 20.251C0.527188 21.0714 0.65138 21.9693 0.94116 22.9136C1.20507 23.7702 1.61386 24.6629 2.1365 25.5711C2.93857 26.9591 4.02007 28.373 5.34996 29.7043C5.36548 29.7198 5.37583 29.7301 5.39136 29.7404C6.68502 31.0253 8.05112 32.078 9.40171 32.8675C9.80015 33.0997 10.1986 33.3164 10.5919 33.5021C12.3254 34.3174 13.9761 34.6787 15.3629 34.3794C15.3629 34.3794 15.3629 34.3794 15.3681 34.3794C15.4612 34.3587 15.5544 34.3278 15.6475 34.302C15.2335 34.1626 14.8247 34.0027 14.4159 33.8169Z" fill="#5089B3"/>
<path id="Vector_19" d="M21.8571 31.7271C21.8157 31.7787 21.7795 31.8354 21.7329 31.8819C21.293 32.3153 20.7549 32.6198 20.108 32.8055C19.3525 33.0223 18.4366 33.0584 17.4276 32.9191C17.4121 32.9191 17.3965 32.9139 17.3758 32.9087C16.4496 32.7746 15.4457 32.4908 14.4056 32.0522C12.2426 31.144 9.92434 29.5908 7.81826 27.5009C7.78204 27.47 7.75099 27.439 7.71477 27.4029C7.70442 27.3926 7.69407 27.3771 7.67854 27.3668C4.91011 24.5855 3.08864 21.4327 2.43146 18.7546C2.14167 17.5781 2.0744 16.5047 2.22447 15.5966C2.37453 14.6884 2.72641 13.9608 3.28527 13.4035C3.32667 13.3622 3.38359 13.3261 3.42498 13.2848C3.17143 12.3405 3.02654 11.4324 2.98514 10.5603C2.40558 10.7925 1.87777 11.1228 1.43275 11.5614C0.635851 12.3509 0.190834 13.3984 0.0511183 14.5749C-0.0885971 15.7462 0.0614626 17.0517 0.45991 18.4295C0.553054 18.7494 0.666899 19.0745 0.785915 19.3996C1.29303 20.798 2.033 22.248 2.98514 23.7083C3.98385 25.2305 5.19989 26.7579 6.63327 28.2079C6.67984 28.2543 6.72123 28.3008 6.7678 28.3472C6.84542 28.4246 6.92822 28.4968 7.00584 28.5742C8.39782 29.9417 9.86224 31.113 11.3215 32.078C12.3564 32.7643 13.3965 33.3474 14.4108 33.8118C14.8247 33.9975 15.2335 34.1627 15.6371 34.3123C17.7122 35.0812 19.6682 35.3443 21.3189 34.9521C21.3189 34.9521 21.3241 34.9521 21.3293 34.9521C22.1934 34.7406 22.9696 34.3329 23.5854 33.724C24.0252 33.2854 24.3461 32.7643 24.5789 32.1915C23.7096 32.145 22.7989 31.9851 21.8571 31.7271Z" fill="#68A5C4"/>
<path id="Vector_20" d="M31.3422 25.4628C31.1249 25.5453 30.8972 25.6227 30.6643 25.6795C30.6643 25.6795 30.6643 25.6847 30.6592 25.6847C30.2141 25.7879 29.7484 25.8446 29.2672 25.8549C29.1223 27.0779 28.6824 28.0944 27.9425 28.822C27.4043 29.3535 26.7368 29.7302 25.9451 29.9521C24.196 30.4474 21.8105 30.1533 19.2439 29.08C16.9256 28.1099 14.4677 26.5051 12.1857 24.3688C11.9476 24.1418 11.7044 23.9199 11.4716 23.6825C11.3422 23.5535 11.2232 23.4245 11.0938 23.3007C8.0977 20.184 6.10547 16.7009 5.35514 13.6926C5.00327 12.2942 4.92047 11.0041 5.09641 9.90504C5.27752 8.80593 5.70702 7.91323 6.39007 7.22694C6.92824 6.69545 7.59059 6.31876 8.38748 6.09687C8.69279 6.00915 9.02397 5.95755 9.37067 5.92143C9.37584 5.70987 9.38101 5.50346 9.40689 5.29706C9.46898 4.78621 9.588 4.30115 9.76911 3.84706C8.8946 3.80062 8.06148 3.85739 7.28528 4.04831C6.27623 4.30115 5.37067 4.77589 4.65657 5.48798C3.73548 6.40132 3.20766 7.61395 3.0369 8.97106C2.9748 9.47675 2.96963 10.0082 2.9955 10.5552C3.0369 11.4273 3.18179 12.3354 3.43534 13.2797C3.45087 13.3365 3.46122 13.3881 3.47674 13.4449C4.49097 17.0208 6.93858 21.0302 10.5246 24.6165C13.293 27.3823 16.315 29.4773 19.1921 30.7622C20.1029 31.1647 20.9929 31.4846 21.8674 31.722C22.8092 31.98 23.72 32.14 24.5841 32.1864C25.4586 32.2328 26.2866 32.1761 27.0524 31.9852C27.0576 31.9852 27.0576 31.9852 27.0576 31.9852C28.0667 31.7323 28.967 31.2576 29.6863 30.5455C30.9489 29.2761 31.4457 27.4855 31.3422 25.4628Z" fill="#7FB0CC"/>
<path id="Vector_21" d="M33.8985 17.5782C33.8157 17.284 33.7122 16.9847 33.6035 16.6855C33.4483 17.0725 33.231 17.4233 32.9308 17.7175C32.6928 17.9548 32.4185 18.1406 32.1184 18.2851C32.2271 19.0591 32.2323 19.7764 32.1339 20.4059C31.9787 21.3141 31.632 22.0468 31.0731 22.5989C30.6333 23.0324 30.0951 23.3368 29.4483 23.5226C27.989 23.9406 25.9502 23.698 23.751 22.7692C21.707 21.9126 19.5337 20.4781 17.5259 18.5637C17.3707 18.4141 17.2154 18.2696 17.0602 18.1148C16.9567 18.0116 16.8532 17.9032 16.7497 17.7949C14.1365 15.0858 12.4082 12.0568 11.7717 9.46646C11.4819 8.29511 11.4147 7.21665 11.5647 6.31363C11.7148 5.40545 12.0667 4.67788 12.6255 4.12058C13.0602 3.68713 13.5984 3.38269 14.2452 3.19692C15.011 2.97504 15.9373 2.94408 16.9567 3.09372C17.1016 2.80475 17.2827 2.53127 17.5156 2.29906C17.8105 2.00494 18.1676 1.78821 18.5557 1.63341C16.5376 0.905833 14.6385 0.663308 13.0343 1.05032C12.165 1.26188 11.3888 1.66437 10.773 2.27842C10.3228 2.72219 9.98646 3.25368 9.7536 3.8471C9.57248 4.30119 9.45347 4.78624 9.39137 5.29709C9.3655 5.49833 9.36549 5.7099 9.35515 5.92146C9.31892 6.92768 9.46899 8.01647 9.79499 9.15169C10.7057 12.3097 12.8998 15.865 16.0977 19.0694C18.5505 21.5205 21.2103 23.3833 23.7407 24.5391C25.7019 25.4318 27.5906 25.9014 29.2568 25.855C29.7381 25.8395 30.209 25.7879 30.6488 25.6847C30.6488 25.6847 30.6488 25.6795 30.654 25.6795C30.8868 25.6228 31.1094 25.5505 31.3319 25.4628C31.927 25.2306 32.4651 24.8952 32.9153 24.4514C33.7122 23.6619 34.1572 22.6093 34.2969 21.4379C34.447 20.2563 34.2918 18.9559 33.8985 17.5782Z" fill="#9AC6DD"/>
<path id="Vector_22" d="M33.5311 12.9392C33.1689 11.7782 32.548 10.5397 31.72 9.30131C31.8494 9.63671 31.9373 9.9618 31.9632 10.2714C31.9943 10.6533 31.9115 11.0196 31.6683 11.2673C31.5492 11.3808 31.3992 11.4582 31.2388 11.5047C31.4147 11.9175 31.5544 12.3251 31.6527 12.707C31.8442 13.4552 31.8908 14.1312 31.808 14.6833C31.72 15.2406 31.5182 15.6637 31.1974 15.9837C30.949 16.2365 30.6333 16.4068 30.2401 16.5151C29.3655 16.7628 28.0667 16.6029 26.6489 15.9888C25.2258 15.3799 23.689 14.3376 22.2918 12.934C20.4651 11.1022 19.2543 9.03814 18.8144 7.31466C18.623 6.56645 18.5712 5.88531 18.6592 5.33318C18.7472 4.77589 18.949 4.35276 19.275 4.03283C19.5285 3.77999 19.8338 3.60454 20.2271 3.49618C21.0809 3.25366 22.3384 3.4033 23.7148 3.98123C23.7614 3.82127 23.8442 3.67162 23.958 3.5581C24.1443 3.37234 24.4134 3.27946 24.7032 3.26398C25.1016 3.2485 25.5311 3.36202 25.9813 3.54262C25.2776 3.06789 24.579 2.6654 23.8908 2.34032C22.1521 1.52502 20.5066 1.15865 19.1197 1.45794C18.9283 1.49922 18.7472 1.56114 18.5712 1.63338C18.1831 1.78818 17.8261 2.00491 17.5311 2.29904C17.2983 2.53124 17.1172 2.79957 16.9723 3.09369C16.7705 3.49618 16.6411 3.93995 16.5945 4.41468C16.5169 5.23514 16.6411 6.133 16.936 7.0773C17.5984 9.21359 19.1042 11.6027 21.2569 13.7803C21.2879 13.8112 21.3138 13.8422 21.3448 13.8732C21.4173 13.9506 21.5001 14.0176 21.5725 14.0899C23.1922 15.6637 24.9257 16.8867 26.5764 17.671C28.3099 18.4863 29.9658 18.8527 31.3474 18.5534H31.3578C31.632 18.4915 31.8908 18.3986 32.134 18.2799C32.4341 18.1354 32.7084 17.9497 32.9464 17.7123C33.2414 17.4182 33.4639 17.0673 33.6191 16.6803C33.7536 16.3397 33.8468 15.9785 33.883 15.5966C33.9451 14.7865 33.8209 13.8835 33.5311 12.9392Z" fill="#B6D4E3"/>
<path id="Vector_23" d="M31.9631 10.2716C31.9372 9.96198 31.8493 9.6369 31.7199 9.30149C31.6837 9.21377 31.6474 9.12605 31.6112 9.03832C31.161 8.0579 30.359 6.96912 29.3189 5.92678C28.5168 5.12696 27.6888 4.47163 26.9023 4.00722C26.5866 3.82145 26.2813 3.67181 25.9812 3.54797C25.531 3.3622 25.1015 3.25384 24.7031 3.26932C24.4133 3.2848 24.1442 3.37768 23.9579 3.56345C23.8389 3.68213 23.7613 3.82661 23.7147 3.98657C23.663 4.16202 23.6474 4.35294 23.663 4.55419C23.6888 4.9412 23.8234 5.354 24.02 5.78229C24.4754 6.76787 25.2723 7.8515 26.3124 8.899C26.3176 8.90416 26.3227 8.90932 26.3279 8.91448C26.3797 8.96608 26.4366 9.01252 26.4883 9.06413C27.2335 9.78138 27.9941 10.38 28.7289 10.8134C29.5103 11.2778 30.2658 11.5823 30.9282 11.5513H30.9333C31.042 11.5461 31.1455 11.5255 31.2438 11.4997C31.4094 11.4533 31.5595 11.3759 31.6733 11.2623C31.9062 11.0198 31.9941 10.6534 31.9631 10.2716ZM30.3538 9.57498C30.3227 9.60594 30.2813 9.62658 30.2037 9.64206C30.0226 9.67818 29.5828 9.59562 29.0394 9.31181C28.5013 9.03316 27.8751 8.56875 27.2749 7.97018C26.4987 7.19616 25.9502 6.35507 25.7328 5.74617C25.6345 5.48301 25.5983 5.27144 25.6035 5.13212C25.6086 4.9928 25.6397 4.93604 25.6759 4.89991C25.707 4.86895 25.7484 4.84831 25.8311 4.83283C26.0123 4.79671 26.4573 4.87927 26.9903 5.16824C27.5336 5.45205 28.1494 5.90614 28.7496 6.49955L28.7548 6.50471C29.531 7.27873 30.0795 8.11982 30.2969 8.72872C30.3952 8.99188 30.4314 9.20345 30.4262 9.34277C30.4262 9.48209 30.3952 9.53369 30.3538 9.57498Z" fill="#D0E3F3"/>
</g>
</g>
</svg>
