<svg width="18" height="18" viewBox="0 0 18 18" fill="none" xmlns="http://www.w3.org/2000/svg">
<path d="M8.625 10.5087C7.09004 10.4373 5.53751 10.8048 4.18318 11.6112C3.1221 12.243 0.340025 13.5331 2.0345 15.1475C2.86223 15.936 3.78412 16.5 4.94315 16.5H9" stroke="#2B2B2B" stroke-width="1.4" stroke-linecap="round" stroke-linejoin="round"/>
<path d="M11.625 4.875C11.625 6.73896 10.114 8.25 8.25 8.25C6.38604 8.25 4.875 6.73896 4.875 4.875C4.875 3.01104 6.38604 1.5 8.25 1.5C10.114 1.5 11.625 3.01104 11.625 4.875Z" stroke="#2B2B2B" stroke-width="1.4"/>
<path d="M13.5 15.5357V16.5M13.5 15.5357C12.6324 15.5357 11.8681 15.1096 11.4197 14.4625M13.5 15.5357C14.3676 15.5357 15.1319 15.1096 15.5803 14.4625M11.4197 14.4625L10.5003 15.0535M11.4197 14.4625C11.1546 14.0798 11 13.6198 11 13.125C11 12.6302 11.1545 12.1703 11.4197 11.7877M15.5803 14.4625L16.4997 15.0535M15.5803 14.4625C15.8454 14.0798 16 13.6198 16 13.125C16 12.6302 15.8455 12.1703 15.5803 11.7877M13.5 10.7143C14.3677 10.7143 15.1321 11.1405 15.5803 11.7877M13.5 10.7143C12.6323 10.7143 11.8679 11.1405 11.4197 11.7877M13.5 10.7143V9.75M15.5803 11.7877L16.5 11.1965M11.4197 11.7877L10.5 11.1965" stroke="#2B2B2B" stroke-width="1.4" stroke-linecap="round"/>
</svg>
