<svg width="18" height="18" viewBox="0 0 18 18" fill="none" xmlns="http://www.w3.org/2000/svg">
<g id="credit-card-validation">
<path id="Vector" d="M11.25 5.625C11.25 5.625 11.625 5.625 12 6.375C12 6.375 13.1911 4.5 14.25 4.125" stroke="#2B2B2B" stroke-width="1.2" stroke-linecap="round" stroke-linejoin="round"/>
<path id="Vector_2" d="M16.5 5.25C16.5 7.32107 14.821 9 12.75 9C10.679 9 9 7.32107 9 5.25C9 3.17893 10.679 1.5 12.75 1.5C14.821 1.5 16.5 3.17893 16.5 5.25Z" stroke="#2B2B2B" stroke-width="1.2" stroke-linecap="round"/>
<g id="Vector_3">
<mask id="path-3-inside-1_374_451" fill="white">
<path d="M17.0625 9.93338C17.062 9.62265 16.8097 9.37125 16.499 9.37185C16.1884 9.37238 15.937 9.62468 15.9375 9.93533L17.0625 9.93338ZM6.79936 5.06469C7.11002 5.06293 7.36043 4.80967 7.35868 4.49902C7.35692 4.18836 7.10365 3.93795 6.793 3.93971L6.79936 5.06469ZM10.125 15.9378H7.875V17.0628H10.125V15.9378ZM7.875 15.9378C6.45233 15.9378 5.43265 15.937 4.64921 15.8485C3.87612 15.7611 3.40769 15.5948 3.05422 15.3157L2.35697 16.1986C2.9445 16.6626 3.65132 16.8679 4.52294 16.9664C5.38422 17.0636 6.47874 17.0628 7.875 17.0628V15.9378ZM0.9375 10.5003C0.9375 11.812 0.936428 12.8491 1.04072 13.667C1.14699 14.5003 1.37011 15.1796 1.86974 15.74L2.70947 14.9913C2.41949 14.666 2.24781 14.2392 2.15669 13.5246C2.06357 12.7945 2.0625 11.8418 2.0625 10.5003H0.9375ZM3.05422 15.3157C2.92909 15.2169 2.81378 15.1083 2.70947 14.9913L1.86974 15.74C2.01801 15.9063 2.18108 16.0597 2.35697 16.1986L3.05422 15.3157ZM15.9375 10.5003C15.9375 11.8418 15.9364 12.7945 15.8433 13.5246C15.7522 14.2392 15.5805 14.666 15.2905 14.9913L16.1302 15.74C16.6299 15.1796 16.853 14.5003 16.9593 13.667C17.0635 12.8491 17.0625 11.812 17.0625 10.5003H15.9375ZM10.125 17.0628C11.5213 17.0628 12.6157 17.0636 13.477 16.9664C14.3487 16.8679 15.0555 16.6626 15.643 16.1986L14.9458 15.3157C14.5923 15.5948 14.1238 15.7611 13.3507 15.8485C12.5674 15.937 11.5477 15.9378 10.125 15.9378V17.0628ZM15.2905 14.9913C15.1862 15.1083 15.0709 15.2169 14.9458 15.3157L15.643 16.1986C15.8189 16.0597 15.982 15.9063 16.1302 15.74L15.2905 14.9913ZM2.0625 10.5003C2.0625 9.15885 2.06357 8.20613 2.15669 7.47599C2.24781 6.76139 2.41949 6.33455 2.70947 6.0093L1.86974 5.26065C1.37011 5.82106 1.14699 6.50032 1.04072 7.33369C0.936428 8.15153 0.9375 9.18863 0.9375 10.5003H2.0625ZM2.35697 4.80201C2.18108 4.94092 2.01801 5.09434 1.86974 5.26065L2.70947 6.0093C2.81378 5.8923 2.92909 5.78371 3.05422 5.6849L2.35697 4.80201ZM17.0625 10.5003C17.0625 10.3059 17.0628 10.1156 17.0625 9.93338L15.9375 9.93533C15.9378 10.1164 15.9375 10.3032 15.9375 10.5003H17.0625ZM6.793 3.93971C5.73733 3.94568 4.87808 3.97 4.17419 4.08108C3.45976 4.19384 2.86397 4.40162 2.35697 4.80201L3.05422 5.6849C3.35967 5.44367 3.75093 5.2868 4.34957 5.19233C4.95873 5.09619 5.73854 5.07069 6.79936 5.06469L6.793 3.93971Z"/>
</mask>
<path d="M14.9458 15.3157L15.4951 14.8818L14.3964 15.7495L14.9458 15.3157ZM3.25495 16.191L3.60357 15.7495L2.50487 14.8818L2.15624 15.3233L3.25495 16.191ZM2.75543 15.8881L3.17529 15.5138L2.24364 14.4688L1.82377 14.8431L2.75543 15.8881ZM16.1762 14.8431L15.7564 14.4688L14.8247 15.5138L15.2446 15.8881L16.1762 14.8431ZM15.8437 15.3233L15.4951 14.8819L14.3964 15.7495L14.745 16.1909L15.8437 15.3233ZM3.25494 4.80961L2.90632 4.36817L1.80762 5.23585L2.15625 5.67729L3.25494 4.80961ZM1.82377 6.15748L2.24364 6.5318L3.17529 5.4868L2.75543 5.11248L1.82377 6.15748ZM15.9387 10.6353L17.0637 10.6334L17.0613 9.23338L15.9363 9.23533L15.9387 10.6353ZM6.09302 3.94366L6.09938 5.06865L7.49935 5.06073L7.49299 3.93575L6.09302 3.94366ZM7.175 15.9378V17.0628H8.575V15.9378H7.175ZM10.825 17.0628V15.9378H9.425V17.0628H10.825ZM2.50487 14.8818L1.80762 15.7647L2.90632 16.6324L3.60357 15.7495L2.50487 14.8818ZM2.33556 16.2625L3.17529 15.5138L2.24364 14.4688L1.40391 15.2175L2.33556 16.2625ZM2.0625 9.8003H0.9375V11.2003H2.0625V9.8003ZM14.8247 15.5138L15.6644 16.2624L16.5961 15.2175L15.7564 14.4688L14.8247 15.5138ZM17.0625 9.8003H15.9375V11.2003H17.0625V9.8003ZM16.1924 15.7647L15.4951 14.8818L14.3964 15.7495L15.0937 16.6324L16.1924 15.7647ZM3.17529 5.4868L2.33556 4.73815L1.40391 5.78315L2.24364 6.5318L3.17529 5.4868ZM3.60357 5.25106L2.90632 4.36817L1.80762 5.23585L2.50487 6.11874L3.60357 5.25106ZM3.05422 15.3157L3.92189 14.217L3.92166 14.2168L3.05422 15.3157ZM2.70947 14.9913L1.66443 15.9229L1.66447 15.923L2.70947 14.9913ZM15.2905 14.9913L16.3355 15.923L16.3356 15.9229L15.2905 14.9913ZM14.9458 15.3157L14.0785 14.2166L14.0781 14.217L14.9458 15.3157ZM2.35697 4.80201L3.22466 5.9007L3.22466 5.9007L2.35697 4.80201ZM2.70947 6.0093L3.75446 6.94096L3.75446 6.94096L2.70947 6.0093ZM17.0625 9.93338L18.4625 9.93107L18.4625 9.93101L17.0625 9.93338ZM16.499 9.37185L16.5014 10.7718L16.5017 10.7718L16.499 9.37185ZM15.9375 9.93533L17.3375 9.93301V9.93296L15.9375 9.93533ZM6.79936 5.06469L6.80728 6.46467H6.80731L6.79936 5.06469ZM7.35868 4.49902L8.75866 4.49111L8.75866 4.49108L7.35868 4.49902ZM6.793 3.93971L6.7851 2.53973L6.78508 2.53973L6.793 3.93971ZM4.64921 15.8485L4.49199 17.2396L4.49206 17.2396L4.64921 15.8485ZM2.35697 16.1986L3.22469 15.0999L3.22463 15.0999L2.35697 16.1986ZM4.52294 16.9664L4.36576 18.3575L4.36582 18.3575L4.52294 16.9664ZM1.04072 13.667L-0.34804 13.844L-0.348037 13.8441L1.04072 13.667ZM1.86974 15.74L2.91483 14.8084L2.91472 14.8083L1.86974 15.74ZM2.15669 13.5246L3.54544 13.3475L3.54544 13.3475L2.15669 13.5246ZM15.8433 13.5246L14.4546 13.3474L14.4545 13.3475L15.8433 13.5246ZM16.1302 15.74L15.0853 14.8083L15.0852 14.8084L16.1302 15.74ZM16.9593 13.667L18.3481 13.8441L18.3481 13.844L16.9593 13.667ZM13.477 16.9664L13.6342 18.3575L13.6342 18.3575L13.477 16.9664ZM15.643 16.1986L16.5107 17.2973L16.5107 17.2973L15.643 16.1986ZM13.3507 15.8485L13.5079 17.2396L13.508 17.2396L13.3507 15.8485ZM2.15669 7.47599L3.54544 7.6531L3.54544 7.65309L2.15669 7.47599ZM1.86974 5.26065L0.824741 4.32899L0.824741 4.32899L1.86974 5.26065ZM1.04072 7.33369L-0.348038 7.15659L-0.348039 7.1566L1.04072 7.33369ZM3.05422 5.6849L3.92186 6.78362L3.9219 6.78359L3.05422 5.6849ZM4.17419 4.08108L3.95595 2.6982L3.95593 2.6982L4.17419 4.08108ZM4.34957 5.19233L4.5678 6.57522L4.56782 6.57522L4.34957 5.19233ZM18.4625 9.93101C18.4607 8.84712 17.5805 7.96976 16.4963 7.97185L16.5017 10.7718C16.0389 10.7727 15.6633 10.3982 15.6625 9.93574L18.4625 9.93101ZM16.4967 7.97185C15.4127 7.97369 14.5357 8.854 14.5375 9.93769L17.3375 9.93296C17.3383 10.3953 16.9641 10.7711 16.5014 10.7718L16.4967 7.97185ZM6.80731 6.46467C7.89112 6.45852 8.76478 5.57495 8.75866 4.49111L5.9587 4.50693C5.95609 4.04439 6.32893 3.66734 6.79142 3.66471L6.80731 6.46467ZM8.75866 4.49108C8.75251 3.40726 7.86893 2.53361 6.7851 2.53973L6.80091 5.33968C6.33838 5.3423 5.96132 4.96946 5.9587 4.50696L8.75866 4.49108ZM10.125 14.5378H7.875V17.3378H10.125V14.5378ZM7.875 18.4628H10.125V15.6628H7.875V18.4628ZM7.875 14.5378C6.41904 14.5378 5.49281 14.5349 4.80636 14.4573L4.49206 17.2396C5.37248 17.3391 6.48562 17.3378 7.875 17.3378V14.5378ZM4.80644 14.4573C4.15598 14.3838 3.98415 14.2661 3.92189 14.217L2.18654 16.4144C2.83124 16.9235 3.59626 17.1384 4.49199 17.2396L4.80644 14.4573ZM1.48925 17.2972C2.36811 17.9914 3.37164 18.2452 4.36576 18.3575L4.68011 15.5752C3.93099 15.4906 3.52089 15.3338 3.22469 15.0999L1.48925 17.2972ZM4.36582 18.3575C5.32387 18.4657 6.51119 18.4628 7.875 18.4628V15.6628C6.44629 15.6628 5.44457 15.6615 4.68005 15.5752L4.36582 18.3575ZM-0.462499 10.5003C-0.462499 11.7755 -0.466219 12.9172 -0.34804 13.844L2.42947 13.4899C2.33907 12.7809 2.3375 11.8485 2.3375 10.5003H-0.462499ZM-0.348037 13.8441C-0.222949 14.8249 0.0640817 15.8184 0.824747 16.6716L2.91472 14.8083C2.67613 14.5407 2.51693 14.1757 2.42947 13.4898L-0.348037 13.8441ZM3.7545 14.0597C3.72897 14.0311 3.69959 13.9913 3.66607 13.9037C3.62786 13.8038 3.58215 13.6354 3.54544 13.3475L0.767931 13.7017C0.877957 14.5645 1.11377 15.3052 1.66443 15.9229L3.7545 14.0597ZM3.54544 13.3475C3.46625 12.7266 3.4625 11.8793 3.4625 10.5003H0.6625C0.6625 11.8042 0.660894 12.8624 0.767933 13.7017L3.54544 13.3475ZM3.92166 14.2168C3.85991 14.168 3.80409 14.1153 3.75446 14.0596L1.66447 15.923C1.82346 16.1013 1.99827 16.2658 2.18678 16.4146L3.92166 14.2168ZM0.824637 16.6715C1.02777 16.8994 1.25034 17.1086 1.48932 17.2973L3.22463 15.0999C3.11182 15.0108 3.00825 14.9132 2.91483 14.8084L0.824637 16.6715ZM14.5375 10.5003C14.5375 11.8793 14.5338 12.7266 14.4546 13.3474L17.232 13.7018C17.3391 12.8624 17.3375 11.8042 17.3375 10.5003H14.5375ZM14.4545 13.3475C14.4178 13.6354 14.3721 13.8038 14.3339 13.9037C14.3004 13.9913 14.271 14.0311 14.2455 14.0597L16.3356 15.9229C16.8862 15.3052 17.122 14.5645 17.2321 13.7017L14.4545 13.3475ZM17.1752 16.6716C17.9359 15.8184 18.223 14.8249 18.3481 13.8441L15.5705 13.4898C15.4831 14.1756 15.3239 14.5407 15.0853 14.8083L17.1752 16.6716ZM18.3481 13.844C18.4662 12.9172 18.4625 11.7755 18.4625 10.5003H15.6625C15.6625 11.8484 15.6609 12.781 15.5705 13.4899L18.3481 13.844ZM10.125 18.4628C11.4888 18.4628 12.6761 18.4657 13.6342 18.3575L13.3199 15.5752C12.5554 15.6615 11.5537 15.6628 10.125 15.6628V18.4628ZM13.6342 18.3575C14.6284 18.2452 15.6319 17.9914 16.5107 17.2973L14.7754 15.0999C14.4791 15.3338 14.069 15.4906 13.3199 15.5752L13.6342 18.3575ZM14.0781 14.217C14.0159 14.2661 13.844 14.3838 13.1935 14.4573L13.508 17.2396C14.4037 17.1384 15.1687 16.9235 15.8134 16.4144L14.0781 14.217ZM13.1936 14.4573C12.5072 14.5349 11.581 14.5378 10.125 14.5378V17.3378C11.5144 17.3378 12.6275 17.3391 13.5079 17.2396L13.1936 14.4573ZM14.2456 14.0596C14.1958 14.1154 14.1401 14.1681 14.0785 14.2166L15.813 16.4147C16.0018 16.2657 16.1766 16.1012 16.3355 15.923L14.2456 14.0596ZM16.5107 17.2973C16.7497 17.1085 16.9723 16.8993 17.1753 16.6715L15.0852 14.8084C14.9917 14.9133 14.8881 15.0108 14.7753 15.0999L16.5107 17.2973ZM3.4625 10.5003C3.4625 9.12131 3.46625 8.27403 3.54544 7.6531L0.767933 7.29889C0.660894 8.13822 0.6625 9.1964 0.6625 10.5003H3.4625ZM3.54544 7.65309C3.58215 7.36519 3.62786 7.1968 3.66607 7.09691C3.6996 7.00929 3.72897 6.96955 3.75446 6.94096L1.66447 5.07764C1.11376 5.69535 0.877952 6.43612 0.767931 7.2989L3.54544 7.65309ZM0.824741 4.32899C0.0640816 5.18219 -0.22295 6.1757 -0.348038 7.15659L2.42947 7.51079C2.51693 6.82494 2.67613 6.45993 2.91473 6.19231L0.824741 4.32899ZM-0.348039 7.1566C-0.466219 8.08338 -0.462499 9.22511 -0.462499 10.5003H2.3375C2.3375 9.15214 2.33907 8.21967 2.42947 7.51078L-0.348039 7.1566ZM1.48929 3.70332C1.25023 3.89212 1.02772 4.10132 0.824741 4.32899L2.91473 6.19231C3.0083 6.08736 3.11194 5.98972 3.22466 5.9007L1.48929 3.70332ZM3.75446 6.94096C3.80406 6.88532 3.85993 6.83253 3.92186 6.78362L2.18658 4.58617C1.99825 4.73489 1.82349 4.89928 1.66447 5.07765L3.75446 6.94096ZM18.4625 10.5003C18.4625 10.3091 18.4628 10.1147 18.4625 9.93107L15.6625 9.93568C15.6628 10.1166 15.6625 10.3027 15.6625 10.5003H18.4625ZM14.5375 9.93765C14.5378 10.1173 14.5375 10.3 14.5375 10.5003H17.3375C17.3375 10.3064 17.3378 10.1154 17.3375 9.93301L14.5375 9.93765ZM6.78508 2.53973C5.73554 2.54567 4.77761 2.56853 3.95595 2.6982L4.39242 5.46397C4.97855 5.37147 5.73913 5.3457 6.80093 5.33968L6.78508 2.53973ZM3.95593 2.6982C3.09755 2.83367 2.24717 3.10479 1.48929 3.70332L3.22466 5.9007C3.48076 5.69845 3.82196 5.554 4.39244 5.46396L3.95593 2.6982ZM3.9219 6.78359C3.97666 6.74035 4.11347 6.64692 4.5678 6.57522L4.13133 3.80945C3.38839 3.92669 2.74268 4.14699 2.18653 4.58621L3.9219 6.78359ZM4.56782 6.57522C5.05898 6.4977 5.73973 6.47071 6.80728 6.46467L6.79145 3.66471C5.73735 3.67068 4.85848 3.69468 4.13131 3.80945L4.56782 6.57522Z" fill="#2B2B2B" mask="url(#path-3-inside-1_374_451)"/>
</g>
<path id="Vector_4" d="M7.5 13.5H8.625" stroke="#2B2B2B" stroke-width="1.4" stroke-miterlimit="10" stroke-linecap="round" stroke-linejoin="round"/>
<path id="Vector_5" d="M10.875 13.5H13.5" stroke="#2B2B2B" stroke-width="1.4" stroke-miterlimit="10" stroke-linecap="round" stroke-linejoin="round"/>
<path id="Vector_6" d="M1.875 8.25H7.5" stroke="#2B2B2B" stroke-width="1.4" stroke-linecap="round" stroke-linejoin="round"/>
</g>
</svg>
