<svg width="18" height="18" viewBox="0 0 18 18" fill="none" xmlns="http://www.w3.org/2000/svg">
<g id="building-06">
<path id="Vector" d="M9 1.5H4.5C2.6385 1.5 2.25 1.8885 2.25 3.75V16.5H11.25V3.75C11.25 1.8885 10.8615 1.5 9 1.5Z" stroke="#2B2B2B" stroke-width="1.4" stroke-linejoin="round"/>
<path id="Vector_2" d="M13.5 6H11.25V16.5H15.75V8.25C15.75 6.3885 15.3615 6 13.5 6Z" stroke="#2B2B2B" stroke-width="1.4" stroke-linejoin="round"/>
<path id="Vector_3" d="M6 4.5H7.5M6 6.75H7.5M6 9H7.5" stroke="#2B2B2B" stroke-width="1.4" stroke-linecap="round" stroke-linejoin="round"/>
<path id="Vector_4" d="M8.625 16.5V13.5C8.625 12.7929 8.625 12.4394 8.40532 12.2197C8.18565 12 7.8321 12 7.125 12H6.375C5.66789 12 5.31434 12 5.09467 12.2197C4.875 12.4394 4.875 12.7929 4.875 13.5V16.5" stroke="#2B2B2B" stroke-width="1.4" stroke-linejoin="round"/>
</g>
</svg>
