<svg width="20" height="19" viewBox="0 0 20 19" fill="none" xmlns="http://www.w3.org/2000/svg">
<path d="M6.875 6.75H6.125M9.875 6.75H9.125M6.875 4.5H6.125M9.875 4.5H9.125" stroke="#2B2B2B" stroke-width="1.4" stroke-linecap="round"/>
<path d="M15.875 11.25H15.125M15.875 8.25H15.125" stroke="#2B2B2B" stroke-width="1.4" stroke-linecap="round"/>
<path d="M12.5 6V16.5H15.5C16.9142 16.5 17.6213 16.5 18.0606 16.0606C18.5 15.6213 18.5 14.9142 18.5 13.5V9C18.5 7.5858 18.5 6.87868 18.0606 6.43934C17.6213 6 16.9142 6 15.5 6H12.5ZM12.5 6C12.5 3.87868 12.5 2.81802 11.841 2.15901C11.1819 1.5 10.1213 1.5 8 1.5C5.87868 1.5 4.81802 1.5 4.15901 2.15901C3.5 2.81802 3.5 3.87868 3.5 6V7.5" stroke="#2B2B2B" stroke-width="1.4" stroke-linecap="round" stroke-linejoin="round"/>
<path d="M6.45817 14.0001C6.45817 14.8055 5.80525 15.4584 4.99984 15.4584C4.19442 15.4584 3.5415 14.8055 3.5415 14.0001C3.5415 13.1947 4.19442 12.5417 4.99984 12.5417C5.80525 12.5417 6.45817 13.1947 6.45817 14.0001Z" stroke="#2B2B2B" stroke-width="1.3"/>
<path d="M8.75475 14.8734C8.97221 14.8148 9.08096 14.7855 9.12387 14.7294C9.16683 14.6733 9.16683 14.5831 9.16683 14.4028V13.5971C9.16683 13.4167 9.16683 13.3265 9.12387 13.2704C9.08091 13.2143 8.97221 13.185 8.75475 13.1264C7.94208 12.9072 7.43346 12.0576 7.64321 11.2502C7.70087 11.0282 7.72971 10.9172 7.70216 10.8521C7.67462 10.787 7.59562 10.7421 7.43754 10.6524L6.71891 10.2444C6.56383 10.1563 6.48629 10.1123 6.41671 10.1216C6.34708 10.131 6.26858 10.2094 6.1115 10.366C5.5035 10.9726 4.4975 10.9726 3.88947 10.366C3.73243 10.2093 3.6539 10.131 3.5843 10.1216C3.5147 10.1122 3.43715 10.1563 3.28205 10.2443L2.56343 10.6523C2.40538 10.7421 2.32636 10.7869 2.29882 10.852C2.27128 10.9171 2.30011 11.0282 2.35777 11.2502C2.5674 12.0576 2.05838 12.9072 1.24559 13.1264C1.02813 13.185 0.9194 13.2143 0.876446 13.2704C0.833496 13.3265 0.833496 13.4167 0.833496 13.5971V14.4028C0.833496 14.5831 0.833496 14.6733 0.876446 14.7294C0.919392 14.7855 1.02813 14.8148 1.24559 14.8734C2.05825 15.0926 2.56686 15.9422 2.35713 16.7496C2.29945 16.9716 2.27061 17.0826 2.29815 17.1477C2.32569 17.2128 2.40471 17.2577 2.56277 17.3474L3.28139 17.7555C3.4365 17.8435 3.51405 17.8876 3.58366 17.8782C3.65327 17.8688 3.73178 17.7904 3.88879 17.6338C4.49712 17.0267 5.50383 17.0267 6.11221 17.6337C6.26921 17.7904 6.34771 17.8688 6.41733 17.8781C6.48691 17.8875 6.5645 17.8435 6.71958 17.7554L7.43821 17.3474C7.59629 17.2577 7.67533 17.2128 7.70283 17.1477C7.73037 17.0826 7.70154 16.9716 7.64383 16.7495C7.434 15.9422 7.94221 15.0926 8.75475 14.8734Z" stroke="#2B2B2B" stroke-width="1.3" stroke-linecap="round"/>
</svg>
