<svg width="18" height="18" viewBox="0 0 18 18" fill="none" xmlns="http://www.w3.org/2000/svg">
<g id="unlink-04">
<path id="Vector" d="M7.5 9.92175C7.6062 10.0957 7.73227 10.2603 7.87815 10.4121C8.78377 11.3546 10.1641 11.502 11.2182 10.8542C11.4135 10.7341 11.5975 10.5868 11.7654 10.4121L14.1949 7.88355C15.2683 6.76638 15.2683 4.95507 14.1949 3.83789C13.1215 2.7207 11.3811 2.72071 10.3076 3.83789L9.7725 4.39484" stroke="#2B2B2B" stroke-width="1.4" stroke-linecap="round"/>
<path id="Vector_2" d="M8.22773 13.605L7.69238 14.1621C6.61895 15.2793 4.87853 15.2793 3.80509 14.1621C2.73164 13.0449 2.73164 11.2336 3.80509 10.1164L6.23465 7.5879C7.3081 6.4707 9.04853 6.4707 10.1219 7.5879C10.2678 7.73962 10.3938 7.90425 10.5 8.0781" stroke="#2B2B2B" stroke-width="1.4" stroke-linecap="round"/>
<path id="Vector_3" d="M15.75 12H14.1908M12 15.75V14.1908" stroke="#2B2B2B" stroke-width="1.5" stroke-linecap="round" stroke-linejoin="round"/>
<path id="Vector_4" d="M2.25 6H3.80917M6 2.25V3.80917" stroke="#2B2B2B" stroke-width="1.5" stroke-linecap="round" stroke-linejoin="round"/>
</g>
</svg>
