<svg width="18" height="18" viewBox="0 0 18 18" fill="none" xmlns="http://www.w3.org/2000/svg">
<g id="time-schedule">
<path id="Vector" d="M9 6V9L10.125 10.125" stroke="#2B2B2B" stroke-width="1.4" stroke-linecap="round" stroke-linejoin="round"/>
<path id="Vector_2" d="M14.6591 12.34C15.8864 13.0027 16.5 13.3341 16.5 13.875C16.5 14.4158 15.8864 14.7472 14.6591 15.4099L13.8233 15.8613C12.8808 16.3702 12.4096 16.6247 12.1829 16.4397C11.628 15.9865 12.4925 14.817 12.7052 14.4027C12.9208 13.983 12.9169 13.7594 12.7052 13.3472C12.4925 12.9329 11.628 11.7634 12.1829 11.3103C12.4096 11.1252 12.8808 11.3797 13.8233 11.8887L14.6591 12.34Z" stroke="#2B2B2B" stroke-width="1.4"/>
<path id="Vector_3" d="M9.76958 16.461C9.5166 16.4868 9.2598 16.5 9 16.5C4.85786 16.5 1.5 13.1421 1.5 9C1.5 4.85786 4.85786 1.5 9 1.5C13.1421 1.5 16.5 4.85786 16.5 9C16.5 9.51367 16.4483 10.0153 16.35 10.5" stroke="#2B2B2B" stroke-width="1.4" stroke-linecap="round"/>
</g>
</svg>
