<svg width="18" height="18" viewBox="0 0 18 18" fill="none" xmlns="http://www.w3.org/2000/svg">
<g id="user-multiple">
<path id="Vector" d="M13.9621 15H14.3297C15.1921 15 15.878 14.6071 16.4939 14.0577C18.0585 12.662 14.3806 11.25 13.125 11.25M11.625 3.80158C11.7953 3.7678 11.9722 3.75 12.1536 3.75C13.5185 3.75 14.625 4.75736 14.625 6C14.625 7.24264 13.5185 8.25 12.1536 8.25C11.9722 8.25 11.7953 8.23223 11.625 8.1984" stroke="#2B2B2B" stroke-width="1.4" stroke-linecap="round"/>
<path id="Vector_2" d="M3.36098 12.0834C2.47676 12.5573 0.158354 13.5248 1.57041 14.7355C2.26019 15.327 3.02843 15.75 3.99429 15.75H9.50573C10.4716 15.75 11.2398 15.327 11.9296 14.7355C13.3417 13.5248 11.0233 12.5573 10.139 12.0834C8.0655 10.9722 5.43449 10.9722 3.36098 12.0834Z" stroke="#2B2B2B" stroke-width="1.4"/>
<path id="Vector_3" d="M9.75 5.625C9.75 7.28186 8.40683 8.625 6.75 8.625C5.09314 8.625 3.75 7.28186 3.75 5.625C3.75 3.96814 5.09314 2.625 6.75 2.625C8.40683 2.625 9.75 3.96814 9.75 5.625Z" stroke="#2B2B2B" stroke-width="1.4"/>
</g>
</svg>
