<svg width="18" height="18" viewBox="0 0 18 18" fill="none" xmlns="http://www.w3.org/2000/svg">
<path d="M1 13.7998C1 12.5674 1 11.9512 1.27739 11.4985C1.4326 11.2453 1.64556 11.0323 1.89884 10.8771C2.3515 10.5997 2.96768 10.5997 4.20006 10.5997C5.43243 10.5997 6.04861 10.5997 6.50127 10.8771C6.75455 11.0323 6.96751 11.2453 7.12272 11.4985C7.40011 11.9512 7.40011 12.5674 7.40011 13.7998C7.40011 15.0321 7.40011 15.6484 7.12272 16.101C6.96751 16.3543 6.75455 16.5673 6.50127 16.7225C6.04861 16.9998 5.43243 16.9998 4.20006 16.9998C2.96768 16.9998 2.3515 16.9998 1.89884 16.7225C1.64556 16.5673 1.4326 16.3543 1.27739 16.101C1 15.6484 1 15.0321 1 13.7998Z" stroke="white" stroke-width="1.5"/>
<path d="M10.6002 13.7998C10.6002 12.5674 10.6002 11.9512 10.8776 11.4985C11.0328 11.2453 11.2458 11.0323 11.499 10.8771C11.9517 10.5997 12.5679 10.5997 13.8003 10.5997C15.0326 10.5997 15.6489 10.5997 16.1015 10.8771C16.3548 11.0323 16.5678 11.2453 16.723 11.4985C17.0003 11.9512 17.0003 12.5674 17.0003 13.7998C17.0003 15.0321 17.0003 15.6484 16.723 16.101C16.5678 16.3543 16.3548 16.5673 16.1015 16.7225C15.6489 16.9998 15.0326 16.9998 13.8003 16.9998C12.5679 16.9998 11.9517 16.9998 11.499 16.7225C11.2458 16.5673 11.0328 16.3543 10.8776 16.101C10.6002 15.6484 10.6002 15.0321 10.6002 13.7998Z" stroke="white" stroke-width="1.5"/>
<path d="M1 4.20006C1 2.96768 1 2.3515 1.27739 1.89884C1.4326 1.64556 1.64556 1.4326 1.89884 1.27739C2.3515 1 2.96768 1 4.20006 1C5.43243 1 6.04861 1 6.50127 1.27739C6.75455 1.4326 6.96751 1.64556 7.12272 1.89884C7.40011 2.3515 7.40011 2.96768 7.40011 4.20006C7.40011 5.43243 7.40011 6.04861 7.12272 6.50127C6.96751 6.75455 6.75455 6.96751 6.50127 7.12272C6.04861 7.40011 5.43243 7.40011 4.20006 7.40011C2.96768 7.40011 2.3515 7.40011 1.89884 7.12272C1.64556 6.96751 1.4326 6.75455 1.27739 6.50127C1 6.04861 1 5.43243 1 4.20006Z" stroke="white" stroke-width="1.5"/>
<path d="M10.6002 4.20006C10.6002 2.96768 10.6002 2.3515 10.8776 1.89884C11.0328 1.64556 11.2458 1.4326 11.499 1.27739C11.9517 1 12.5679 1 13.8003 1C15.0326 1 15.6489 1 16.1015 1.27739C16.3548 1.4326 16.5678 1.64556 16.723 1.89884C17.0003 2.3515 17.0003 2.96768 17.0003 4.20006C17.0003 5.43243 17.0003 6.04861 16.723 6.50127C16.5678 6.75455 16.3548 6.96751 16.1015 7.12272C15.6489 7.40011 15.0326 7.40011 13.8003 7.40011C12.5679 7.40011 11.9517 7.40011 11.499 7.12272C11.2458 6.96751 11.0328 6.75455 10.8776 6.50127C10.6002 6.04861 10.6002 5.43243 10.6002 4.20006Z" stroke="white" stroke-width="1.5"/>
</svg>
