<svg width="12" height="12" viewBox="0 0 12 12" fill="none" xmlns="http://www.w3.org/2000/svg">
<path d="M5.54938 1.5C3.7249 1.50329 2.76949 1.54808 2.15892 2.15876C1.5 2.81778 1.5 3.87846 1.5 5.99979C1.5 8.12114 1.5 9.18184 2.15892 9.84084C2.81783 10.4999 3.87833 10.4999 5.99938 10.4999C8.12033 10.4999 9.18088 10.4999 9.83978 9.84084C10.4503 9.23019 10.4951 8.27459 10.4984 6.44984" stroke="white" stroke-width="1.1" stroke-linecap="round" stroke-linejoin="round"/>
<path d="M10.2771 1.74751L5.52344 6.52875M10.2771 1.74751C10.0301 1.50021 8.36624 1.52326 8.01449 1.52826M10.2771 1.74751C10.5241 1.99482 10.501 3.66082 10.496 4.01302" stroke="white" stroke-width="1.1" stroke-linecap="round" stroke-linejoin="round"/>
</svg>
