<svg width="18" height="18" viewBox="0 0 18 18" fill="none" xmlns="http://www.w3.org/2000/svg">
<path d="M11.3999 1L14.1999 3.8M14.1999 3.8L16.9999 6.6M14.1999 3.8L16.9999 1M14.1999 3.8L11.3999 6.6" stroke="white" stroke-width="1.5" stroke-linecap="round" stroke-linejoin="round"/>
<path d="M4.27905 14.9999C3.23896 14.8975 2.4598 14.5851 1.93726 14.0626C1 13.1254 1 11.6168 1 8.59986V8.19986C1 5.18287 1 3.67439 1.93726 2.73712C2.87452 1.79987 4.38301 1.79987 7.4 1.79987H8.6M4.6 13.7999C4.43563 14.6014 3.70215 16.3331 4.45255 16.8919C4.8448 17.1773 5.46983 16.8725 6.7199 16.263C7.5972 15.8351 8.48496 15.3446 9.44368 15.1239C9.79448 15.0439 10.1516 15.0099 10.6 14.9999C13.617 14.9999 15.1255 14.9999 16.0627 14.0626C16.9576 13.1677 16.9981 11.7521 16.9999 8.99986" stroke="white" stroke-width="1.5" stroke-linecap="round"/>
</svg>
