<svg width="18" height="19" viewBox="0 0 18 19" fill="none" xmlns="http://www.w3.org/2000/svg">
<g id="copy-01">
<path id="Vector" d="M6.75 11.75C6.75 9.6287 6.75 8.56805 7.40901 7.90901C8.06805 7.25 9.1287 7.25 11.25 7.25H12C14.1213 7.25 15.1819 7.25 15.841 7.90901C16.5 8.56805 16.5 9.6287 16.5 11.75V12.5C16.5 14.6213 16.5 15.6819 15.841 16.341C15.1819 17 14.1213 17 12 17H11.25C9.1287 17 8.06805 17 7.40901 16.341C6.75 15.6819 6.75 14.6213 6.75 12.5V11.75Z" stroke="#2B2B2B" stroke-width="1.4" stroke-linecap="round" stroke-linejoin="round"/>
<path id="Vector_2" d="M12.7499 7.25C12.7481 5.03218 12.7146 3.88341 12.069 3.09682C11.9443 2.94492 11.8051 2.80563 11.6532 2.68097C10.8234 2 9.59062 2 7.125 2C4.65939 2 3.42658 2 2.59682 2.68097C2.44492 2.80563 2.30563 2.94492 2.18097 3.09682C1.5 3.92658 1.5 5.15939 1.5 7.625C1.5 10.0906 1.5 11.3234 2.18097 12.1532C2.30563 12.3051 2.44492 12.4443 2.59682 12.569C3.38341 13.2146 4.53218 13.2481 6.75 13.2499" stroke="#2B2B2B" stroke-width="1.4" stroke-linecap="round" stroke-linejoin="round"/>
</g>
</svg>
