<svg width="18" height="18" viewBox="0 0 18 18" fill="none" xmlns="http://www.w3.org/2000/svg">
<rect width="18" height="18" fill="#1E1E1E"/>
<g id="Overview Pages">
<path d="M-468 -1299C-468 -1300.1 -467.105 -1301 -466 -1301H6353C6354.1 -1301 6355 -1300.1 6355 -1299V1297C6355 1298.1 6354.1 1299 6353 1299H-466C-467.105 1299 -468 1298.1 -468 1297V-1299Z" fill="#138AB6"/>
<path d="M-466 -1300H6353V-1302H-466V-1300ZM6354 -1299V1297H6356V-1299H6354ZM6353 1298H-466V1300H6353V1298ZM-467 1297V-1299H-469V1297H-467ZM-466 1298C-466.552 1298 -467 1297.55 -467 1297H-469C-469 1298.66 -467.657 1300 -466 1300V1298ZM6354 1297C6354 1297.55 6353.55 1298 6353 1298V1300C6354.66 1300 6356 1298.66 6356 1297H6354ZM6353 -1300C6353.55 -1300 6354 -1299.55 6354 -1299H6356C6356 -1300.66 6354.66 -1302 6353 -1302V-1300ZM-466 -1302C-467.657 -1302 -469 -1300.66 -469 -1299H-467C-467 -1299.55 -466.552 -1300 -466 -1300V-1302Z" fill="white" fill-opacity="0.1"/>
<g id="single context menu modal">
<g id="context menu dropdown">
<g id="Rectangle 43" filter="url(#filter0_d_0_1)">
<rect x="-16" y="-116" width="200" height="183" rx="8" fill="white"/>
</g>
<g id="weeks">
<rect id="Rectangle 45" x="-8" y="-7" width="184" height="32" rx="10" fill="#E6E6E6"/>
<g id="Group 6173">
<g id="logout-01">
<path id="Vector" d="M10.5 2.32127C10.1573 2.27431 9.80663 2.25 9.45 2.25C5.47355 2.25 2.25 5.27208 2.25 9C2.25 12.728 5.47355 15.75 9.45 15.75C9.80663 15.75 10.1573 15.7257 10.5 15.6788" stroke="#138AB6" stroke-width="1.4" stroke-linecap="round"/>
<path id="Vector_2" d="M15.75 9H8.25M15.75 9C15.75 8.47485 14.2543 7.49365 13.875 7.125M15.75 9C15.75 9.52515 14.2543 10.5064 13.875 10.875" stroke="#138AB6" stroke-width="1.4" stroke-linecap="round" stroke-linejoin="round"/>
</g>
</g>
</g>
</g>
</g>
</g>
<defs>
<filter id="filter0_d_0_1" x="-27" y="-127" width="222" height="205" filterUnits="userSpaceOnUse" color-interpolation-filters="sRGB">
<feFlood flood-opacity="0" result="BackgroundImageFix"/>
<feColorMatrix in="SourceAlpha" type="matrix" values="0 0 0 0 0 0 0 0 0 0 0 0 0 0 0 0 0 0 127 0" result="hardAlpha"/>
<feMorphology radius="3" operator="dilate" in="SourceAlpha" result="effect1_dropShadow_0_1"/>
<feOffset/>
<feGaussianBlur stdDeviation="4"/>
<feComposite in2="hardAlpha" operator="out"/>
<feColorMatrix type="matrix" values="0 0 0 0 0 0 0 0 0 0 0 0 0 0 0 0 0 0 0.25 0"/>
<feBlend mode="normal" in2="BackgroundImageFix" result="effect1_dropShadow_0_1"/>
<feBlend mode="normal" in="SourceGraphic" in2="effect1_dropShadow_0_1" result="shape"/>
</filter>
</defs>
</svg>
