<svg width="132" height="18" viewBox="0 0 132 18" fill="none" xmlns="http://www.w3.org/2000/svg">
<path d="M36.44 3.44V14H35.08V6.376L35.152 5.208L34.864 6.496L32.32 13.4H30.968L28.424 6.496L28.144 5.208L28.208 6.376V14H26.84V3.44H28.664L31.544 11.728L31.64 12.264L31.744 11.728L34.632 3.44H36.44ZM41.6769 14.192C40.9995 14.192 40.3969 14.04 39.8689 13.736C39.3462 13.432 38.9355 13.0213 38.6369 12.504C38.3382 11.9813 38.1889 11.392 38.1889 10.736C38.1889 10.08 38.3382 9.488 38.6369 8.96C38.9355 8.432 39.3462 8.01333 39.8689 7.704C40.3969 7.39467 40.9995 7.24 41.6769 7.24C42.3489 7.24 42.9435 7.39467 43.4609 7.704C43.9835 8.01333 44.3915 8.432 44.6849 8.96C44.9782 9.488 45.1249 10.08 45.1249 10.736C45.1249 11.392 44.9782 11.9813 44.6849 12.504C44.3915 13.0213 43.9835 13.432 43.4609 13.736C42.9435 14.04 42.3489 14.192 41.6769 14.192ZM41.6769 13C42.1035 13 42.4742 12.9013 42.7889 12.704C43.1089 12.5067 43.3569 12.2373 43.5329 11.896C43.7089 11.5493 43.7969 11.16 43.7969 10.728C43.7969 10.296 43.7089 9.90667 43.5329 9.56C43.3569 9.21333 43.1089 8.93867 42.7889 8.736C42.4742 8.53333 42.1035 8.432 41.6769 8.432C41.2449 8.432 40.8689 8.53333 40.5489 8.736C40.2289 8.93867 39.9782 9.21333 39.7969 9.56C39.6209 9.90667 39.5329 10.296 39.5329 10.728C39.5329 11.16 39.6209 11.5493 39.7969 11.896C39.9782 12.2373 40.2289 12.5067 40.5489 12.704C40.8689 12.9013 41.2449 13 41.6769 13ZM46.0121 7.432H47.5081L49.6521 12.712L51.7961 7.432H53.2841L50.4761 14H48.8361L46.0121 7.432ZM55.462 11C55.4673 11.3947 55.5527 11.7547 55.718 12.08C55.8833 12.4053 56.1287 12.664 56.454 12.856C56.7847 13.048 57.19 13.144 57.67 13.144C58.0753 13.144 58.4193 13.0853 58.702 12.968C58.99 12.8453 59.2247 12.7013 59.406 12.536C59.5873 12.3653 59.718 12.2133 59.798 12.08L60.478 12.92C60.302 13.176 60.086 13.4 59.83 13.592C59.5793 13.784 59.2727 13.9307 58.91 14.032C58.5473 14.1387 58.1047 14.192 57.582 14.192C56.878 14.192 56.2673 14.0427 55.75 13.744C55.238 13.44 54.8433 13.0213 54.566 12.488C54.2887 11.9493 54.15 11.3333 54.15 10.64C54.15 10 54.2807 9.424 54.542 8.912C54.8033 8.39467 55.182 7.98667 55.678 7.688C56.1793 7.38933 56.782 7.24 57.486 7.24C58.1313 7.24 58.6913 7.376 59.166 7.648C59.646 7.91467 60.0167 8.29333 60.278 8.784C60.5447 9.27467 60.678 9.86133 60.678 10.544C60.678 10.5867 60.6753 10.664 60.67 10.776C60.6647 10.8827 60.6593 10.9573 60.654 11H55.462ZM59.35 9.952C59.3447 9.73333 59.2807 9.49333 59.158 9.232C59.0407 8.97067 58.8487 8.74667 58.582 8.56C58.3153 8.37333 57.9553 8.28 57.502 8.28C57.0327 8.28 56.654 8.37067 56.366 8.552C56.0833 8.73333 55.8753 8.95467 55.742 9.216C55.6087 9.472 55.5313 9.71733 55.51 9.952H59.35ZM65.6394 7.432H66.9274V4.736H68.3114V7.432H69.9994V8.624H68.3114V11.872C68.3114 12.256 68.378 12.5387 68.5114 12.72C68.65 12.9013 68.834 12.992 69.0634 12.992C69.266 12.992 69.4234 12.9547 69.5354 12.88C69.6474 12.8053 69.714 12.7547 69.7354 12.728L70.2874 13.752C70.2554 13.7787 70.17 13.8293 70.0314 13.904C69.8927 13.9787 69.714 14.0453 69.4954 14.104C69.2767 14.1627 69.0207 14.192 68.7274 14.192C68.2154 14.192 67.786 14.0373 67.4394 13.728C67.098 13.4133 66.9274 12.9173 66.9274 12.24V8.624H65.6394V7.432ZM74.5363 14.192C73.8589 14.192 73.2563 14.04 72.7283 13.736C72.2056 13.432 71.7949 13.0213 71.4963 12.504C71.1976 11.9813 71.0483 11.392 71.0483 10.736C71.0483 10.08 71.1976 9.488 71.4963 8.96C71.7949 8.432 72.2056 8.01333 72.7283 7.704C73.2563 7.39467 73.8589 7.24 74.5363 7.24C75.2083 7.24 75.8029 7.39467 76.3203 7.704C76.8429 8.01333 77.2509 8.432 77.5443 8.96C77.8376 9.488 77.9843 10.08 77.9843 10.736C77.9843 11.392 77.8376 11.9813 77.5443 12.504C77.2509 13.0213 76.8429 13.432 76.3203 13.736C75.8029 14.04 75.2083 14.192 74.5363 14.192ZM74.5363 13C74.9629 13 75.3336 12.9013 75.6483 12.704C75.9683 12.5067 76.2163 12.2373 76.3923 11.896C76.5683 11.5493 76.6563 11.16 76.6563 10.728C76.6563 10.296 76.5683 9.90667 76.3923 9.56C76.2163 9.21333 75.9683 8.93867 75.6483 8.736C75.3336 8.53333 74.9629 8.432 74.5363 8.432C74.1043 8.432 73.7283 8.53333 73.4083 8.736C73.0883 8.93867 72.8376 9.21333 72.6562 9.56C72.4803 9.90667 72.3923 10.296 72.3923 10.728C72.3923 11.16 72.4803 11.5493 72.6562 11.896C72.8376 12.2373 73.0883 12.5067 73.4083 12.704C73.7283 12.9013 74.1043 13 74.5363 13ZM83.5519 3.44H87.2399C87.8105 3.44 88.3279 3.56 88.7919 3.8C89.2612 4.03467 89.6345 4.38133 89.9119 4.84C90.1945 5.29333 90.3359 5.848 90.3359 6.504C90.3359 7.15467 90.2052 7.69333 89.9439 8.12C89.6879 8.54667 89.3785 8.86933 89.0159 9.088C88.6532 9.30133 88.3172 9.41867 88.0079 9.44L90.6239 14H89.0719L86.6239 9.536H84.9199V14H83.5519V3.44ZM84.9199 8.52H86.7599C87.3892 8.52 87.9092 8.36267 88.3199 8.048C88.7305 7.73333 88.9359 7.22933 88.9359 6.536C88.9359 5.84267 88.7305 5.344 88.3199 5.04C87.9145 4.736 87.3972 4.584 86.7679 4.584H84.9199V8.52ZM95.4269 14.192C94.7495 14.192 94.1469 14.04 93.6189 13.736C93.0962 13.432 92.6855 13.0213 92.3869 12.504C92.0882 11.9813 91.9389 11.392 91.9389 10.736C91.9389 10.08 92.0882 9.488 92.3869 8.96C92.6855 8.432 93.0962 8.01333 93.6189 7.704C94.1469 7.39467 94.7495 7.24 95.4269 7.24C96.0989 7.24 96.6935 7.39467 97.2109 7.704C97.7335 8.01333 98.1415 8.432 98.4349 8.96C98.7282 9.488 98.8749 10.08 98.8749 10.736C98.8749 11.392 98.7282 11.9813 98.4349 12.504C98.1415 13.0213 97.7335 13.432 97.2109 13.736C96.6935 14.04 96.0989 14.192 95.4269 14.192ZM95.4269 13C95.8535 13 96.2242 12.9013 96.5389 12.704C96.8589 12.5067 97.1069 12.2373 97.2829 11.896C97.4589 11.5493 97.5469 11.16 97.5469 10.728C97.5469 10.296 97.4589 9.90667 97.2829 9.56C97.1069 9.21333 96.8589 8.93867 96.5389 8.736C96.2242 8.53333 95.8535 8.432 95.4269 8.432C94.9949 8.432 94.6189 8.53333 94.2989 8.736C93.9789 8.93867 93.7282 9.21333 93.5469 9.56C93.3709 9.90667 93.2829 10.296 93.2829 10.728C93.2829 11.16 93.3709 11.5493 93.5469 11.896C93.7282 12.2373 93.9789 12.5067 94.2989 12.704C94.6189 12.9013 94.9949 13 95.4269 13ZM103.458 14.192C102.781 14.192 102.178 14.04 101.65 13.736C101.127 13.432 100.717 13.0213 100.418 12.504C100.119 11.9813 99.9701 11.392 99.9701 10.736C99.9701 10.08 100.119 9.488 100.418 8.96C100.717 8.432 101.127 8.01333 101.65 7.704C102.178 7.39467 102.781 7.24 103.458 7.24C104.13 7.24 104.725 7.39467 105.242 7.704C105.765 8.01333 106.173 8.432 106.466 8.96C106.759 9.488 106.906 10.08 106.906 10.736C106.906 11.392 106.759 11.9813 106.466 12.504C106.173 13.0213 105.765 13.432 105.242 13.736C104.725 14.04 104.13 14.192 103.458 14.192ZM103.458 13C103.885 13 104.255 12.9013 104.57 12.704C104.89 12.5067 105.138 12.2373 105.314 11.896C105.49 11.5493 105.578 11.16 105.578 10.728C105.578 10.296 105.49 9.90667 105.314 9.56C105.138 9.21333 104.89 8.93867 104.57 8.736C104.255 8.53333 103.885 8.432 103.458 8.432C103.026 8.432 102.65 8.53333 102.33 8.736C102.01 8.93867 101.759 9.21333 101.578 9.56C101.402 9.90667 101.314 10.296 101.314 10.728C101.314 11.16 101.402 11.5493 101.578 11.896C101.759 12.2373 102.01 12.5067 102.33 12.704C102.65 12.9013 103.026 13 103.458 13ZM116.329 7.24C116.815 7.24 117.231 7.34667 117.577 7.56C117.924 7.768 118.188 8.088 118.369 8.52C118.556 8.952 118.649 9.504 118.649 10.176V14H117.273V10.456C117.273 9.74667 117.175 9.21333 116.977 8.856C116.78 8.49867 116.42 8.32 115.897 8.32C115.62 8.32 115.353 8.39733 115.097 8.552C114.847 8.70133 114.639 8.93333 114.473 9.248C114.313 9.56267 114.233 9.96533 114.233 10.456V14H112.937V10.456C112.937 9.74667 112.815 9.21333 112.569 8.856C112.324 8.49867 111.98 8.32 111.537 8.32C111.255 8.32 110.988 8.39467 110.737 8.544C110.492 8.688 110.292 8.91733 110.137 9.232C109.983 9.54667 109.905 9.95467 109.905 10.456V14H108.521V7.432H109.905V8.44C109.964 8.27467 110.089 8.09867 110.281 7.912C110.479 7.72533 110.729 7.568 111.033 7.44C111.343 7.30667 111.687 7.24 112.065 7.24C112.46 7.24 112.791 7.32 113.057 7.48C113.324 7.64 113.535 7.83733 113.689 8.072C113.844 8.30133 113.951 8.52267 114.009 8.736C114.084 8.50667 114.228 8.27733 114.441 8.048C114.655 7.81333 114.924 7.62133 115.249 7.472C115.575 7.31733 115.935 7.24 116.329 7.24Z" fill="#138AB6"/>
<path d="M10.5 2.32127C10.1573 2.27431 9.80663 2.25 9.45 2.25C5.47355 2.25 2.25 5.27208 2.25 9C2.25 12.728 5.47355 15.75 9.45 15.75C9.80663 15.75 10.1573 15.7257 10.5 15.6788" stroke="#138AB6" stroke-width="1.4" stroke-linecap="round"/>
<path d="M15.75 9H8.25M15.75 9C15.75 8.47485 14.2543 7.49365 13.875 7.125M15.75 9C15.75 9.52515 14.2543 10.5064 13.875 10.875" stroke="#138AB6" stroke-width="1.4" stroke-linecap="round" stroke-linejoin="round"/>
</svg>
