<svg width="40" height="40" viewBox="0 0 40 40" fill="none" xmlns="http://www.w3.org/2000/svg">
<g id="Group 540">
<rect id="Rectangle 45" width="40" height="40" rx="8" fill="#F3F3F5"/>
<g id="Group 538">
<path id="Vector" d="M11.0269 22.4926C10.8355 23.7472 11.6912 24.618 12.7388 25.052C16.7553 26.7159 22.3446 26.7159 26.3611 25.052C27.4088 24.618 28.2644 23.7472 28.073 22.4926C27.9554 21.7216 27.3738 21.0795 26.9429 20.4526C26.3785 19.6213 26.3225 18.7146 26.3224 17.75C26.3224 14.0221 23.2903 11 19.55 11C15.8097 11 12.7776 14.0221 12.7776 17.75C12.7775 18.7146 12.7214 19.6213 12.157 20.4526C11.7262 21.0795 11.1445 21.7216 11.0269 22.4926Z" stroke="#5F5F5F" stroke-width="1.5" stroke-linecap="round" stroke-linejoin="round"/>
<path id="Vector_2" d="M15.9515 26.2999C16.3641 27.8526 17.8194 28.9999 19.5515 28.9999C21.2835 28.9999 22.7388 27.8526 23.1515 26.2999" stroke="#5F5F5F" stroke-width="1.5" stroke-linecap="round" stroke-linejoin="round"/>
</g>
</g>
</svg>
