<svg width="8" height="12" viewBox="0 0 8 12" fill="none" xmlns="http://www.w3.org/2000/svg">
<path fill-rule="evenodd" clip-rule="evenodd" d="M3.76343 9.89082L5.90662 7.74763C6.23574 7.4201 6.76738 7.4201 7.0965 7.74763C7.25631 7.90586 7.3465 8.12185 7.3465 8.34652C7.3465 8.572 7.25631 8.78718 7.0965 8.94619L4.36232 11.6804C4.20409 11.8394 3.9881 11.9296 3.76343 11.9296C3.53876 11.9296 3.32276 11.8394 3.16455 11.6804L0.387635 8.94619C0.230199 8.78638 0.141599 8.57119 0.143179 8.34652C0.141597 8.12262 0.230205 7.90664 0.387635 7.74763C0.716749 7.4201 1.24839 7.4201 1.57751 7.74763L3.76343 9.89082ZM3.76343 2.15654L5.90662 4.30054C6.23574 4.62729 6.76738 4.62729 7.0965 4.30054C7.25631 4.14152 7.3465 3.92633 7.3465 3.70087C7.3465 3.47618 7.25631 3.2602 7.0965 3.10198L4.36232 0.367803C4.20409 0.207993 3.9881 0.117798 3.76343 0.117798C3.53876 0.117798 3.32276 0.207987 3.16455 0.367803L0.387635 3.10198C0.230199 3.261 0.141599 3.47699 0.143179 3.70087C0.141597 3.92556 0.230205 4.14075 0.387635 4.30054C0.716749 4.62729 1.24839 4.62729 1.57751 4.30054L3.76343 2.15654Z" fill="#2B2B2B"/>
</svg>
